
<svg width="40px" height="41px" viewBox="1402 250 40 41" version="1.1" xmlns="http://www.w3.org/2000/svg" xmlns:xlink="http://www.w3.org/1999/xlink">
    <!-- Generator: Sketch 3.8.3 (29802) - http://www.bohemiancoding.com/sketch -->
    <desc>Created with Sketch.</desc>
    <defs>
        <polygon id="path-1" points="39.9999922 40 0 40 0 3.90625e-05 39.9999922 3.90625e-05"></polygon>
    </defs>
    <g id="Page-1" stroke="none" stroke-width="1" fill="none" fill-rule="evenodd" transform="translate(1402.000000, 250.000000)">
        <mask id="mask-2" fill="white">
            <use xlink:href="#path-1"></use>
        </mask>
        <g id="Clip-2"></g>
        <path d="M24.9738203,20.7041016 L21.7199922,20.7041016 L21.7199922,32.3016016 L16.8984297,32.3016016 L16.8984297,20.7041016 L14.6064766,20.7041016 L14.6064766,16.6051953 L16.8984297,16.6051953 L16.8984297,13.9539453 C16.8984297,12.0551172 17.8006953,9.08808594 21.7642891,9.08808594 L25.3371797,9.10175781 L25.3371797,13.0806641 L22.7438984,13.0806641 C22.3217891,13.0806641 21.7215547,13.2916797 21.7215547,14.1972266 L21.7215547,16.6059766 L25.3951484,16.6059766 L24.9738203,20.7041016 Z M19.9999922,3.90625e-05 C8.97202344,3.90625e-05 -7.81249992e-06,8.97207031 -7.81249992e-06,20.0000391 C-7.81249992e-06,31.0271484 8.97202344,40.0000391 19.9999922,40.0000391 C31.0271797,40.0000391 39.9999922,31.0271484 39.9999922,20.0000391 C39.9999922,8.97207031 31.0287422,3.90625e-05 19.9999922,3.90625e-05 L19.9999922,3.90625e-05 Z" id="Fill-1" fill="#1B6CE7" mask="url(#mask-2)"></path>
    </g>
</svg>