
<svg width="40px" height="40px" viewBox="1584 249 40 40" version="1.1" xmlns="http://www.w3.org/2000/svg" xmlns:xlink="http://www.w3.org/1999/xlink">
    <!-- Generator: Sketch 3.8.3 (29802) - http://www.bohemiancoding.com/sketch -->
    <desc>Created with Sketch.</desc>
    <defs>
        <polygon id="path-1" points="39.9997656 -2.75523758e-14 39.9997656 38.7825318 0 38.7825318 0 -2.75523758e-14 39.9996875 -2.75523758e-14 39.9996875 38.7825376 0 38.7825376 0 -3.10588236e-05 39.9996875 -3.10588236e-05"></polygon>
    </defs>
    <g id="Page-1" stroke="none" stroke-width="1" fill="none" fill-rule="evenodd" transform="translate(1584.000000, 250.000000)">
        <mask id="mask-2" fill="white">
            <use xlink:href="#path-1"></use>
        </mask>
        <g id="Clip-2"></g>
        <path d="M37.316875,9.89989129 C35.5284375,6.85434071 33.1025,4.44316659 30.0385156,2.66590306 C26.9740625,0.888484235 23.6285156,-3.10588236e-05 19.9996875,-3.10588236e-05 C16.37125,-3.10588236e-05 13.0246875,0.888717176 9.96085938,2.66590306 C6.8965625,4.44308894 4.47070313,6.85434071 2.68226562,9.89989129 C0.894140625,12.9453642 0,16.2709878 0,19.8767619 C0,24.2081478 1.27148437,28.1030019 3.815,31.5623336 C6.35835938,35.021976 9.64390625,37.4159125 13.6714844,38.7444536 C14.1402344,38.8308748 14.4873438,38.7700772 14.7129688,38.5634584 C14.93875,38.3566066 15.0514844,38.0974984 15.0514844,37.7872984 C15.0514844,37.7355854 15.0469531,37.2698584 15.0382813,36.3897289 C15.029375,35.5095995 15.0251563,34.7417478 15.0251563,34.0866395 L14.4261719,34.1895995 C14.0442969,34.2591713 13.5625781,34.2885995 12.9808594,34.2802913 C12.3995313,34.272216 11.7960156,34.2116513 11.1710938,34.0990631 C10.5459375,33.9874842 9.96453125,33.7286089 9.42625,33.323136 C8.88828125,32.9176631 8.50640625,32.3868678 8.28070313,31.7316819 L8.02023438,31.1361289 C7.84671875,30.7395854 7.5734375,30.2990936 7.20007813,29.8162842 C6.82679687,29.3330089 6.44929687,29.005416 6.06734375,28.8328842 L5.88507813,28.7032136 C5.76351563,28.6169478 5.65078125,28.5129784 5.5465625,28.3923148 C5.44242188,28.2716513 5.36445313,28.1509101 5.31234375,28.0300136 C5.26015625,27.9089619 5.30335937,27.8097289 5.4425,27.7318489 C5.5815625,27.6539689 5.83296875,27.6161548 6.19773438,27.6161548 L6.71835938,27.6934913 C7.06554688,27.7626748 7.49507813,27.9692936 8.00742188,28.3145901 C8.51945313,28.659576 8.94039063,29.1081431 9.2703125,29.6599807 C9.66976563,30.367656 10.1510938,30.9068372 10.715625,31.2779125 C11.2796875,31.6489101 11.8483594,31.8340984 12.4211719,31.8340984 C12.9939063,31.8340984 13.4886719,31.7909266 13.9054688,31.7051266 C14.321875,31.6187831 14.7125,31.4891125 15.0772656,31.3166584 C15.2335156,30.1601054 15.6589063,29.2716678 16.353125,28.6505689 C15.3636719,28.5472207 14.4740625,28.391616 13.6839063,28.1846089 C12.8942188,27.9774466 12.0782031,27.6410795 11.2363281,27.1748089 C10.3939844,26.7090819 9.69523438,26.1308442 9.13984375,25.4409501 C8.584375,24.7507454 8.12851563,23.8446042 7.77289063,22.7233031 C7.41710938,21.6016136 7.23914063,20.3076254 7.23914063,18.8410278 C7.23914063,16.7528654 7.92507812,14.9759125 9.2965625,13.5091595 C8.6540625,11.9392913 8.71476563,10.1793431 9.47875,8.22962541 C9.9821875,8.074176 10.7288281,8.19080188 11.7182813,8.57888188 C12.7078906,8.96719482 13.4325,9.29975718 13.8927344,9.57555953 C14.3529688,9.85120659 14.7217188,10.0848466 14.9995313,10.2743054 C16.6144531,9.825816 18.2809375,9.60157129 19.9995313,9.60157129 C21.7180469,9.60157129 23.3849219,9.825816 24.9999219,10.2743054 L25.9894531,9.65343953 C26.6660938,9.23911482 27.4652344,8.85949835 28.3847656,8.51435718 C29.3049219,8.16944894 30.0085156,8.07440894 30.4948438,8.22985835 C31.2757813,10.1797313 31.3453906,11.9395242 30.7027344,13.5094701 C32.0741406,14.9762231 32.7603125,16.7536419 32.7603125,18.8413384 C32.7603125,20.307936 32.5817188,21.6059619 32.2264844,22.7362701 C31.8707031,23.8668113 31.4109375,24.7720207 30.846875,25.4539172 C30.2821875,26.135736 29.5789844,26.7094701 28.7371094,27.1750419 C27.8950781,27.6410019 27.07875,27.9772913 26.2890625,28.1845313 C25.4989844,28.3917713 24.6094531,28.5475313 23.62,28.6510348 C24.5224219,29.4271948 24.97375,30.6523878 24.97375,32.3259925 L24.97375,37.7865995 C24.97375,38.0967995 25.0822656,38.3557525 25.2995313,38.5627595 C25.5164844,38.7693007 25.8592188,38.830176 26.3279688,38.7435995 C30.3560938,37.4152913 33.6416406,35.0212772 36.1848438,31.5616348 C38.7278125,28.1022254 39.9996875,24.2073713 39.9996875,19.8760631 C39.9988281,16.2707548 39.1042188,12.9453642 37.316875,9.89989129" id="Fill-1" fill="#313131"></path>
    </g>
</svg>