
<svg width="40px" height="40px" viewBox="1522 250 40 40" version="1.1" xmlns="http://www.w3.org/2000/svg" xmlns:xlink="http://www.w3.org/1999/xlink">
    <!-- Generator: Sketch 3.8.3 (29802) - http://www.bohemiancoding.com/sketch -->
    <desc>Created with Sketch.</desc>
    <defs>
        <polygon id="path-1" points="0 40 40 40 40 0 0 0"></polygon>
    </defs>
    <g id="Page-1" stroke="none" stroke-width="1" fill="none" fill-rule="evenodd" transform="translate(1522.000000, 250.000000)">
        <path d="M20.7435813,18.8024562 L20.7177813,18.8024562 C20.7260813,18.7880562 20.7383812,18.7746562 20.7435813,18.7601562 L20.7435813,18.8024562 L20.7435813,18.8024562 Z M23.6445781,17.1578125 C21.932625,17.1578125 21.1680938,18.09875 20.7403594,18.759375 L20.7403594,17.3866406 L17.5162969,17.3866406 C17.5581719,18.2953125 17.5162969,27.0869531 17.5162969,27.0869531 L20.7403594,27.0869531 L20.7403594,21.6675781 C20.7403594,21.3783594 20.758875,21.0875781 20.8459063,20.8805469 C21.0795,20.3004687 21.6095781,19.7003125 22.5005938,19.7003125 C23.6671563,19.7003125 24.1335625,20.5896875 24.1335625,21.8947656 L24.1335625,27.0845312 L27.357625,27.0845312 L27.3584063,27.0845312 L27.3584063,21.5217969 C27.3567656,18.5442969 25.76575,17.1578125 23.6445781,17.1578125 L23.6445781,17.1578125 Z" id="Fill-1" fill="#2F4479"></path>
        <mask id="mask-2" fill="white">
            <use xlink:href="#path-1"></use>
        </mask>
        <g id="Clip-4"></g>
        <polygon id="Fill-3" fill="#2F4479" mask="url(#mask-2)" points="12.5054687 27.0869531 15.7295312 27.0869531 15.7295312 17.3866406 12.5054687 17.3866406"></polygon>
        <path d="M30.6058203,29.0461641 C30.6058203,29.8968672 29.9001172,30.5848359 29.0276172,30.5848359 L10.8362109,30.5848359 C9.96613281,30.5848359 9.25964844,29.8968672 9.25964844,29.0461641 L9.25964844,10.6428828 C9.25964844,9.79296094 9.96613281,9.10413281 10.8362109,9.10413281 L29.0276172,9.10413281 C29.8993359,9.10413281 30.6058203,9.79374219 30.6058203,10.6428828 L30.6058203,29.0461641 L30.6058203,29.0461641 Z M20.0000391,-7.8125e-06 C8.97207031,-7.8125e-06 3.90625e-05,8.97202344 3.90625e-05,19.9999922 C3.90625e-05,31.0271797 8.97207031,39.9999922 20.0000391,39.9999922 C31.0271484,39.9999922 40.0000391,31.0271797 40.0000391,19.9999922 C40.0000391,8.97202344 31.0287891,-7.8125e-06 20.0000391,-7.8125e-06 L20.0000391,-7.8125e-06 Z" id="Fill-5" fill="#2F4479" mask="url(#mask-2)"></path>
        <path d="M14.1392109,12.7100625 C13.0371016,12.7100625 12.3153047,13.4335 12.3153047,14.3856875 C12.3153047,15.3162344 13.0153828,16.0613906 14.0964766,16.0613906 L14.1174922,16.0613906 C15.2421016,16.0613906 15.9421797,15.3162344 15.9421797,14.3856875 C15.9203828,13.4342812 15.2428828,12.7100625 14.1392109,12.7100625" id="Fill-6" fill="#2F4479" mask="url(#mask-2)"></path>
    </g>
</svg>