
<svg width="40px" height="40px" viewBox="1462 250 40 40" version="1.1" xmlns="http://www.w3.org/2000/svg" xmlns:xlink="http://www.w3.org/1999/xlink">
    <!-- Generator: Sketch 3.8.3 (29802) - http://www.bohemiancoding.com/sketch -->
    <desc>Created with Sketch.</desc>
    <defs>
        <polygon id="path-1" points="0 3.90625e-05 0 39.9999609 39.9999922 39.9999609 39.9999922 3.90625e-05"></polygon>
    </defs>
    <g id="Page-1" stroke="none" stroke-width="1" fill="none" fill-rule="evenodd" transform="translate(1462.000000, 250.000000)">
        <mask id="mask-2" fill="white">
            <use xlink:href="#path-1"></use>
        </mask>
        <g id="Clip-2"></g>
        <path d="M28.9221016,15.4225391 C28.9309297,15.6207422 28.9357734,15.8205078 28.9357734,16.0202734 C28.9357734,22.1034766 24.3067891,29.1154297 15.8374141,29.1154297 C13.2377266,29.1154297 10.8177266,28.3557422 8.78108594,27.0490234 C9.14124219,27.0917578 9.50780469,27.1134766 9.87913281,27.1134766 C12.0365547,27.1134766 14.0207734,26.3771484 15.5965547,25.1430078 C13.5825703,25.1059766 11.8818672,23.7750391 11.2962422,21.9455078 C11.5765547,21.9987109 11.8657734,22.0285547 12.1614766,22.0285547 C12.5811641,22.0285547 12.9888203,21.9737109 13.3746797,21.8682422 C11.2688203,21.4460547 9.68257031,19.5858984 9.68257031,17.3544141 C9.68257031,17.3350391 9.68257031,17.3148828 9.68342969,17.2963672 C10.3037422,17.6403516 11.0134297,17.8482422 11.7674922,17.8716016 C10.5333516,17.0474609 9.72046094,15.6376172 9.72046094,14.0408984 C9.72046094,13.1966797 9.94686719,12.4055859 10.3431953,11.7255859 C12.6125703,14.5113672 16.0057734,16.3433203 19.8308516,16.5366797 C19.7518672,16.1991797 19.7124141,15.8487109 19.7124141,15.4869922 C19.7124141,12.9452734 21.7731172,10.8837891 24.3148359,10.8837891 C25.6392891,10.8837891 26.8339766,11.4428516 27.6749922,12.3370703 C28.7247578,12.1308203 29.7075703,11.7489453 30.5993672,11.2197266 C30.2529609,12.2951953 29.5255391,13.1966797 28.5724922,13.7669922 C29.5045234,13.6558203 30.3939766,13.4093359 31.2164766,13.0427734 C30.6025703,13.9644141 29.8219453,14.7756641 28.9221016,15.4225391 M19.9999922,3.90625e-05 C8.97202344,3.90625e-05 -7.8125e-06,8.97207031 -7.8125e-06,20.0000391 C-7.8125e-06,31.0271484 8.97202344,39.9999609 19.9999922,39.9999609 C31.0271797,39.9999609 39.9999922,31.0271484 39.9999922,20.0000391 C39.9999922,8.97207031 31.0287422,3.90625e-05 19.9999922,3.90625e-05" id="Fill-1" fill="#00D6FF" mask="url(#mask-2)"></path>
    </g>
</svg>