<?xml version="1.0" encoding="UTF-8" standalone="no"?>
<svg
   xmlns:dc="http://purl.org/dc/elements/1.1/"
   xmlns:cc="http://creativecommons.org/ns#"
   xmlns:rdf="http://www.w3.org/1999/02/22-rdf-syntax-ns#"
   xmlns:svg="http://www.w3.org/2000/svg"
   xmlns="http://www.w3.org/2000/svg"
   version="1.1"
   id="svg2"
   viewBox="0 0 186.14996 59.499999"
   height="59.5"
   width="186.14998">
  <defs
     id="defs4" />
  <metadata
     id="metadata7">
    <rdf:RDF>
      <cc:Work
         rdf:about="">
        <dc:format>image/svg+xml</dc:format>
        <dc:type
           rdf:resource="http://purl.org/dc/dcmitype/StillImage" />
        <dc:title></dc:title>
      </cc:Work>
    </rdf:RDF>
  </metadata>
  <g
     transform="translate(-284.06788,-470.72721)"
     id="layer1">
    <g
       id="layer1-0"
       transform="matrix(0.35474345,0,0,0.35474345,244.36746,333.91678)">
      <g
         id="g3568"
         transform="matrix(1.25,0,0,-1.25,-5.2565213,1036.2322)">
        <g
           id="g3003"
           transform="translate(257.8446,496.4646)">
          <path
             style="fill:#ffffff;fill-rule:nonzero"
             id="path3005"
             d="m 0,0 c 0.731,0 1.512,-0.525 1.512,-1.504 l 0,-17.119 15.534,0 c 0.834,0 1.507,-0.682 1.507,-1.506 l 0,-5.775 c 0,-0.725 -0.584,-1.504 -1.507,-1.504 l -15.534,0 0,-29.178 c 0,-4.863 1.831,-7.032 5.937,-7.032 3.668,0 8.233,2.178 9.092,2.606 0.486,0.224 1.146,0.106 1.437,-0.516 l 2.571,-6.276 c 0.219,-0.584 -0.126,-1.117 -0.496,-1.31 l -0.195,-0.099 -0.047,-0.028 c -1.137,-0.679 -9.163,-4.002 -15.741,-4.002 -9.066,0 -12.935,4.563 -12.935,15.256 l 0,30.579 -7.803,0 c -0.795,0 -1.504,0.639 -1.504,1.504 l 0,5.777 c 0,0.805 0.664,1.504 1.504,1.504 l 7.803,0 0,17.119 c 0,0.833 0.676,1.504 1.502,1.504 l 7.78,0" />
        </g>
        <g
           id="g3007"
           transform="translate(213.2303,477.8316)">
          <path
             style="fill:#ffffff;fill-rule:nonzero"
             id="path3009"
             d="m 0,0 c 5.345,0.003 13.487,-2.512 19.312,-8.585 0.523,-0.632 0.409,-1.614 -0.175,-2.093 l -0.481,-0.46 -4.216,-3.775 c -0.578,-0.49 -1.412,-0.507 -1.989,0.007 l -0.192,0.168 c -3.237,3.511 -7.763,5.299 -12.121,5.299 -9.053,0 -17.963,-7.705 -17.963,-17.933 0,-10.305 8.064,-18.377 17.825,-18.377 6.977,0 10.352,3.259 13.064,5.878 0.283,0.274 0.563,0.545 0.868,0.831 0.574,0.593 1.522,0.504 2.006,0.063 l 4.679,-3.737 c 0.741,-0.673 0.555,-1.571 0.277,-1.977 -4.379,-5.608 -12.293,-10.225 -20.962,-10.225 -15.246,0 -27.722,12.39 -27.722,27.407 C -27.79,-12.598 -15.064,0 0,0" />
        </g>
        <g
           id="g3011"
           transform="translate(135.1119,518.6816)">
          <path
             style="fill:#ffffff;fill-rule:nonzero"
             id="path3013"
             d="M 0,0 C 0.391,0.805 1.461,1.776 3.017,1.776 4.877,1.776 5.787,0 5.787,0 m -20.323,-63.475 3.214,0 28.136,0 3.224,0 -1.32,3.02 -14.125,32.312 -1.911,4.373 -1.899,-4.379 -14.012,-32.312 -1.307,-3.014 M 5.787,0 46.645,-92.62 c 0.336,-0.747 0.31,-1.556 -0.07,-2.165 -0.394,-0.634 -1.089,-0.984 -1.954,-0.984 l -8.482,0 c -1.35,0 -2.274,0.619 -2.831,1.905 l -7.866,17.85 -0.555,1.259 -44.407,0 -0.548,-1.283 c -1.186,-2.779 -2.394,-5.533 -3.602,-8.289 l -0.044,-0.099 c -1.353,-3.084 -2.753,-6.274 -4.104,-9.465 -0.08,-0.192 -0.839,-1.878 -2.819,-1.878 l -8.482,0 c -0.865,0 -1.56,0.35 -1.955,0.984 -0.379,0.607 -0.403,1.421 -0.064,2.18 L 0,0 C 0.391,0.805 1.461,1.776 3.017,1.776 4.877,1.776 5.787,0 5.787,0" />
        </g>
        <g
           id="g3015"
           transform="translate(340.7524,478.0549)">
          <path
             style="fill:#ffffff;fill-rule:nonzero"
             id="path3017"
             d="m 0,0 c 19.445,0 22.348,-15.924 22.348,-25.416 l 0,-28.151 c 0,-0.876 -0.721,-1.575 -1.504,-1.575 l -7.633,0 c -0.905,0 -1.503,0.818 -1.503,1.575 l 0,28.716 c 0,9.661 -4.963,15.428 -13.276,15.428 -9.544,0 -16.244,-6.835 -17.18,-9.433 l -0.084,-0.234 0,-34.477 c 0,-0.768 -0.641,-1.575 -1.509,-1.575 l -7.485,0 c -0.908,0 -1.504,0.817 -1.504,1.575 l 0,50.65 c 0,0.901 0.757,1.504 1.504,1.504 l 3.816,0 c 0.546,0 0.9,-0.456 0.97,-0.688 l 0.016,-0.049 1.71,-4.806 0.824,-2.316 1.631,1.848 C -18.794,-7.35 -11.582,0 0,0" />
        </g>
        <g
           id="g3019"
           transform="translate(418.7709,477.6905)">
          <path
             style="fill:#ffffff;fill-rule:nonzero"
             id="path3021"
             d="m 0,0 c 0.686,0 1.301,-0.684 0.971,-1.499 l -25.478,-52.476 c -0.596,-1.122 -2.2,-1.122 -2.706,0.026 L -52.662,-1.537 C -52.989,-0.888 -52.544,0 -51.708,0 l 8.212,0 c 0.636,0 1.127,-0.43 1.35,-0.9 l 16.561,-34.975 16.63,35.041 C -8.686,-0.291 -8.058,0 -7.601,0 l 7.886,0" />
        </g>
        <g
           id="g3023"
           transform="translate(298.1303,477.4452)">
          <path
             style="fill:#ffffff;fill-rule:nonzero"
             id="path3025"
             d="m 0,0 c 0.756,0 1.504,-0.619 1.504,-1.504 l 0,-51.505 c 0,-0.792 -0.709,-1.523 -1.504,-1.523 l -7.501,0 c -0.818,0 -1.503,0.766 -1.503,1.575 l 0,51.453 C -9.004,-0.637 -8.276,0 -7.501,0 L 0.26,0" />
        </g>
        <g
           id="g3027"
           transform="translate(294.2423,496.4801)">
          <path
             style="fill:#ffffff;fill-rule:nonzero"
             id="path3029"
             d="m 0,0 c 3.753,0 6.692,-2.949 6.692,-6.714 0,-3.688 -2.939,-6.577 -6.692,-6.577 -3.598,0 -6.417,2.889 -6.417,6.577 C -6.417,-2.949 -3.598,0 0,0" />
        </g>
        <g
           id="g3031"
           transform="translate(504.6281,477.6533)">
          <path
             style="fill:#ffffff;fill-rule:nonzero"
             id="path3033"
             d="m 0,0 c 4.237,0 7.84,-0.808 8.688,-2.086 0.215,-0.282 0.291,-0.703 0.128,-1.101 l -3.315,-6.862 c -0.328,-0.716 -1.065,-0.752 -1.412,-0.578 -1.098,0.557 -3.393,1.133 -5.335,1.133 -9.289,0 -13.504,-7.282 -13.679,-7.592 l -0.186,-0.329 0,-35.751 c 0,-0.792 -0.643,-1.574 -1.506,-1.574 l -7.186,0 c -0.906,0 -1.504,0.822 -1.504,1.574 l 0,50.258 c 0,0.852 0.721,1.505 1.504,1.505 l 3.733,0 c 0.303,0 0.863,-0.379 0.987,-0.883 l 0.012,-0.047 0.015,-0.047 1.523,-4.77 0.87,-2.725 1.62,2.346 C -14.174,-6.272 -9.365,0 0,0" />
        </g>
        <g
           id="g3035"
           transform="translate(431.3494,455.2866)">
          <path
             style="fill:#ffffff;fill-rule:nonzero"
             id="path3037"
             d="m 0,0 1.464,0 27.756,0 1.531,0 c 0,0 0.007,4.064 -2.636,8.035 -2.868,4.311 -8.013,6.81 -12.062,6.81 C 8.106,14.845 4.535,10.843 2.331,7.815 -0.158,4.394 -0.158,0 -0.158,0 M 16.2,22.778 c 14.179,0 24.871,-10.314 24.871,-23.991 0,-0.862 -0.098,-2.327 -0.245,-3.325 -0.101,-0.818 -0.812,-1.318 -1.496,-1.318 l -40.119,0 0.05,-1.538 c 0.447,-7.694 6.761,-15.934 17.941,-15.934 5.902,0 11.007,2.635 13.464,4.169 0.325,0.197 0.628,0.386 0.921,0.528 0.347,0.167 0.945,0.126 1.291,-0.34 l 3.756,-4.887 0.036,-0.047 0.115,-0.147 c 0.365,-0.477 0.211,-1.167 -0.149,-1.436 -1.851,-1.53 -8.845,-6.577 -20.293,-6.577 -15.82,0 -27.303,11.533 -27.303,27.422 0,15.632 11.677,27.421 27.16,27.421" />
        </g>
      </g>
    </g>
  </g>
</svg>
