
<svg width="213px" height="68px" viewBox="194 174 213 68" version="1.1" xmlns="http://www.w3.org/2000/svg" xmlns:xlink="http://www.w3.org/1999/xlink">
    <!-- Generator: Sketch 3.8.3 (29802) - http://www.bohemiancoding.com/sketch -->
    <desc>Created with Sketch.</desc>
    <defs>
        <rect id="path-1" x="0" y="0" width="213" height="68"></rect>
        <mask id="mask-2" maskContentUnits="userSpaceOnUse" maskUnits="objectBoundingBox" x="0" y="0" width="213" height="68" fill="white">
            <use xlink:href="#path-1"></use>
        </mask>
    </defs>
    <g id="Group" stroke="none" stroke-width="1" fill="none" fill-rule="evenodd" transform="translate(194.000000, 174.000000)">
        <use id="Rectangle-1" stroke="#979797" mask="url(#mask-2)" stroke-width="2" fill="#15133F" xlink:href="#path-1"></use>
        <g id="actinver038267" transform="translate(27.000000, 14.000000)" fill="#FFFFFF">
            <g id="svg2">
                <g id="layer1" transform="translate(0.769369, 0.225348)">
                    <g id="layer1-0" transform="translate(0.321277, 0.114219)">
                        <g id="g3568" transform="translate(77.790895, 19.052639) scale(1, -1) translate(-77.790895, -19.052639) translate(0.290895, 0.552639)">
                            <g id="g3003" transform="translate(53.379874, 0.170188)">
                                <path d="M6.95409779,27.1070267 C7.22164755,27.1070267 7.50749757,26.9147133 7.50749757,26.5560947 L7.50749757,20.2852137 L13.1930215,20.2852137 C13.4982698,20.2852137 13.7445913,20.0353895 13.7445913,19.7335491 L13.7445913,17.6181021 C13.7445913,17.3525265 13.5308443,17.0671701 13.1930215,17.0671701 L7.50749757,17.0671701 L7.50749757,6.37894274 C7.50749757,4.59757151 8.177653,3.80304258 9.68047013,3.80304258 C11.022977,3.80304258 12.6937905,4.60086831 13.0081889,4.75764949 C13.1860674,4.83970319 13.4276308,4.79647848 13.5341383,4.56863293 L14.4751376,2.26966402 C14.5552927,2.05573829 14.4290209,1.86049444 14.293599,1.78979638 L14.222228,1.75353158 L14.2050258,1.74327486 C13.7888779,1.49454958 10.8513206,0.277297557 8.44373874,0.277297557 C5.12553608,0.277297557 3.70946216,1.94877543 3.70946216,5.86574078 L3.70946216,17.0671701 L0.853524002,17.0671701 C0.562549911,17.0671701 0.303052262,17.3012429 0.303052262,17.6181021 L0.303052262,19.7342817 C0.303052262,20.0291622 0.546079679,20.2852137 0.853524002,20.2852137 L3.70946216,20.2852137 L3.70946216,26.5560947 C3.70946216,26.8612319 3.95688164,27.1070267 4.25920189,27.1070267 L7.10672194,27.1070267" id="path3005"></path>
                            </g>
                            <g id="g3007" transform="translate(33.756764, 0.304624)">
                                <path d="M10.2481441,20.1471144 C12.2044416,20.1482133 15.1844555,19.2269408 17.3164355,17.002333 C17.5078562,16.7708244 17.4661316,16.4111068 17.2523846,16.2356437 L17.0763361,16.0671406 L15.5332584,14.6843159 C15.3217075,14.5048234 15.0164592,14.4985962 14.8052742,14.6868801 L14.7350012,14.7484204 C13.5502425,16.0345389 11.8937033,16.6895033 10.2986528,16.6895033 C6.98520823,16.6895033 3.72410237,13.8670757 3.72410237,10.120445 C3.72410237,6.34560842 6.67556787,3.38874464 10.2481441,3.38874464 C12.801762,3.38874464 14.0370294,4.58255275 15.0296353,5.54192171 C15.1332148,5.64229097 15.2356962,5.7415613 15.3473278,5.84632629 C15.5574148,6.06354882 15.9043877,6.03094712 16.0815341,5.8694039 L17.7940722,4.50049905 C18.065282,4.25397163 17.9972051,3.9250242 17.8954556,3.77630186 C16.2927191,1.72202882 13.3961544,0.0307701384 10.2232558,0.0307701384 C4.64314129,0.0307701384 0.0768610808,4.56936555 0.0768610808,10.0702604 C0.0768610808,15.5323263 4.73464258,20.1471144 10.2481441,20.1471144" id="path3009"></path>
                            </g>
                            <g id="g3011" transform="translate(0.040956, 0.249678)">
                                <path d="M15.3722162,35.1658724 C15.5153242,35.4607529 15.9069497,35.8164411 16.4764537,35.8164411 C17.1572233,35.8164411 17.490288,35.1658724 17.490288,35.1658724 M10.0519654,11.9142708 L11.2283059,11.9142708 L21.5262267,11.9142708 L22.7062273,11.9142708 L22.2231005,13.0205306 L17.0532778,24.8567771 L16.353842,26.4586559 L15.6587982,24.8545793 L10.5303341,13.0183327 L10.0519654,11.9142708 M17.490288,35.1658724 L32.4445262,1.23813176 C32.567504,0.964497314 32.5579878,0.668151576 32.4189059,0.445068073 C32.2746999,0.21282679 32.0203263,0.0846178805 31.7037318,0.0846178805 L28.5992762,0.0846178805 C28.1051692,0.0846178805 27.7669805,0.311364496 27.5631156,0.782440662 L24.6841191,7.32109507 L24.4809863,7.78228083 L8.2277957,7.78228083 L8.02722488,7.3123036 C7.59314278,6.29432485 7.15100856,5.28550389 6.70887434,4.2759503 L6.69277011,4.2396855 C6.19756515,3.10998184 5.68515795,1.94144921 5.19068499,0.77255026 C5.16140458,0.702218515 4.88360667,0.0846178805 4.15891648,0.0846178805 L1.05446083,0.0846178805 C0.737866376,0.0846178805 0.483492799,0.21282679 0.338920766,0.445068073 C0.200204815,0.667418954 0.191420692,0.965596247 0.315496437,1.24362643 L15.3722162,35.1658724 C15.5153242,35.4607529 15.9069497,35.8164411 16.4764537,35.8164411 C17.1572233,35.8164411 17.490288,35.1658724 17.490288,35.1658724" id="path3013"></path>
                            </g>
                            <g id="g3015" transform="translate(79.698499, 0.020110)">
                                <path d="M10.9801544,20.5134256 C18.0971245,20.5134256 19.1596374,14.6802865 19.1596374,11.2032609 L19.1596374,0.89123508 C19.1596374,0.570346494 18.8957477,0.314294985 18.6091657,0.314294985 L15.8154484,0.314294985 C15.4842137,0.314294985 15.2653427,0.613937523 15.2653427,0.89123508 L15.2653427,11.4102267 C15.2653427,14.9491589 13.4488591,17.0616754 10.4062583,17.0616754 C6.91310521,17.0616754 4.46087073,14.5579386 4.11828991,13.6062621 L4.08754548,13.5205453 L4.08754548,0.89123508 C4.08754548,0.6099081 3.85293618,0.314294985 3.53524371,0.314294985 L0.795695189,0.314294985 C0.463362516,0.314294985 0.245223448,0.613571212 0.245223448,0.89123508 L0.245223448,19.4448959 C0.245223448,19.7749423 0.522289345,19.9958279 0.795695189,19.9958279 L2.19237083,19.9958279 C2.39220964,19.9958279 2.52177546,19.82879 2.54739582,19.7438058 L2.5532519,19.7258566 L3.17912071,17.9653651 L3.48070895,17.1169884 L4.07766334,17.7939315 C4.10145368,17.8210385 6.74108279,20.5134256 10.9801544,20.5134256" id="path3017"></path>
                            </g>
                            <g id="g3019" transform="translate(99.835553, 0.252938)">
                                <path d="M19.3982728,20.1471144 C19.6493523,20.1471144 19.8744455,19.8965576 19.7536638,19.598014 L10.4285846,0.37546895 C10.2104456,-0.0355321836 9.62337333,-0.0355321836 9.43817472,0.384993041 L0.12370974,19.5840941 C0.00402605662,19.8218301 0.166898347,20.1471144 0.47287865,20.1471144 L3.47851292,20.1471144 C3.71129219,20.1471144 3.89100072,19.9896006 3.97261986,19.8174344 L10.0340311,7.00570115 L16.1206967,19.8416109 C16.2191521,20.0405179 16.4490033,20.1471144 16.6162677,20.1471144 L19.5025842,20.1471144" id="path3021"></path>
                            </g>
                            <g id="g3023" transform="translate(71.418694, 0.163082)">
                                <path d="M3.66005147,20.1471144 C3.93675136,20.1471144 4.21052321,19.9203678 4.21052321,19.5961824 L4.21052321,0.729325542 C4.21052321,0.439207094 3.95102556,0.171433628 3.66005147,0.171433628 L0.914646862,0.171433628 C0.615254652,0.171433628 0.364541126,0.452027985 0.364541126,0.748373723 L0.364541126,19.5961824 C0.364541126,19.9137742 0.630992873,20.1471144 0.914646862,20.1471144 L3.75521281,20.1471144" id="path3025"></path>
                            </g>
                            <g id="g3027" transform="translate(71.093682, 22.154536)">
                                <path d="M2.56203603,5.1283564 C3.93565334,5.1283564 5.01134247,4.04810475 5.01134247,2.66894319 C5.01134247,1.31798759 3.93565334,0.25971462 2.56203603,0.25971462 C1.24514951,0.25971462 0.213381001,1.31798759 0.213381001,2.66894319 C0.213381001,4.04810475 1.24514951,5.1283564 2.56203603,5.1283564" id="path3029"></path>
                            </g>
                            <g id="g3031" transform="translate(141.141869, 0.239311)">
                                <path d="M9.51613382,20.1471144 C11.0668976,20.1471144 12.3856142,19.851135 12.6959865,19.3829893 C12.7746776,19.2796896 12.802494,19.1254726 12.7428352,18.9796807 L11.5295281,16.4660535 C11.4094784,16.2037747 11.1397326,16.1905875 11.0127289,16.2543256 C10.6108552,16.4583609 9.7708734,16.6693562 9.0600914,16.6693562 C5.6602696,16.6693562 4.1175579,14.0018782 4.053507,13.8883217 L3.98543004,13.7678054 L3.98543004,0.671814688 C3.98543004,0.38169624 3.75008873,0.0952409045 3.43422629,0.0952409045 L0.804113308,0.0952409045 C0.472512645,0.0952409045 0.253641567,0.396348687 0.253641567,0.671814688 L0.253641567,19.0818815 C0.253641567,19.3939786 0.517531278,19.6331798 0.804113308,19.6331798 L2.17041052,19.6331798 C2.28131008,19.6331798 2.48627296,19.4943479 2.5316576,19.3097271 L2.53604966,19.2925105 L2.54153974,19.2752938 L3.09896558,17.5279895 L3.41739006,16.5297916 L4.01031839,17.3891576 C4.32837687,17.8496108 6.08849562,20.1471144 9.51613382,20.1471144" id="path3033"></path>
                            </g>
                            <g id="g3035" transform="translate(119.811565, 0.104985)">
                                <path d="M4.02605662,12.0882686 L4.56188815,12.0882686 L14.720727,12.0882686 L15.2810809,12.0882686 C15.2810809,12.0882686 15.2836429,13.5769572 14.3162913,15.0315789 C13.2665886,16.6107464 11.3834921,17.526158 9.90153724,17.526158 C6.99289434,17.526158 5.68588996,16.0601807 4.87921461,14.9509905 C3.9682278,13.6978399 3.9682278,12.0882686 3.9682278,12.0882686 M9.95533999,20.4321045 C15.144927,20.4321045 19.058254,16.6539711 19.058254,11.6439332 C19.058254,11.328173 19.0223855,10.7915271 18.9685827,10.4259486 C18.9316162,10.126306 18.6713866,9.94315043 18.421039,9.94315043 L3.73727855,9.94315043 L3.75557881,9.37976385 C3.91918311,6.5613657 6.23013961,3.54296165 10.3220772,3.54296165 C12.4822395,3.54296165 14.3506958,4.50819158 15.2499704,5.07011292 C15.3689221,5.14227622 15.4798217,5.21150903 15.5870612,5.26352522 C15.714065,5.32469918 15.9329361,5.30968043 16.0595738,5.13897942 L17.4342892,3.34881673 L17.4474653,3.3316001 L17.4895559,3.27775236 C17.6231478,3.10302193 17.566783,2.85026722 17.4350212,2.75172952 C16.7575456,2.19127343 14.1977057,0.342500945 10.0076787,0.342500945 C4.21747731,0.342500945 0.0146402059,4.56716768 0.0146402059,10.3874859 C0.0146402059,16.1136621 4.28848231,20.4321045 9.95533999,20.4321045" id="path3037"></path>
                            </g>
                        </g>
                    </g>
                </g>
            </g>
        </g>
    </g>
</svg>