<?xml version="1.0" encoding="UTF-8" standalone="no"?>
<svg width="641px" height="1136px" viewBox="0 0 641 1136" version="1.1" xmlns="http://www.w3.org/2000/svg" xmlns:xlink="http://www.w3.org/1999/xlink">
    <!-- Generator: Sketch 3.8.2 (29753) - http://www.bohemiancoding.com/sketch -->
    <title>Artboard 4</title>
    <desc>Created with Sketch.</desc>
    <defs>
        <polygon id="path-1" points="0.9991 435 1.9991 435 1.9991 0.2812 0.9991 0.2812 0.9991 435"></polygon>
        <polygon id="path-3" points="0.0977 435 1.0977 435 1.0977 0.2812 0.0977 0.2812 0.0977 435"></polygon>
    </defs>
    <g id="Page-1" stroke="none" stroke-width="1" fill="none" fill-rule="evenodd">
        <g id="Artboard-4">
            <g id="Page-1">
                <polygon id="Fill-1" fill="#FFFFFF" points="2.239 1136.004 642.239 1136.004 642.239 0.004 2.239 0.004"></polygon>
                <polygon id="Fill-2" fill="#071E41" points="2.239 380.95 642.239 380.95 642.239 0.004 2.239 0.004"></polygon>
                <polygon id="Fill-3" fill="#9FCB3A" points="2.234 704.651 642.239 704.651 642.239 586.106 2.234 586.106"></polygon>
                <text id="Generar-token" font-family="MyriadPro-BoldCond, Myriad Pro" font-size="34" font-style="condensed" font-weight="bold" letter-spacing="-0.01" fill="#FFFFFF">
                    <tspan x="241.1196" y="647.364031">Generar </tspan>
                    <tspan x="340.8976" y="647.364031" letter-spacing="-0.214">t</tspan>
                    <tspan x="351.0536" y="647.364031">o</tspan>
                    <tspan x="365.6976" y="647.364031" letter-spacing="-0.384">k</tspan>
                    <tspan x="378.9816" y="647.364031">en</tspan>
                </text>
                <text id="2732-3293-0929-7653" font-family="MyriadPro-Cond, Myriad Pro" font-size="56" font-style="condensed" font-weight="normal" fill="#071E41">
                    <tspan x="131.208" y="478.834687">2732 3293 0929 7653</tspan>
                </text>
                <text id="Cuenta-1234" font-family="MyriadPro-BoldCond, Myriad Pro" font-size="34" font-style="condensed" font-weight="bold" letter-spacing="-0.01" fill="#FFFFFF">
                    <tspan x="45.0679" y="296.140431">Cuenta 1234</tspan>
                </text>
                <text id="Introduce-el-challenge-de-8-digitos-de-tu-banca-en-línea" font-family="MyriadPro-Cond, Myriad Pro" font-size="34" font-style="condensed" font-weight="normal" letter-spacing="-0.01" fill="#FFFFFF">
                    <tspan x="45.0679" y="337.144431">I</tspan>
                    <tspan x="51.8239" y="337.144431" letter-spacing="-0.214">n</tspan>
                    <tspan x="65.1759" y="337.144431">t</tspan>
                    <tspan x="73.8359" y="337.144431" letter-spacing="-0.4894">r</tspan>
                    <tspan x="81.3025" y="337.144431">odu</tspan>
                    <tspan x="121.3925" y="337.144431" letter-spacing="-0.214">c</tspan>
                    <tspan x="131.2425" y="337.144431">e el challenge de 8 digi</tspan>
                    <tspan x="368.9345" y="337.144431" letter-spacing="-0.282">t</tspan>
                    <tspan x="377.0505" y="337.144431">os de tu ban</tspan>
                    <tspan x="503.6145" y="337.144431" letter-spacing="0.092">c</tspan>
                    <tspan x="514.0765" y="337.144431">a en línea</tspan>
                </text>
                <polygon id="Fill-4" fill="#FFFFFF" points="2.234 1139.37 642.247 1139.37 642.247 704.651 2.234 704.651"></polygon>
                <polygon id="Fill-5" fill="#C0C6CA" points="431.249 1139.37 642.247 1139.37 642.247 1043.502 431.249 1043.502"></polygon>
                <polygon id="Fill-6" fill="#C0C6CA" points="2.234 1139.37 213.232 1139.37 213.232 1043.502 2.234 1043.502"></polygon>
                <path d="M558.5275,1072.413 L526.7295,1072.413 L510.4995,1088.312 L526.7295,1104.211 L558.5275,1104.211 L558.5275,1072.413 Z M556.5275,1074.413 L556.5275,1102.211 L527.5465,1102.211 L513.3575,1088.312 L527.5465,1074.413 L556.5275,1074.413 Z" id="Fill-7" fill="#000000"></path>
                <path d="M532.8565,1081.3563 L546.9345,1095.4333" id="Stroke-8" stroke="#000000" stroke-width="2"></path>
                <path d="M546.9346,1081.3563 L532.8566,1095.4333" id="Stroke-9" stroke="#000000" stroke-width="2"></path>
                <path d="M210.9987,1139.37 L210.9987,704.651 L210.9987,1139.37 Z" id="Fill-10" fill="#231F1F"></path>
                <g id="Group-13" transform="translate(210.000000, 704.370000)">
                    <mask id="mask-2" fill="white">
                        <use xlink:href="#path-1"></use>
                    </mask>
                    <g id="Clip-12"></g>
                    <path d="M0.9991,0.2812 L0.9991,435.0002" id="Stroke-11" stroke="#231F1F" mask="url(#mask-2)"></path>
                </g>
                <path d="M430.0974,1139.37 L430.0974,704.651 L430.0974,1139.37 Z" id="Fill-14" fill="#231F1F"></path>
                <g id="Group-17" transform="translate(430.000000, 704.370000)">
                    <mask id="mask-4" fill="white">
                        <use xlink:href="#path-3"></use>
                    </mask>
                    <g id="Clip-16"></g>
                    <path d="M0.0977,0.2812 L0.0977,435.0002" id="Stroke-15" stroke="#231F1F" mask="url(#mask-4)"></path>
                </g>
                <path d="M0,817.5237 L638.198,817.5237 L0,817.5237 Z" id="Fill-18" fill="#231F1F"></path>
                <path d="M638.1983,817.5233 L0.0003,817.5233" id="Stroke-19" stroke="#231F1F"></path>
                <path d="M0,925.4859 L638.198,925.4859 L0,925.4859 Z" id="Fill-21" fill="#231F1F"></path>
                <path d="M638.1983,925.4862 L0.0003,925.4862" id="Stroke-22" stroke="#231F1F"></path>
                <path d="M0,1043.502 L638.198,1043.502 L0,1043.502 Z" id="Fill-24" fill="#231F1F"></path>
                <g id="Group-83" transform="translate(0.000000, 727.370000)">
                    <path d="M638.1983,316.1318 L0.0003,316.1318" id="Stroke-25" stroke="#231F1F"></path>
                    <path d="M103.3213,8.9521 C104.5963,8.8191 105.6993,8.5061 106.6323,8.0111 C107.5643,7.5171 108.3443,6.7641 108.9723,5.7561 C109.6013,4.7471 110.0483,3.3301 110.3143,1.5031 L113.2253,1.5031 L113.2253,41.4651 L109.6303,41.4651 L109.6303,11.7781 L99.0693,11.7781 L99.0693,9.2101 C100.6283,9.1721 102.0463,9.0861 103.3213,8.9521" id="Fill-27" fill="#231F1F"></path>
                    <path d="M307.0577,41.4346 C307.0937,39.4556 307.4367,37.7056 308.0847,36.1826 C308.7317,34.6596 309.5877,33.2906 310.6537,32.0726 C311.7187,30.8546 312.9167,29.7416 314.2497,28.7326 C315.5817,27.7246 316.9527,26.7546 318.3607,25.8216 C319.7687,24.8886 321.1667,23.9376 322.5567,22.9666 C323.9457,21.9946 325.1927,20.9586 326.2957,19.8546 C327.3997,18.7506 328.2277,17.6196 328.7797,16.4576 C329.3307,15.2976 329.6077,13.9176 329.6077,12.3196 C329.6077,11.0266 329.3677,9.8736 328.8937,8.8666 C328.4167,7.8576 327.7707,7.0006 326.9527,6.2956 C326.1337,5.5926 325.1827,5.0596 324.0987,4.6986 C323.0137,4.3366 321.8617,4.1556 320.6437,4.1556 C319.0077,4.1556 317.6087,4.4596 316.4487,5.0686 C315.2867,5.6786 314.3447,6.4956 313.6217,7.5246 C312.8997,8.5516 312.3747,9.7316 312.0517,11.0636 C311.7287,12.3966 311.5857,13.8036 311.6237,15.2876 L308.0277,15.2876 C307.9887,13.2326 308.2277,11.3396 308.7417,9.6076 C309.2547,7.8756 310.0437,6.3816 311.1107,5.1256 C312.1747,3.8696 313.5167,2.8916 315.1347,2.1856 C316.7527,1.4826 318.6457,1.1296 320.8157,1.1296 C322.5657,1.1296 324.1927,1.3686 325.6967,1.8426 C327.1997,2.3196 328.5127,3.0246 329.6357,3.9556 C330.7567,4.8896 331.6337,6.0596 332.2617,7.4666 C332.8897,8.8756 333.2037,10.5116 333.2037,12.3766 C333.2037,14.0516 332.9267,15.5736 332.3757,16.9436 C331.8237,18.3136 331.0807,19.5696 330.1497,20.7116 C329.2157,21.8526 328.1517,22.9096 326.9527,23.8796 C325.7537,24.8506 324.4877,25.7546 323.1567,26.5916 C322.2037,27.2396 321.0807,27.9526 319.7877,28.7326 C318.4927,29.5136 317.2467,30.3786 316.0487,31.3306 C314.8497,32.2826 313.7937,33.3196 312.8797,34.4416 C311.9657,35.5646 311.3957,36.7906 311.1677,38.1236 L333.3737,38.1236 L333.3737,41.4346 L307.0577,41.4346 Z" id="Fill-29" fill="#231F1F"></path>
                    <path d="M530.3584,32.6426 C530.7954,33.9376 531.4424,35.0406 532.2984,35.9536 C533.1554,36.8676 534.2204,37.5806 535.4954,38.0946 C536.7704,38.6086 538.2084,38.8656 539.8054,38.8656 C541.1374,38.8656 542.4134,38.6756 543.6314,38.2946 C544.8484,37.9146 545.9334,37.3436 546.8854,36.5816 C547.8364,35.8216 548.5974,34.8896 549.1694,33.7846 C549.7394,32.6816 550.0244,31.4246 550.0244,30.0166 C550.0244,28.5716 549.7774,27.3256 549.2834,26.2776 C548.7884,25.2316 548.1024,24.3556 547.2274,23.6516 C546.3514,22.9476 545.3334,22.4236 544.1734,22.0806 C543.0124,21.7386 541.7654,21.5676 540.4344,21.5676 L537.4084,21.5676 L537.4084,18.5416 L540.4344,18.5416 C541.3464,18.5416 542.2894,18.3996 543.2594,18.1146 C544.2304,17.8286 545.1054,17.3906 545.8854,16.8006 C546.6664,16.2106 547.3034,15.4586 547.7984,14.5456 C548.2924,13.6326 548.5414,12.5476 548.5414,11.2916 C548.5414,9.9596 548.3124,8.8276 547.8554,7.8946 C547.3984,6.9626 546.7704,6.1816 545.9714,5.5536 C545.1734,4.9256 544.2494,4.4686 543.2024,4.1836 C542.1554,3.8986 541.0244,3.7556 539.8054,3.7556 C538.3214,3.7556 537.0084,4.0036 535.8674,4.4976 C534.7254,4.9936 533.7634,5.6876 532.9844,6.5816 C532.2034,7.4766 531.6224,8.5426 531.2424,9.7796 C530.8624,11.0166 530.6904,12.3756 530.7294,13.8606 L527.1324,13.8606 C527.1324,11.9576 527.4264,10.2066 528.0174,8.6086 C528.6064,7.0096 529.4444,5.6306 530.5294,4.4686 C531.6144,3.3096 532.9354,2.3956 534.4974,1.7296 C536.0564,1.0636 537.8074,0.7306 539.7494,0.7306 C541.3094,0.7306 542.8324,0.9296 544.3154,1.3306 C545.7994,1.7296 547.1224,2.3376 548.2844,3.1566 C549.4444,3.9756 550.3774,5.0216 551.0814,6.2956 C551.7854,7.5716 552.1364,9.1036 552.1364,10.8926 C552.1364,13.0616 551.5564,14.9456 550.3964,16.5436 C549.2344,18.1416 547.5704,19.2086 545.4004,19.7406 L545.4004,19.8546 C548.0264,20.2746 550.0534,21.3686 551.4814,23.1376 C552.9074,24.9076 553.6224,27.1046 553.6224,29.7316 C553.6224,31.7096 553.2504,33.4516 552.5084,34.9556 C551.7664,36.4576 550.7664,37.7236 549.5104,38.7516 C548.2544,39.7796 546.7894,40.5496 545.1154,41.0636 C543.4404,41.5766 541.6894,41.8346 539.8634,41.8346 C537.8074,41.8346 535.9144,41.5296 534.1824,40.9206 C532.4504,40.3116 530.9654,39.4366 529.7294,38.2946 C528.4924,37.1536 527.5604,35.7446 526.9324,34.0706 C526.3044,32.3956 526.0664,30.4726 526.2184,28.3036 L529.8154,28.3036 C529.7394,29.9026 529.9204,31.3496 530.3584,32.6426" id="Fill-31" fill="#231F1F"></path>
                    <path d="M114.9903,113.957 L114.8763,113.957 L99.8043,135.709 L114.9903,135.709 L114.9903,113.957 Z M115.0483,108.705 L118.3013,108.705 L118.3013,135.709 L124.2963,135.709 L124.2963,138.734 L118.3013,138.734 L118.3013,148.668 L114.9903,148.668 L114.9903,138.734 L96.5503,138.734 L96.5503,135.252 L115.0483,108.705 Z" id="Fill-33" fill="#231F1F"></path>
                    <path d="M310.4864,141.0176 C311.0014,142.1596 311.6944,143.1396 312.5694,143.9576 C313.4454,144.7766 314.4724,145.4056 315.6534,145.8416 C316.8334,146.2796 318.1084,146.4976 319.4784,146.4976 C321.0384,146.4976 322.4264,146.2036 323.6454,145.6146 C324.8634,145.0236 325.9094,144.2236 326.7854,143.2156 C327.6614,142.2076 328.3274,141.0456 328.7834,139.7336 C329.2404,138.4196 329.4684,137.0406 329.4684,135.5946 C329.4684,134.1096 329.2124,132.7396 328.6984,131.4836 C328.1834,130.2276 327.4794,129.1336 326.5854,128.2016 C325.6904,127.2696 324.6164,126.5356 323.3604,126.0036 C322.1044,125.4706 320.7334,125.2036 319.2504,125.2036 C317.4234,125.2036 315.7284,125.6136 314.1694,126.4316 C312.6074,127.2506 311.3334,128.4206 310.3434,129.9426 L307.2604,129.9426 L311.1434,109.2196 L331.1244,109.2196 L331.1244,112.5306 L313.6554,112.5306 L311.0864,125.7746 L311.2004,125.8896 C312.1894,124.7096 313.4454,123.7956 314.9674,123.1486 C316.4904,122.5026 318.0504,122.1786 319.6494,122.1786 C321.7044,122.1786 323.5594,122.5206 325.2164,123.2056 C326.8714,123.8916 328.2784,124.8426 329.4404,126.0596 C330.6004,127.2786 331.4964,128.7346 332.1244,130.4276 C332.7514,132.1206 333.0654,133.9766 333.0654,135.9946 C333.0654,137.9346 332.7034,139.7336 331.9814,141.3886 C331.2574,143.0436 330.2684,144.4716 329.0124,145.6696 C327.7564,146.8696 326.2804,147.8016 324.5874,148.4676 C322.8934,149.1336 321.0944,149.4666 319.1924,149.4666 C317.3284,149.4666 315.6054,149.1906 314.0264,148.6396 C312.4464,148.0876 311.0764,147.2886 309.9164,146.2416 C308.7544,145.1946 307.8324,143.9106 307.1474,142.3876 C306.4624,140.8666 306.0984,139.1536 306.0624,137.2496 L309.6594,137.2496 C309.6964,138.6196 309.9734,139.8756 310.4864,141.0176" id="Fill-35" fill="#231F1F"></path>
                    <path d="M536.2168,126.4892 C534.9798,127.0412 533.9328,127.7922 533.0758,128.7432 C532.2208,129.6952 531.5728,130.8082 531.1358,132.0832 C530.6978,133.3582 530.4788,134.7372 530.4788,136.2222 C530.4788,137.6312 530.6688,138.9632 531.0498,140.2182 C531.4298,141.4732 532.0298,142.5682 532.8488,143.5012 C533.6658,144.4332 534.7038,145.1662 535.9598,145.6992 C537.2148,146.2322 538.7178,146.4982 540.4698,146.4982 C541.9158,146.4982 543.2188,146.2222 544.3798,145.6702 C545.5398,145.1192 546.5498,144.3782 547.4048,143.4442 C548.2628,142.5112 548.9178,141.4182 549.3748,140.1612 C549.8318,138.9052 550.0608,137.5932 550.0608,136.2222 C550.0608,134.7762 549.8408,133.4062 549.4038,132.1112 C548.9658,130.8172 548.3378,129.6952 547.5198,128.7432 C546.7008,127.7922 545.6928,127.0412 544.4938,126.4892 C543.2958,125.9362 541.9348,125.6612 540.4128,125.6612 C538.8518,125.6612 537.4528,125.9362 536.2168,126.4892 M546.4348,113.4432 C544.9698,112.0732 543.0748,111.3892 540.7548,111.3892 C538.4328,111.3892 536.5498,111.9792 535.1028,113.1582 C533.6568,114.3392 532.5338,115.8222 531.7358,117.6112 C530.9358,119.4002 530.4018,121.3322 530.1358,123.4062 C529.8688,125.4802 529.7368,127.4302 529.7368,129.2582 L529.8508,129.2582 C530.8018,127.2782 532.2398,125.6802 534.1608,124.4622 C536.0828,123.2442 538.1858,122.6362 540.4698,122.6362 C542.4868,122.6362 544.3028,122.9682 545.9218,123.6342 C547.5378,124.3012 548.9178,125.2232 550.0608,126.4022 C551.2018,127.5832 552.0868,128.9912 552.7158,130.6282 C553.3428,132.2642 553.6568,134.0542 553.6568,135.9942 C553.6568,137.9342 553.3238,139.7332 552.6578,141.3892 C551.9908,143.0442 551.0588,144.4722 549.8608,145.6702 C548.6618,146.8692 547.2348,147.8012 545.5788,148.4682 C543.9238,149.1342 542.1048,149.4672 540.1268,149.4672 C537.6908,149.4672 535.5978,149.0962 533.8468,148.3532 C532.0968,147.6122 530.6508,146.4032 529.5078,144.7282 C528.3668,143.0542 527.5188,140.8752 526.9678,138.1922 C526.4148,135.5092 526.1398,132.2082 526.1398,128.2872 C526.1398,127.4872 526.1878,126.4412 526.2818,125.1462 C526.3778,123.8532 526.5968,122.4732 526.9398,121.0082 C527.2818,119.5442 527.7678,118.0592 528.3958,116.5542 C529.0228,115.0512 529.8598,113.6912 530.9068,112.4732 C531.9538,111.2562 533.2568,110.2662 534.8178,109.5052 C536.3778,108.7442 538.2428,108.3622 540.4128,108.3622 C543.9898,108.3622 546.8248,109.2192 548.9178,110.9312 C551.0118,112.6442 552.2668,115.2702 552.6868,118.8102 L549.0898,118.8102 C548.7838,116.6032 547.9008,114.8132 546.4348,113.4432" id="Fill-37" fill="#231F1F"></path>
                    <path d="M126.0704,216.9502 L126.0704,220.2612 C124.8144,221.5552 123.3104,223.2972 121.5594,225.4852 C119.8094,227.6732 118.1064,230.2802 116.4514,233.3052 C114.7954,236.3312 113.3484,239.7762 112.1124,243.6392 C110.8754,247.5032 110.1424,251.7552 109.9144,256.3982 L106.0314,256.3982 C106.2604,253.0122 106.7264,249.8132 107.4304,246.8072 C108.1344,243.8022 109.1434,240.8612 110.4564,237.9862 C111.7694,235.1142 113.4054,232.2312 115.3664,229.3392 C117.3264,226.4462 119.6944,223.4212 122.4734,220.2612 L100.3794,220.2612 L100.3794,216.9502 L126.0704,216.9502 Z" id="Fill-39" fill="#231F1F"></path>
                    <path d="M323.4121,233.1641 C324.4401,232.8791 325.3431,232.4311 326.1241,231.8211 C326.9031,231.2131 327.5321,230.4331 328.0081,229.4811 C328.4831,228.5301 328.7221,227.4071 328.7221,226.1121 C328.7221,224.9721 328.5021,223.9641 328.0651,223.0871 C327.6271,222.2131 327.0281,221.4891 326.2661,220.9181 C325.5051,220.3471 324.6111,219.9101 323.5841,219.6051 C322.5571,219.3011 321.4331,219.1481 320.2161,219.1481 C319.1111,219.1481 318.0461,219.3011 317.0181,219.6051 C315.9901,219.9101 315.0771,220.3471 314.2781,220.9181 C313.4791,221.4891 312.8421,222.2131 312.3661,223.0871 C311.8901,223.9641 311.6511,224.9721 311.6511,226.1121 C311.6511,227.4461 311.8991,228.5871 312.3941,229.5381 C312.8881,230.4901 313.5361,231.2701 314.3351,231.8791 C315.1351,232.4881 316.0481,232.9261 317.0751,233.1921 C318.1031,233.4591 319.1491,233.5731 320.2161,233.5341 C321.3191,233.5731 322.3851,233.4491 323.4121,233.1641 M324.1831,253.7161 C325.4191,253.3541 326.4951,252.8021 327.4081,252.0601 C328.3221,251.3181 329.0441,250.3761 329.5781,249.2331 C330.1111,248.0931 330.3771,246.7611 330.3771,245.2371 C330.3771,243.7921 330.1001,242.5261 329.5491,241.4411 C328.9971,240.3561 328.2561,239.4431 327.3231,238.7011 C326.3911,237.9601 325.3061,237.4071 324.0691,237.0461 C322.8321,236.6851 321.5471,236.5231 320.2161,236.5601 C318.8461,236.5231 317.5411,236.6751 316.3051,237.0181 C315.0671,237.3601 313.9921,237.9021 313.0791,238.6431 C312.1661,239.3861 311.4331,240.3101 310.8821,241.4131 C310.3291,242.5181 310.0541,243.7921 310.0541,245.2371 C310.0541,246.7221 310.3191,248.0351 310.8531,249.1781 C311.3851,250.3181 312.1081,251.2611 313.0221,252.0031 C313.9351,252.7451 315.0111,253.3081 316.2481,253.6861 C317.4841,254.0681 318.8071,254.2571 320.2161,254.2571 C321.6231,254.2571 322.9451,254.0781 324.1831,253.7161 M330.6061,231.6791 C329.4641,233.2211 327.8651,234.2961 325.8091,234.9041 L325.8091,235.0191 C328.4371,235.5521 330.4541,236.7031 331.8611,238.4731 C333.2691,240.2431 333.9741,242.4971 333.9741,245.2371 C333.9741,247.2561 333.6121,249.0161 332.8901,250.5181 C332.1651,252.0221 331.1771,253.2681 329.9211,254.2571 C328.6651,255.2491 327.2081,255.9911 325.5531,256.4841 C323.8971,256.9781 322.1181,257.2271 320.2161,257.2271 C318.3501,257.2271 316.5811,256.9781 314.9071,256.4841 C313.2301,255.9911 311.7661,255.2491 310.5111,254.2571 C309.2541,253.2681 308.2651,252.0221 307.5411,250.5181 C306.8181,249.0161 306.4571,247.2561 306.4571,245.2371 C306.5331,242.6121 307.2751,240.3661 308.6831,238.5011 C310.0921,236.6371 312.0521,235.4761 314.5631,235.0191 L314.5631,234.9041 C312.4701,234.2591 310.8621,233.1841 309.7391,231.6791 C308.6161,230.1761 308.0561,228.3201 308.0561,226.1121 C308.0561,224.4001 308.4071,222.9161 309.1111,221.6611 C309.8151,220.4041 310.7391,219.3671 311.8811,218.5491 C313.0221,217.7301 314.3151,217.1221 315.7631,216.7221 C317.2081,216.3221 318.6741,216.1221 320.1581,216.1221 C321.6421,216.1221 323.1071,216.3221 324.5551,216.7221 C326.0001,217.1221 327.3041,217.7301 328.4651,218.5491 C329.6261,219.3671 330.5581,220.4041 331.2621,221.6611 C331.9661,222.9161 332.3181,224.4001 332.3181,226.1121 C332.3181,228.2821 331.7471,230.1381 330.6061,231.6791" id="Fill-41" fill="#231F1F"></path>
                    <path d="M543.5811,239.1572 C544.8171,238.6062 545.8641,237.8532 546.7201,236.9012 C547.5771,235.9512 548.2241,234.8382 548.6621,233.5622 C549.0991,232.2872 549.3181,230.9072 549.3181,229.4232 C549.3181,227.9762 549.1271,226.6362 548.7471,225.3982 C548.3661,224.1622 547.7671,223.0772 546.9491,222.1442 C546.1301,221.2122 545.0941,220.4792 543.8371,219.9472 C542.5811,219.4142 541.0771,219.1472 539.3271,219.1472 C537.9191,219.1472 536.6251,219.4242 535.4451,219.9742 C534.2651,220.5272 533.2481,221.2692 532.3911,222.2012 C531.5351,223.1352 530.8781,224.2282 530.4211,225.4842 C529.9661,226.7392 529.7371,228.0532 529.7371,229.4232 C529.7371,230.8702 529.9561,232.2402 530.3931,233.5332 C530.8301,234.8282 531.4591,235.9512 532.2761,236.9012 C533.0951,237.8532 534.1041,238.6062 535.3031,239.1572 C536.5021,239.7092 537.8621,239.9852 539.3851,239.9852 C540.9441,239.9852 542.3441,239.7092 543.5811,239.1572 M533.3611,252.2022 C534.8271,253.5722 536.7201,254.2572 539.0421,254.2572 C541.4011,254.2572 543.2961,253.6672 544.7221,252.4872 C546.1491,251.3082 547.2631,249.8232 548.0621,248.0342 C548.8621,246.2462 549.3931,244.3142 549.6611,242.2402 C549.9271,240.1662 550.0601,238.2152 550.0601,236.3892 L549.9461,236.3892 C548.9941,238.3672 547.5581,239.9662 545.6361,241.1822 C543.7141,242.4022 541.6111,243.0112 539.3271,243.0112 C537.3491,243.0112 535.5401,242.6782 533.9041,242.0112 C532.2661,241.3462 530.8781,240.4232 529.7371,239.2422 C528.5951,238.0632 527.7101,236.6552 527.0821,235.0182 C526.4541,233.3822 526.1401,231.5932 526.1401,229.6512 C526.1401,227.7112 526.4731,225.9122 527.1401,224.2572 C527.8041,222.6002 528.7371,221.1752 529.9361,219.9742 C531.1361,218.7762 532.5631,217.8342 534.2191,217.1492 C535.8741,216.4642 537.6901,216.1212 539.6701,216.1212 C542.1041,216.1212 544.1991,216.4922 545.9501,217.2342 C547.7001,217.9762 549.1471,219.1962 550.2881,220.8872 C551.4311,222.5832 552.2761,224.7802 552.8291,227.4822 C553.3801,230.1842 553.6571,233.4762 553.6571,237.3582 C553.6571,238.1572 553.6091,239.2062 553.5151,240.4982 C553.4191,241.7922 553.2001,243.1732 552.8581,244.6372 C552.5161,246.1022 552.0301,247.5872 551.4011,249.0902 C550.7731,250.5952 549.9361,251.9442 548.8901,253.1432 C547.8431,254.3432 546.5401,255.3232 544.9791,256.0842 C543.4181,256.8442 541.5541,257.2252 539.3851,257.2252 C535.8081,257.2252 532.9721,256.3792 530.8781,254.6852 C528.7851,252.9922 527.5281,250.3752 527.1101,246.8362 L530.7081,246.8362 C531.0111,249.0442 531.8961,250.8322 533.3611,252.2022" id="Fill-43" fill="#231F1F"></path>
                    <path d="M314.7354,341.2627 C313.3644,342.4437 312.3274,343.9087 311.6244,345.6587 C310.9194,347.4087 310.4534,349.3127 310.2244,351.3677 C309.9964,353.4227 309.8824,355.3077 309.8824,357.0197 C309.8824,358.7707 309.9964,360.6647 310.2244,362.6997 C310.4534,364.7367 310.9194,366.6397 311.6244,368.4087 C312.3274,370.1787 313.3644,371.6547 314.7354,372.8327 C316.1044,374.0137 317.9324,374.6027 320.2154,374.6027 C322.4994,374.6027 324.3254,374.0137 325.6954,372.8327 C327.0654,371.6547 328.1024,370.1787 328.8074,368.4087 C329.5104,366.6397 329.9774,364.7367 330.2064,362.6997 C330.4344,360.6647 330.5484,358.7707 330.5484,357.0197 C330.5484,355.3077 330.4344,353.4227 330.2064,351.3677 C329.9774,349.3127 329.5104,347.4087 328.8074,345.6587 C328.1024,343.9087 327.0654,342.4437 325.6954,341.2627 C324.3254,340.0837 322.4994,339.4927 320.2154,339.4927 C317.9324,339.4927 316.1044,340.0837 314.7354,341.2627 M327.3234,338.3797 C329.1304,339.6557 330.5394,341.2827 331.5464,343.2607 C332.5554,345.2417 333.2404,347.4487 333.6024,349.8837 C333.9634,352.3197 334.1454,354.6987 334.1454,357.0197 C334.1454,359.3797 333.9634,361.7787 333.6024,364.2117 C333.2404,366.6497 332.5554,368.8567 331.5464,370.8347 C330.5394,372.8137 329.1304,374.4317 327.3234,375.6877 C325.5144,376.9427 323.1454,377.5717 320.2154,377.5717 C317.3234,377.5717 314.9624,376.9427 313.1364,375.6877 C311.3094,374.4317 309.8914,372.8137 308.8834,370.8347 C307.8744,368.8567 307.1884,366.6497 306.8284,364.2117 C306.4654,361.7787 306.2864,359.3977 306.2864,357.0767 C306.2864,354.7167 306.4654,352.3197 306.8284,349.8837 C307.1884,347.4487 307.8744,345.2417 308.8834,343.2607 C309.8914,341.2827 311.3094,339.6557 313.1364,338.3797 C314.9624,337.1047 317.3234,336.4677 320.2154,336.4677 C323.1454,336.4677 325.5144,337.1047 327.3234,338.3797" id="Fill-45" fill="#231F1F"></path>
                    <g id="Group-50" transform="translate(50.000000, 360.000000)">
                        <path d="M0.4756,0.3135 L27.9386,0.3135" id="Fill-47" fill="#000000"></path>
                        <path d="M0.4756,0.3135 L27.9386,0.3135" id="Stroke-49" stroke="#000000"></path>
                    </g>
                    <g id="Group-54" transform="translate(64.000000, 346.000000)">
                        <path d="M0.2071,0.8467 L0.2071,27.2527" id="Fill-51" fill="#000000"></path>
                        <path d="M0.2071,0.8467 L0.2071,27.2527" id="Stroke-53" stroke="#000000"></path>
                    </g>
                    <g id="Group-58" transform="translate(90.000000, 360.000000)">
                        <path d="M0.085,0.0498 L26.228,0.0498" id="Fill-55" fill="#000000"></path>
                        <path d="M0.085,0.0498 L26.228,0.0498" id="Stroke-57" stroke="#000000"></path>
                    </g>
                    <g id="Group-62" transform="translate(129.000000, 355.000000)">
                        <path d="M0.4297,0.2959 L26.3087,0.2959" id="Fill-59" fill="#000000"></path>
                        <path d="M0.4297,0.2959 L26.3087,0.2959" id="Stroke-61" stroke="#000000"></path>
                    </g>
                    <g id="Group-66" transform="translate(129.000000, 364.000000)">
                        <path d="M0.4297,0.5381 L26.3087,0.5381" id="Fill-63" fill="#000000"></path>
                        <path d="M0.4297,0.5381 L26.3087,0.5381" id="Stroke-65" stroke="#000000"></path>
                    </g>
                    <g id="Group-70" transform="translate(146.000000, 346.000000)">
                        <path d="M0.8584,0.8467 L0.8584,27.2527" id="Fill-67" fill="#000000"></path>
                        <path d="M0.8584,0.8467 L0.8584,27.2527" id="Stroke-69" stroke="#000000"></path>
                    </g>
                    <g id="Group-74" transform="translate(137.000000, 346.000000)">
                        <path d="M0.8799,0.8467 L0.8799,27.2527" id="Fill-71" fill="#000000"></path>
                        <path d="M0.8799,0.8467 L0.8799,27.2527" id="Stroke-73" stroke="#000000"></path>
                    </g>
                    <g id="Group-78" transform="translate(96.000000, 348.000000)">
                        <path d="M14.9454,0.4307 L0.4224,23.4037" id="Fill-75" fill="#000000"></path>
                        <path d="M14.9454,0.4307 L0.4224,23.4037" id="Stroke-77" stroke="#000000"></path>
                    </g>
                    <g id="Group-82" transform="translate(96.000000, 348.000000)">
                        <path d="M0.4229,0.4307 L14.9459,23.4037" id="Fill-79" fill="#000000"></path>
                        <path d="M0.4229,0.4307 L14.9459,23.4037" id="Stroke-81" stroke="#000000"></path>
                    </g>
                </g>
                <text id="ABC" font-family="HelveticaNeue-Light, Helvetica Neue" font-size="20.2452" font-weight="300" letter-spacing="0.2" fill="#231F1F">
                    <tspan x="295.6191" y="795.295312">ABC</tspan>
                </text>
                <text id="DEF" font-family="HelveticaNeue-Light, Helvetica Neue" font-size="20.2452" font-weight="300" letter-spacing="0.1" fill="#231F1F">
                    <tspan x="519.207089" y="795.295312">DEF</tspan>
                </text>
                <text id="GHI" font-family="HelveticaNeue-Light, Helvetica Neue" font-size="20.2452" font-weight="300" letter-spacing="0.1" fill="#231F1F">
                    <tspan x="92.5799892" y="903.283209">GHI</tspan>
                </text>
                <text id="JKL" font-family="HelveticaNeue-Light, Helvetica Neue" font-size="20.2452" font-weight="300" letter-spacing="0.1" fill="#231F1F">
                    <tspan x="299.931328" y="903.283209">JKL</tspan>
                </text>
                <text id="TUV" font-family="HelveticaNeue-Light, Helvetica Neue" font-size="20.2452" font-weight="300" letter-spacing="0.1" fill="#231F1F">
                    <tspan x="299.931328" y="1009.93492">TUV</tspan>
                </text>
                <text id="WXYZ" font-family="HelveticaNeue-Light, Helvetica Neue" font-size="20.2452" font-weight="300" letter-spacing="0.2" fill="#231F1F">
                    <tspan x="506.614574" y="1009.93492">WXYZ</tspan>
                </text>
                <text id="MNO" font-family="HelveticaNeue-Light, Helvetica Neue" font-size="20.2452" font-weight="300" letter-spacing="0.1" fill="#231F1F">
                    <tspan x="515.218784" y="903.283209">MNO</tspan>
                </text>
                <text id="PQRS" font-family="HelveticaNeue-Light, Helvetica Neue" font-size="20.2452" font-weight="300" letter-spacing="0.2" fill="#231F1F">
                    <tspan x="79.3193832" y="1009.93492">PQRS</tspan>
                </text>
                <g id="Group-128" transform="translate(45.000000, 63.370000)">
                    <path d="M312.6577,57.4074 L312.6577,58.9324 L313.9347,58.9324 C314.1877,58.9324 314.3777,58.9014 314.5047,58.8404 C314.7297,58.7324 314.8417,58.5194 314.8417,58.2004 C314.8417,57.8564 314.7327,57.6254 314.5157,57.5074 C314.3937,57.4414 314.2107,57.4074 313.9677,57.4074 L312.6577,57.4074 Z M315.1097,56.5674 C315.3187,56.6574 315.4957,56.7904 315.6407,56.9644 C315.7607,57.1084 315.8567,57.2674 315.9267,57.4424 C315.9967,57.6164 316.0317,57.8154 316.0317,58.0394 C316.0317,58.3084 315.9637,58.5734 315.8277,58.8344 C315.6917,59.0944 315.4667,59.2794 315.1537,59.3874 C315.4157,59.4924 315.6007,59.6414 315.7097,59.8354 C315.8187,60.0294 315.8737,60.3254 315.8737,60.7234 L315.8737,61.1044 C315.8737,61.3644 315.8837,61.5404 315.9047,61.6324 C315.9367,61.7784 316.0087,61.8864 316.1237,61.9554 L316.1237,62.0984 L314.8147,62.0984 C314.7787,61.9724 314.7527,61.8714 314.7377,61.7944 C314.7067,61.6344 314.6897,61.4714 314.6877,61.3054 L314.6797,60.7774 C314.6747,60.4154 314.6127,60.1744 314.4917,60.0534 C314.3717,59.9324 314.1467,59.8724 313.8167,59.8724 L312.6577,59.8724 L312.6577,62.0984 L311.4987,62.0984 L311.4987,56.4214 L314.2137,56.4214 C314.6017,56.4294 314.9007,56.4784 315.1097,56.5674 L315.1097,56.5674 Z" id="Fill-84" fill="#FFFFFF"></path>
                    <path d="M105.124,18.1475 C106.18,18.1475 107.205,18.1585 108.23,18.1455 C110.19,18.1195 112.126,17.9575 113.94,17.1135 C116.422,15.9595 117.514,13.2595 116.45,10.7725 C115.622,8.8375 113.894,8.0535 112.004,7.8695 C109.939,7.6685 107.84,7.8325 105.756,7.8135 C105.205,7.8085 105.071,8.0315 105.075,8.5545 C105.097,11.5165 105.085,14.4785 105.087,17.4395 C105.087,17.6415 105.107,17.8435 105.124,18.1475 L105.124,18.1475 Z M105.127,37.7465 C106.395,37.7465 107.631,37.7655 108.865,37.7415 C110.707,37.7065 112.54,37.5795 114.256,36.8145 C115.546,36.2395 116.643,35.4285 117.283,34.1275 C118.907,30.8245 117.492,27.2585 114.001,26.0975 C112.713,25.6695 111.329,25.4365 109.972,25.3245 C108.381,25.1945 106.771,25.2945 105.127,25.2945 L105.127,37.7465 Z M119.524,20.9375 C120.122,21.1295 120.531,21.2515 120.934,21.3915 C124.918,22.7705 127.635,25.4075 128.531,29.5735 C129.258,32.9565 128.431,36.1035 126.291,38.8455 C124.16,41.5765 121.235,43.0225 117.946,43.8555 C113.378,45.0125 108.721,45.1505 104.052,45.0255 C101.298,44.9525 98.549,44.7145 95.799,44.5425 C95.507,44.5245 95.219,44.4535 94.909,44.4035 L94.909,1.3255 C95.825,1.2055 96.729,1.0655 97.637,0.9725 C102.56,0.4665 107.497,0.3035 112.439,0.5525 C116.271,0.7445 119.949,1.5025 123.171,3.7835 C127.498,6.8455 128.486,12.6435 125.352,16.9145 C124.197,18.4885 122.629,19.5635 120.861,20.3575 C120.486,20.5255 120.107,20.6845 119.524,20.9375 L119.524,20.9375 Z" id="Fill-86" fill="#FFFFFF"></path>
                    <path d="M39.7386,27.9982 C43.3606,22.4912 46.9286,17.0672 50.5396,11.5782 C54.2636,14.6252 57.9366,17.6302 61.6596,20.6772 C54.1136,29.8002 46.6056,38.8782 39.0666,47.9932 C31.2936,38.4172 23.5646,28.8952 15.7986,19.3282 C20.4096,16.5152 24.9726,13.7322 29.6116,10.9022 C32.9896,16.6052 36.3406,22.2612 39.7386,27.9982" id="Fill-88" fill="#86BC4A"></path>
                    <path d="M27.5879,86.6243 C23.8649,83.5783 20.1889,80.5693 16.4719,77.5273 C24.0089,68.4153 31.5069,59.3503 39.0669,50.2103 C46.8209,59.7653 54.5469,69.2863 62.3309,78.8773 C57.7189,81.6883 53.1429,84.4773 48.5179,87.2963 C45.1459,81.6063 41.8009,75.9603 38.3889,70.2023 C34.7689,75.7063 31.2059,81.1243 27.5879,86.6243" id="Fill-90" fill="#86BC4A"></path>
                    <path d="M1.2446,37.5405 C4.2946,33.8135 7.3016,30.1375 10.3386,26.4265 C19.4426,33.9565 28.5066,41.4525 37.6526,49.0175 C28.0816,56.7865 18.5526,64.5215 8.9906,72.2825 C6.1666,67.6495 3.3846,63.0875 0.5686,58.4685 C6.2636,55.0955 11.9076,51.7525 17.6616,48.3445 C12.1596,44.7235 6.7306,41.1505 1.2446,37.5405" id="Fill-92" fill="#FFFFFF"></path>
                    <path d="M40.7656,49.0166 C50.3446,41.2406 59.8546,33.5206 69.4266,25.7506 C72.2296,30.3466 75.0116,34.9086 77.8506,39.5636 C72.1736,42.9266 66.5176,46.2776 60.7546,49.6916 C66.2546,53.3106 71.6716,56.8756 77.1736,60.4966 C74.1456,64.1976 71.1416,67.8686 68.0816,71.6086 C58.9806,64.0816 49.9036,56.5736 40.7656,49.0166" id="Fill-94" fill="#86BC4A"></path>
                    <path d="M252.1645,28.1138 C252.2315,26.2358 251.6645,24.1268 250.6315,22.1368 C250.0185,20.9568 249.0785,20.0798 247.8565,19.5618 C244.9405,18.3228 241.5975,19.5908 240.1965,22.4348 C239.4375,23.9738 238.9125,25.5888 238.8205,27.3078 C238.6655,30.1928 238.9435,32.9968 240.5315,35.5318 C242.8035,39.1598 248.2315,39.1428 250.4675,35.5008 C251.7925,33.3438 252.1385,30.9628 252.1645,28.1138 M245.8135,12.0298 C249.4945,11.9708 252.9315,12.8408 256.0105,14.8728 C259.4375,17.1348 261.4805,20.3748 262.3395,24.3618 C263.2175,28.4358 262.8435,32.4098 261.1465,36.2198 C259.9555,38.8918 258.0585,41.0178 255.5765,42.5368 C252.0905,44.6698 248.2645,45.5058 244.1765,45.2888 C241.5695,45.1498 239.1005,44.5878 236.7545,43.4378 C231.5925,40.9068 228.9705,36.6328 228.2875,31.0608 C227.9115,28.0018 228.2735,25.0008 229.3845,22.1208 C230.6955,18.7218 232.8965,16.0688 236.1515,14.3518 C239.2295,12.7278 241.9655,12.0698 245.8135,12.0298" id="Fill-96" fill="#FFFFFF"></path>
                    <polygon id="Fill-98" fill="#FFFFFF" points="95.0133 53.4948 122.7183 53.4948 122.7183 61.5358 105.2743 61.5358 105.2743 71.5938 121.5733 71.5938 121.5733 79.6738 105.2363 79.6738 105.2363 97.2658 95.0133 97.2658"></polygon>
                    <path d="M152.2964,97.2806 L141.9484,97.2806 L141.9484,65.5466 L150.6744,65.5466 C150.8374,67.0046 150.9964,68.4366 151.1654,69.9496 C151.3154,69.8426 151.4374,69.7926 151.5064,69.7026 C154.0874,66.2936 157.5664,64.7686 161.7854,64.8056 C163.4294,64.8206 165.0294,65.0696 166.5544,65.7256 C170.4324,67.3936 172.3304,70.5436 173.0534,74.5166 C173.3034,75.8876 173.4174,77.2996 173.4274,78.6936 C173.4664,84.6246 173.4334,90.5566 173.4574,96.4876 C173.4604,97.1316 173.3204,97.3546 172.6354,97.3456 C169.7394,97.3076 166.8424,97.3286 163.9454,97.3286 L163.1564,97.3286 L163.1564,96.5576 C163.1604,90.7646 163.1584,84.9716 163.1734,79.1776 C163.1774,77.5706 162.7814,76.0646 161.9404,74.7206 C161.0104,73.2356 159.5254,72.7966 157.8404,72.7856 C154.7864,72.7656 152.2504,75.4536 152.2764,78.7616 C152.3224,84.6696 152.2934,90.5786 152.2964,96.4866 L152.2964,97.2806" id="Fill-100" fill="#FFFFFF"></path>
                    <path d="M165.9494,12.8407 L174.6474,12.8407 C174.8134,14.3097 174.9764,15.7537 175.1604,17.3737 C175.5734,16.8607 175.8474,16.4737 176.1674,16.1297 C178.7594,13.3407 181.9784,12.0387 185.7704,12.1047 C187.4144,12.1337 189.0124,12.3757 190.5384,13.0297 C194.1734,14.5887 196.1064,17.4897 196.9034,21.2207 C197.1994,22.6037 197.3674,24.0397 197.3794,25.4527 C197.4284,31.5907 197.3994,37.7297 197.3984,43.8677 L197.3984,44.5877 L187.1464,44.5877 L187.1464,43.7477 C187.1504,37.9767 187.1544,32.2067 187.1574,26.4357 C187.1584,24.8337 186.7624,23.3107 185.8784,21.9967 C185.4554,21.3677 184.7584,20.7787 184.0544,20.5057 C180.4104,19.0867 177.0524,21.3637 176.4004,24.6667 C176.2994,25.1807 176.2724,25.7167 176.2714,26.2427 C176.2634,32.1507 176.2674,38.0597 176.2664,43.9677 C176.2664,44.1497 176.2514,44.3317 176.2404,44.5727 L165.9494,44.5727 L165.9494,12.8407 Z" id="Fill-102" fill="#FFFFFF"></path>
                    <path d="M296.4969,82.368 C295.5689,82.368 294.8359,82.321 294.1099,82.377 C292.1099,82.53 290.1389,82.818 288.4319,84.006 C286.5689,85.303 286.1679,87.922 287.5409,89.717 C288.2929,90.7 289.3419,91 290.5029,91.058 C292.9999,91.183 295.6469,89.663 296.0929,87.552 C296.4479,85.875 296.3779,84.108 296.4969,82.368 M295.9579,76.148 C296.2579,74.055 295.0059,72.382 292.7569,71.857 C290.0429,71.223 287.3589,71.563 284.7309,72.339 C283.4179,72.728 282.1559,73.292 280.8279,73.792 C280.2589,71.889 279.6519,69.895 279.0899,67.888 C279.0489,67.742 279.3049,67.387 279.4889,67.325 C281.5259,66.634 283.5439,65.842 285.6309,65.351 C288.8289,64.598 292.0979,64.554 295.3599,64.961 C297.5579,65.235 299.6049,65.976 301.4379,67.219 C303.7989,68.821 305.1739,71.128 305.7629,73.866 C306.0889,75.382 306.2779,76.954 306.3029,78.504 C306.3779,83.146 306.3129,87.79 306.3639,92.433 C306.3789,93.782 306.6029,95.129 306.7309,96.478 C306.7539,96.725 306.7759,96.973 306.8029,97.277 C306.5569,97.297 306.3589,97.327 306.1609,97.327 C303.5169,97.33 300.8739,97.317 298.2309,97.34 C297.7459,97.344 297.5449,97.212 297.4739,96.717 C297.3499,95.861 297.1479,95.015 296.9639,94.089 C296.8019,94.204 296.7029,94.253 296.6309,94.329 C294.4789,96.575 291.8149,97.695 288.7469,97.95 C286.5409,98.134 284.4079,97.93 282.3469,97.028 C277.1749,94.762 275.3369,88.873 277.4529,83.979 C278.7339,81.015 281.1089,79.252 283.9709,78.087 C287.3729,76.703 290.9659,76.226 294.6199,76.149 C295.0529,76.14 295.4869,76.148 295.9579,76.148" id="Fill-104" fill="#FFFFFF"></path>
                    <path d="M150.654,29.5641 C149.328,29.6401 148.198,29.6311 147.09,29.7861 C145.522,30.0061 143.978,30.3431 142.636,31.2871 C140.75,32.6141 140.338,35.2421 141.751,37.0491 C142.513,38.0241 143.568,38.3071 144.729,38.3611 C147.33,38.4801 149.988,36.7881 150.369,34.5481 C150.638,32.9621 150.567,31.3171 150.654,29.5641 M150.148,23.4421 C150.421,21.3171 149.178,19.6711 146.92,19.1531 C144.206,18.5291 141.522,18.8611 138.896,19.6491 C137.584,20.0431 136.321,20.6021 135.011,21.0951 C134.445,19.1961 133.863,17.2151 133.258,15.2421 C133.125,14.8091 133.41,14.7011 133.684,14.6061 C135.503,13.9801 137.296,13.2421 139.157,12.7811 C142.553,11.9401 146.021,11.8301 149.494,12.2551 C151.787,12.5351 153.927,13.3041 155.807,14.6491 C158.228,16.3821 159.548,18.8461 160.078,21.7211 C160.331,23.0921 160.472,24.5001 160.489,25.8941 C160.54,29.9161 160.458,33.9401 160.516,37.9621 C160.544,39.8871 160.771,41.8091 160.911,43.7321 C160.931,44.0021 160.966,44.2711 160.999,44.5841 C160.772,44.6031 160.594,44.6301 160.417,44.6301 C157.75,44.6331 155.083,44.6211 152.417,44.6421 C151.937,44.6461 151.727,44.5261 151.659,44.0191 C151.542,43.1621 151.334,42.3181 151.149,41.3941 C150.983,41.5101 150.882,41.5571 150.81,41.6321 C148.677,43.8611 146.035,44.9801 142.993,45.2461 C140.716,45.4441 138.518,45.2311 136.4,44.2691 C131.43,42.0111 129.655,36.3931 131.482,31.6531 C132.657,28.6031 134.98,26.7441 137.846,25.5171 C141.4,23.9951 145.181,23.5141 149.021,23.4431 C149.384,23.4371 149.748,23.4421 150.148,23.4421" id="Fill-106" fill="#FFFFFF"></path>
                    <path d="M220.4136,77.7717 C220.4416,72.9797 217.0006,70.3607 212.6076,71.6827 C210.3496,72.3627 209.2376,74.1817 208.5396,76.2937 C208.3866,76.7577 208.3286,77.2527 208.2186,77.7717 L220.4136,77.7717 Z M229.6766,84.5637 L208.3256,84.5637 C208.4066,85.9547 208.9216,87.0927 209.8556,88.0287 C211.4456,89.6197 213.4716,90.2727 215.6346,90.4907 C219.2146,90.8517 222.7406,90.4757 226.1986,89.4787 C226.3716,89.4287 226.5456,89.3797 226.8016,89.3067 C227.0576,90.5457 227.3106,91.7477 227.5556,92.9507 C227.7206,93.7607 227.8266,94.5857 228.0516,95.3787 C228.2006,95.9047 228.0046,96.1027 227.5636,96.2067 C225.4896,96.6937 223.4316,97.2827 221.3346,97.6327 C218.5596,98.0947 215.7376,98.1177 212.9476,97.7837 C208.1576,97.2107 204.0016,95.3977 201.1476,91.2767 C199.4466,88.8207 198.7416,86.0337 198.5536,83.1077 C198.3166,79.4267 199.0256,75.9317 200.8556,72.6987 C203.0866,68.7577 206.4506,66.3037 210.8316,65.2807 C214.0866,64.5207 217.3656,64.5297 220.5586,65.5887 C223.1866,66.4597 225.4106,67.9467 227.0066,70.2917 C229.9706,74.6447 230.3606,79.4567 229.6766,84.5637 L229.6766,84.5637 Z" id="Fill-108" fill="#FFFFFF"></path>
                    <path d="M179.9673,72.7819 C178.7193,72.7819 177.5063,72.7549 176.2963,72.7939 C175.7423,72.8129 175.5933,72.6309 175.6003,72.0919 C175.6283,69.9349 175.6123,67.7779 175.6123,65.5409 L180.0133,65.5409 L180.0133,64.2599 C180.0133,62.8799 180.0173,61.5009 180.0103,60.1219 C180.0083,59.8059 180.0143,59.5589 180.4153,59.4549 C183.5463,58.6429 186.6733,57.8099 189.8023,56.9869 C189.8643,56.9709 189.9373,56.9909 190.0833,56.9979 L190.0833,61.1919 L190.0833,65.4769 L197.4413,65.4769 L197.4413,72.7649 L190.1273,72.7649 C190.1103,73.0719 190.0853,73.3129 190.0853,73.5539 C190.0823,77.1859 190.0363,80.8179 190.1093,84.4489 C190.1333,85.6219 190.3593,86.8219 190.6953,87.9499 C191.0493,89.1369 192.0483,89.7479 193.2633,89.8189 C194.5393,89.8939 195.8233,89.8359 197.1763,89.8359 C197.1743,89.8229 197.2123,89.9469 197.2133,90.0709 C197.2303,92.2549 197.2533,94.4379 197.2413,96.6219 C197.2403,96.8319 197.0513,97.1939 196.8943,97.2279 C192.9433,98.0889 189.0033,98.5339 185.1483,96.7789 C182.3053,95.4839 180.9353,93.1179 180.4343,90.1799 C180.1923,88.7599 180.0483,87.3079 180.0303,85.8679 C179.9783,81.7079 180.0133,77.5469 180.0113,73.3869 C180.0113,73.2089 179.9863,73.0319 179.9673,72.7819" id="Fill-110" fill="#FFFFFF"></path>
                    <path d="M226.6,36.5265 C226.93,38.4835 227.25,40.3815 227.57,42.2805 C227.581,42.3485 227.583,42.4175 227.594,42.4855 C227.818,43.8945 227.825,43.9225 226.408,44.2885 C221.724,45.4975 217.014,45.7105 212.315,44.4235 C206.036,42.7045 201.891,37.7785 201.219,31.2995 C200.676,26.0645 201.838,21.3425 205.568,17.4505 C208.067,14.8435 211.175,13.3495 214.682,12.6405 C218.849,11.7965 222.988,11.9245 227.091,13.0555 C227.331,13.1215 227.565,13.2105 227.882,13.3155 C227.346,15.7445 226.816,18.1485 226.266,20.6375 C224.444,19.9185 222.603,19.7225 220.739,19.7015 C219.326,19.6845 217.947,19.8695 216.633,20.4295 C212.955,21.9965 211.446,25.4795 211.643,29.1495 C211.748,31.1195 212.276,32.9435 213.578,34.4905 C215.274,36.5075 217.513,37.3705 220.065,37.5035 C222.279,37.6195 224.458,37.3695 226.6,36.5265" id="Fill-112" fill="#FFFFFF"></path>
                    <path d="M256.4326,65.5431 L264.9966,65.5431 C265.1376,67.4821 265.2766,69.3921 265.4156,71.3021 C265.4716,71.3181 265.5286,71.3351 265.5846,71.3511 C265.6696,71.2201 265.7776,71.0981 265.8376,70.9551 C267.0576,68.0651 269.0866,66.0401 272.1146,65.0891 C273.5476,64.6391 275.0146,64.6961 276.4806,64.8601 C276.5996,64.8731 276.7816,65.1361 276.7826,65.2841 C276.8006,68.2231 276.7956,71.1621 276.7956,74.1541 C276.0616,74.0921 275.3816,73.9641 274.7086,73.9951 C273.5936,74.0471 272.4426,74.0511 271.3786,74.3411 C268.5176,75.1211 266.7316,77.5421 266.7526,80.8931 C266.7866,86.0651 266.7616,91.2371 266.7606,96.4101 L266.7606,97.2801 L256.4326,97.2801 L256.4326,65.5431 Z" id="Fill-114" fill="#FFFFFF"></path>
                    <path d="M253.769,74.0457 C252.395,74.0457 251.113,74.0007 249.835,74.0567 C248.03,74.1347 246.551,74.9107 245.312,76.2387 C244.017,77.6267 243.739,79.3137 243.733,81.0897 C243.717,86.1927 243.728,91.2957 243.728,96.3987 L243.728,97.2747 L233.408,97.2747 L233.408,65.5547 L241.967,65.5547 C242.107,67.4617 242.248,69.3837 242.39,71.3047 C242.452,71.3217 242.515,71.3377 242.577,71.3547 C242.667,71.1997 242.774,71.0517 242.843,70.8877 C244.071,67.9937 246.131,65.9967 249.158,65.0657 C250.566,64.6337 252.016,64.6897 253.458,64.8607 C253.577,64.8747 253.755,65.1367 253.756,65.2847 C253.773,68.2247 253.769,71.1637 253.769,74.0457" id="Fill-116" fill="#FFFFFF"></path>
                    <path d="M136.4642,65.566 L136.4642,66.303 C136.4642,76.375 136.4572,86.447 136.4792,96.519 C136.4812,97.2 136.2742,97.352 135.6252,97.344 C132.7512,97.309 129.8762,97.329 127.0022,97.329 L126.2182,97.329 L126.2182,65.566 L136.4642,65.566 Z" id="Fill-118" fill="#FFFFFF"></path>
                    <path d="M131.2737,61.6307 C128.6197,61.5497 126.6147,60.1167 126.0287,57.8127 C125.2797,54.8707 127.4467,51.9657 130.6107,51.7507 C131.4457,51.6937 132.3217,51.7477 133.1337,51.9417 C135.1827,52.4307 136.6777,54.3767 136.8107,56.3357 C136.9517,58.4157 135.5307,60.6307 133.3587,61.2397 C132.6807,61.4297 131.9697,61.5037 131.2737,61.6307" id="Fill-120" fill="#FFFFFF"></path>
                    <path d="M317.948,59.3326 C317.949,56.9526 316.119,55.1596 313.675,55.1436 C311.285,55.1286 309.427,56.9796 309.436,59.3656 C309.445,61.7106 311.324,63.5566 313.721,63.5776 C316.078,63.5976 317.947,61.7206 317.948,59.3326 M313.709,53.8196 C317.316,53.8836 319.96,56.7626 319.485,60.1686 C319.106,62.8926 316.268,65.0416 313.374,64.8006 C311.76,64.6656 310.357,64.1106 309.25,62.8696 C306.382,59.6546 308.199,55.3356 311.765,54.2076 C312.392,54.0096 313.06,53.9456 313.709,53.8196" id="Fill-122" fill="#FFFFFF"></path>
                    <g id="Group-127" transform="translate(86.000000, 445.000000)">
                        <path d="M0.5375,0.0872 L371.2085,0.0872" id="Fill-124" fill="#071E41"></path>
                        <path d="M0.5375,0.0872 L371.2085,0.0872" id="Stroke-126" stroke="#071E41" stroke-width="3"></path>
                    </g>
                </g>
                <text id="El-challenge-es-incorrecto.-Intentalo-de-nuevo" font-family="MyriadPro-Cond, Myriad Pro" font-size="34" font-style="condensed" font-weight="normal" letter-spacing="-0.282" fill="#FF8B17">
                    <tspan x="96.6016" y="542.929531">E</tspan>
                    <tspan x="108.0836" y="542.929531" letter-spacing="-0.01">l challenge es in</tspan>
                    <tspan x="274.0376" y="542.929531" letter-spacing="-0.214">c</tspan>
                    <tspan x="283.8876" y="542.929531" letter-spacing="-0.01">or</tspan>
                    <tspan x="305.3216" y="542.929531" letter-spacing="-0.486">r</tspan>
                    <tspan x="312.7916" y="542.929531" letter-spacing="-0.01">e</tspan>
                    <tspan x="325.1236" y="542.929531" letter-spacing="0.5">c</tspan>
                    <tspan x="336.4016" y="542.929531">t</tspan>
                    <tspan x="344.5176" y="542.929531" letter-spacing="-1.166">o</tspan>
                    <tspan x="355.2176" y="542.929531" letter-spacing="-0.01">. I</tspan>
                    <tspan x="373.8876" y="542.929531" letter-spacing="-0.214">n</tspan>
                    <tspan x="387.2396" y="542.929531">t</tspan>
                    <tspan x="395.3556" y="542.929531" letter-spacing="-0.01">e</tspan>
                    <tspan x="407.6876" y="542.929531" letter-spacing="-0.214">n</tspan>
                    <tspan x="421.0396" y="542.929531" letter-spacing="-0.01">talo de nue</tspan>
                    <tspan x="537.7196" y="542.929531" letter-spacing="-0.452">v</tspan>
                    <tspan x="548.6236" y="542.929531" letter-spacing="-0.01">o</tspan>
                </text>
            </g>
        </g>
    </g>
</svg>