<?xml version="1.0" encoding="UTF-8" standalone="no"?>
<svg width="2199px" height="537px" viewBox="0 0 2199 537" version="1.1" xmlns="http://www.w3.org/2000/svg" xmlns:xlink="http://www.w3.org/1999/xlink">
    <!-- Generator: Sketch 3.8.2 (29753) - http://www.bohemiancoding.com/sketch -->
    <title>Rectangle 68</title>
    <desc>Created with Sketch.</desc>
    <defs>
        <rect id="path-1" x="0" y="0" width="2648" height="540"></rect>
    </defs>
    <g id="Page-1" stroke="none" stroke-width="1" fill="none" fill-rule="evenodd">
        <g id="Artboard-7" transform="translate(-1314.000000, -186.000000)">
            <g id="sec1" transform="translate(864.000000, 186.000000)">
                <mask id="mask-2" fill="white">
                    <use xlink:href="#path-1"></use>
                </mask>
                <g id="Rectangle-68"></g>
                <g id="Page-1" mask="url(#mask-2)" fill="#21D3CF">
                    <g transform="translate(1223.000000, 100.000000)" id="Fill-1">
                        <path d="M88.0244362,443.734169 L117.512708,443.421614 L147.279086,443.421614 L151.477481,443.421614 L172.281926,443.421614 L177.046741,443.421614 L183.868016,443.421614 L206.004313,443.421614 L312.413407,443.421614 L401.713819,443.421614 L408.09242,443.421614 L522.705671,443.421614 L635.5967,443.421614 L643.392626,443.421614 L667.489704,443.421614 L703.634683,443.421614 L738.363613,443.421614 L754.66349,443.421614 L782.304519,443.421614 L797.895095,443.421614 L812.334971,443.421614 L843.250774,443.421614 L929.839004,443.937457 L843.170403,408.199484 L843.250774,323.62546 L843.250774,164.486789 C847.077934,163.785446 846.502584,161.957128 845.608305,158.704525 C844.476741,154.593032 844.254765,150.203289 843.817193,145.919001 C843.690897,144.68784 844.504807,143.160641 844.026412,142.20773 C843.280115,140.726272 841.750527,139.6336 840.589621,138.352888 C839.942831,137.63757 838.826576,136.887946 838.808716,136.13197 C838.737276,133.39648 838.980938,130.953217 836.717811,128.517576 C835.5467,127.257193 836.305753,124.233289 836.160321,122.007289 C836.101638,121.103929 835.952379,120.205652 835.851597,119.353114 C829.091556,118.720381 829.165547,118.710217 828.296782,111.884833 C827.646165,106.764525 826.845012,101.658193 825.91884,96.5810832 C825.755547,95.6891586 824.722214,94.8810901 823.949128,94.189912 C822.151638,92.5813983 820.268675,91.0669051 818.420156,89.5142955 C814.649128,85.9809017 814.057193,74.9233229 816.054971,72.5524805 C815.646741,70.4827579 815.066288,68.8729736 815.053531,67.2593777 C814.960403,55.8562099 815.029292,44.4517716 814.906823,33.0498743 C814.894066,31.9038401 814.629992,30.776864 814.151597,29.6232065 C813.853078,28.9066175 813.452502,28.1595353 813.430815,27.4162647 C813.347893,24.4851106 813.39637,21.5501449 813.39637,18.4182442 C813.293037,18.0535969 812.744477,17.4500866 812.806988,15.4693024 C812.969004,10.318501 812.808263,4.94027158 812.708757,0.000381164383 C812.569704,4.94027158 812.408963,10.318501 812.570979,15.4693024 C812.63349,17.4500866 812.08493,18.0535969 810.25172,17.8223572 C811.981597,21.5501449 812.03135,24.4851106 811.947152,27.4162647 C811.925465,28.1595353 811.524889,28.9066175 811.227646,29.6232065 C810.749251,30.776864 810.485177,31.9038401 810.47242,33.0498743 C810.348675,44.4517716 810.417564,55.8562099 810.325712,67.2593777 C810.312955,68.8729736 809.732502,70.4827579 809.322996,72.5524805 C811.320774,74.9233229 810.72884,85.9809017 807.872502,89.3097373 C805.110568,91.0669051 803.226329,92.5813983 801.42884,94.189912 C800.657029,94.8810901 799.62242,95.6891586 799.460403,96.5810832 C798.532955,101.658193 797.733078,106.764525 797.082461,111.884833 C796.213695,118.710217 796.288963,118.720381 789.527646,119.353114 C789.426864,120.205652 789.280156,121.103929 789.220198,122.007289 C789.074765,124.233289 789.835095,127.257193 788.663984,128.517576 C786.403407,130.953217 786.648346,133.39648 786.578181,136.13197 C786.559045,136.887946 785.452996,137.63757 784.80493,138.352888 C783.644025,139.6336 782.131021,140.726272 781.384724,142.20773 C780.905053,143.160641 781.752132,144.68784 781.627111,145.919001 C781.186988,150.203289 780.845095,154.593032 779.713531,158.704525 C778.820527,161.957128 779.464765,163.785446 782.016206,164.486789 L782.016206,308.743532 L762.880403,308.743532 L762.880403,341.777778 L753.950362,341.777778 L753.950362,225.527724 L702.921556,247.734361 L702.921556,109.529237 L676.765465,61.4123161 L676.88028,74.9944736 L667.108263,75.8088949 L665.415383,65.6559462 L653.696617,65.9951825 L646.210691,74.7543401 L645.479704,97.8325729 L635.308387,97.8325729 L635.308387,370.243135 C634.032667,370.128785 631.728716,370.027141 629.618675,369.905169 C629.369909,360.603487 629.14028,351.376768 628.962955,342.147508 C628.822626,334.900302 628.719292,327.646744 628.920856,320.404621 C628.974436,318.502611 630.312667,316.634905 631.108716,314.60584 C626.980486,313.773631 630.347111,309.230152 628.151597,305.719628 C627.735712,307.588604 627.506082,308.640617 627.27135,309.692631 C626.352831,307.438679 625.606535,305.072919 625.52744,302.685559 C625.341185,296.946494 625.475136,291.198535 625.463654,285.454388 C625.459827,282.650289 625.256988,279.833484 625.47386,277.048443 C625.561885,275.92782 626.507193,274.859289 627.111885,273.79584 C627.552008,273.024617 628.075053,272.301676 628.751185,271.266179 C625.19958,270.703326 624.47242,268.223217 624.991638,265.716426 C625.811926,261.76121 623.24135,258.847843 622.542255,254.263707 C621.221885,256.619302 620.38884,258.104573 619.377193,259.911292 C615.649539,255.710861 613.04707,251.683224 615.289786,245.953052 C616.707111,242.33072 611.232996,232.807963 607.344601,231.538686 C606.48349,231.256624 605.613449,230.99108 604.11065,230.517165 C607.176206,228.019268 608.310321,226.074059 605.10316,223.562186 C603.548058,222.34246 604.47423,216.70885 606.099498,215.097796 C605.399128,214.536213 604.700033,213.973361 603.942255,213.362227 C603.290362,213.914915 602.544066,214.545107 601.79777,215.17657 C603.283984,216.724097 604.252255,222.258604 602.810691,223.465624 C599.835712,225.953357 600.491432,227.941765 603.050527,229.903491 C595.05814,232.237487 593.848757,238.608015 592.57814,244.683775 C592.143119,246.75985 593.476247,249.218361 592.98637,251.260131 C592.264313,254.270059 590.632667,257.062724 589.387564,259.948138 C587.516082,258.149042 586.749374,256.665042 585.982667,255.179772 C585.311638,258.565782 582.02921,260.756207 582.915835,264.633919 C583.502667,267.199155 583.396782,270.454299 579.62958,271.228063 C584.81921,275.664816 581.552091,281.036693 582.212914,285.521727 C582.97707,290.704292 582.508881,296.087604 582.343037,301.375624 C582.253737,304.208946 581.678387,307.028292 580.657811,309.823498 C580.397564,308.729556 580.138593,307.635614 579.781391,306.130015 C577.125342,308.810871 581.025218,313.656741 575.341885,314.804046 C579.294066,316.629823 578.825877,319.391994 578.686823,322.570905 C578.35386,330.278049 578.714889,338.013145 578.771021,345.735535 C578.795259,349.379467 578.760815,353.022128 578.754436,356.666059 C578.745506,362.129415 578.740403,362.270446 573.369621,362.059535 C571.301679,361.97822 569.246494,361.153635 567.232132,360.523443 C566.777975,360.381141 566.136288,359.303717 566.221761,359.205885 C568.336905,356.753727 564.865671,355.281162 564.721514,353.057703 C564.202296,355.038487 563.684354,357.018001 562.922749,359.921203 C561.87028,360.5857 560.530774,359.872922 560.105959,357.73332 C559.841885,356.400515 559.767893,354.74245 560.33814,353.587522 C562.027193,350.163395 560.607317,347.53209 559.117276,344.51835 C558.015053,342.293621 558.043119,339.516203 556.845218,336.971296 C556.199704,339.655963 555.554189,342.340631 554.908675,345.02657 C553.796247,343.030539 553.386741,341.169186 552.983613,339.330703 C552.265383,339.085487 551.220568,339.024501 550.628634,338.478165 C546.562914,334.722426 542.878634,330.491501 538.510568,327.139796 C533.80316,323.527628 532.313119,321.898785 531.870444,315.739169 C531.501761,316.388419 531.328263,316.69335 530.793737,317.634826 C530.016823,315.554939 528.878881,313.889251 528.867399,312.212128 C528.830403,307.664837 529.553737,303.10357 529.390444,298.568984 C529.321556,296.655539 528.278016,294.010258 526.800733,293.08784 C524.260774,291.502196 524.083449,289.682772 524.282461,287.235696 C524.361556,286.254833 523.901021,285.230772 523.6867,284.225768 C521.509045,285.230772 521.04851,286.254833 521.127605,287.235696 C521.326617,289.682772 521.149292,291.502196 518.609333,293.08784 C517.132049,294.010258 516.08851,296.655539 516.019621,298.568984 C515.855053,303.10357 516.579663,307.664837 516.542667,312.212128 C516.529909,313.889251 515.391967,315.554939 514.616329,317.634826 C514.080527,316.69335 513.908305,316.388419 513.539621,315.739169 C513.096947,321.898785 511.606905,323.527628 506.899498,327.139796 C502.531432,330.491501 498.847152,334.722426 494.781432,338.478165 C494.188222,339.024501 493.144683,339.085487 492.426453,339.330703 C492.023325,341.169186 491.613819,343.030539 491.205588,344.893162 C489.857152,342.340631 489.210362,339.655963 488.564848,336.971296 C487.366947,339.516203 487.395012,342.293621 486.294066,344.51835 C484.801473,347.53209 483.381597,350.163395 485.073202,353.587522 C485.642173,354.74245 485.568181,356.400515 485.302831,357.73332 C484.879292,359.872922 483.539786,360.5857 482.487317,359.921203 C481.726988,357.018001 481.20777,355.038487 480.688551,353.057703 C480.543119,355.281162 477.07316,356.753727 479.187029,359.205885 C479.273778,359.303717 478.632091,360.381141 478.177934,360.523443 C476.163572,361.153635 474.108387,361.97822 472.04172,362.059535 C466.668387,362.270446 466.66456,362.129415 466.65563,356.666059 C466.649251,353.022128 466.613531,349.379467 466.639045,345.735535 C466.693901,338.013145 467.057481,330.278049 466.723243,322.570905 C466.584189,319.391994 466.116,316.629823 470.068181,314.804046 C464.383572,313.656741 468.284724,308.810871 465.628675,306.130015 C465.271473,307.635614 465.011226,308.729556 464.752255,309.823498 C463.731679,307.028292 463.155053,304.208946 463.067029,301.375624 C462.901185,296.087604 462.432996,290.704292 463.197152,285.521727 C463.857975,281.036693 460.590856,275.664816 465.767728,272.03232 C462.013284,270.454299 461.907399,267.199155 462.49423,264.633919 C463.382132,260.756207 460.098428,258.565782 460.294889,255.173419 C458.660691,256.665042 457.893984,258.149042 457.127276,259.634313 C454.778675,257.062724 453.145753,254.270059 452.423695,251.260131 C451.932543,249.218361 453.266947,246.75985 452.831926,244.683775 C451.561309,238.608015 450.351926,232.237487 442.659333,230.677254 C444.918634,227.941765 445.574354,225.953357 442.60065,223.465624 C441.157811,222.258604 442.127358,216.724097 443.613572,215.17657 C442.866,214.545107 442.120979,213.914915 441.467811,213.362227 C440.710033,213.973361 440.010938,214.536213 439.310568,215.097796 C440.93456,216.70885 441.862008,222.34246 440.30563,223.562186 C437.101021,226.074059 438.235136,228.019268 441.299416,230.517165 C439.796617,230.99108 438.927852,231.256624 438.064189,231.538686 C434.17707,232.807963 428.702955,242.33072 430.12028,245.953052 C432.364272,251.683224 429.760527,255.710861 426.034148,259.911292 C425.021226,258.104573 424.188181,256.619302 422.867811,254.263707 C422.16744,258.847843 419.59814,261.76121 420.418428,265.716426 C420.937646,268.223217 420.20921,270.703326 416.658881,271.266179 C417.335012,272.301676 417.858058,273.024617 418.296905,273.79584 C418.902872,274.859289 419.848181,275.92782 419.93493,277.048443 C420.153078,279.833484 419.950239,282.650289 419.945136,285.454388 C419.933654,291.198535 420.068881,296.946494 419.88135,302.685559 C419.803531,305.072919 419.055959,307.438679 418.612008,309.815874 C417.900156,308.640617 417.665424,307.588604 417.249539,305.719628 C415.0553,309.230152 418.412996,313.773631 414.28349,314.60584 C415.078263,316.634905 416.399909,318.502611 416.452214,320.404621 C416.655053,327.646744 416.514724,334.900302 416.374395,342.147508 C416.19707,351.376768 415.896,360.603487 415.647235,369.905169 C413.303737,370.041117 411.401638,370.150385 409.155095,370.281251 C411.849416,372.647011 412.510239,376.991015 411.17456,379.919628 C410.062132,382.36035 409.505918,384.945915 408.230198,387.852929 L408.230198,257.921614 L312.551185,257.921614 L312.551185,308.757508 C311.275465,307.762669 310.510033,307.18457 308.014724,307.384046 C308.382132,302.981597 308.31707,302.938398 304.702955,302.436532 C303.877564,299.105155 306.481309,294.545159 301.159004,292.748604 C302.661802,289.484566 301.873407,287.549522 298.252914,287.431361 C297.949292,279.926234 295.688716,273.259669 291.861556,267.079724 C286.784189,258.882148 281.270527,251.157217 271.554642,247.809323 C270.54172,243.404333 267.992831,242.67885 265.107152,242.653439 C264.205218,232.457292 262.440897,229.535032 257.372461,229.824717 C252.16242,230.122025 250.876494,232.510655 250.380239,242.675039 L245.01456,242.675039 C241.651761,243.945587 243.529621,247.734361 240.555918,249.104011 C230.23279,253.858402 225.207728,263.501861 220.237523,272.753991 C217.942502,277.026843 217.711597,282.42159 216.480527,287.567309 C212.695465,287.303035 212.934025,289.823802 213.644601,291.78934 C212.388016,293.944189 211.132708,295.391343 210.697687,297.046867 C210.249909,298.755754 210.598181,300.676823 210.598181,302.553422 C205.506782,302.608056 208.327399,306.056323 206.897317,307.272237 C205.50423,308.456388 202.469292,306.911402 202.396576,310.4791 C202.158016,322.376511 202.621103,334.265028 202.437399,346.162439 C202.230733,359.559097 202.839251,372.962107 202.839251,386.361306 L202.839251,390.301275 L202.365959,401.412217 C200.442173,395.961566 199.038881,390.702768 197.897111,385.423641 C197.280938,382.575073 197.050033,379.628672 196.595877,376.109254 C190.376741,381.653926 196.00777,387.972361 193.646412,393.593265 C193.101679,392.897004 192.664107,392.606049 192.634765,392.278248 C192.322214,388.857933 193.180774,384.98022 188.774436,383.247193 C188.465712,383.126491 188.398099,382.228213 188.330486,381.676796 C187.776823,377.251477 186.771556,372.815994 186.820033,368.394487 C186.897852,361.137117 187.885259,353.893724 188.058757,346.633813 C188.169745,341.977254 187.353284,337.30672 187.216782,332.634915 C186.626123,312.382381 185.928305,292.129847 185.747152,271.87223 C185.702502,266.917093 185.961473,260.776535 188.732337,257.241871 C193.601761,251.028891 189.579416,245.603652 190.569374,239.943361 C187.901844,241.457854 187.101967,243.423391 185.976782,246.190645 C185.726741,241.6586 185.680815,238.015939 185.275136,234.411395 C184.982996,231.809313 184.744436,228.972179 183.536329,226.74872 C181.334436,222.694402 178.970527,218.976778 182.790033,214.64548 C183.332214,215.52597 183.892255,216.434412 184.320897,217.130672 C185.058263,215.679707 185.979333,214.498097 186.231926,213.189433 C186.484519,211.876957 186.46921,210.226515 185.865794,209.096998 C184.639827,206.801117 182.938016,204.756806 180.886658,201.829463 C183.979004,202.624826 185.935959,203.129234 187.891638,203.632371 C187.595671,202.270343 186.885095,201.561378 186.032914,201.285669 C182.26316,200.062131 181.182626,197.424474 183.338593,194.166789 C184.189498,192.880994 185.359333,191.808652 186.268922,190.555891 C188.095753,188.037665 189.84349,185.463535 192.171679,182.127076 C187.086658,184.713912 184.377029,187.164799 181.294889,188.99947 C178.814889,190.474576 174.865259,190.303052 176.837523,195.507217 C174.8053,193.066494 174.690486,191.099686 174.557811,188.817782 C170.638798,191.376665 168.482831,187.913152 165.787235,185.61346 C163.783078,183.903302 161.576082,182.428196 159.005506,180.510939 C158.893243,181.988587 158.395712,183.262946 158.819251,183.763542 C164.181103,190.093412 169.67563,196.312744 175.424025,202.88783 C174.460856,205.108748 173.257852,207.884895 171.813737,211.217542 C173.19279,213.354604 175.046412,216.229854 176.991885,219.244864 L176.956165,220.941046 C176.333613,222.869737 175.020897,224.769207 173.945465,226.74872 C172.737358,228.972179 172.500074,231.809313 172.206658,234.411395 C171.800979,238.015939 171.755053,241.6586 171.505012,246.190645 C170.379827,243.423391 169.579951,241.457854 168.78135,239.492316 C167.902379,245.603652 163.880033,251.028891 168.750733,257.241871 C171.521597,260.776535 171.779292,266.918364 171.734642,271.87223 C171.554765,292.129847 170.856947,312.382381 170.265012,332.634915 C170.129786,337.30672 169.313325,341.624042 169.424313,346.281871 C169.55316,351.679159 170.131062,358.294902 170.452543,362.106546 L147.983284,362.106546 L147.983284,341.635477 L88.0244362,360.693696 L88.0244362,407.987302 L0.88637037,443.937457 L88.0244362,443.734169 Z"></path>
                    </g>
                </g>
            </g>
        </g>
    </g>
</svg>