
<svg width="65px" height="55px" viewBox="0 0 65 55" version="1.1" xmlns="http://www.w3.org/2000/svg" xmlns:xlink="http://www.w3.org/1999/xlink">
    <!-- Generator: Sketch 3.8.3 (29802) - http://www.bohemiancoding.com/sketch -->
    <desc>Created with Sketch.</desc>
    <defs>
        <polygon id="path-1" points="0 53.1827237 31.0186906 53.1827237 31.0186906 0.0517295858 1.67585013e-21 0.0517295858"></polygon>
        <polygon id="path-3" points="0.018891752 53.183432 31.0371398 53.183432 31.0371398 0.0516923077 0.018891752 0.0516923077 0.018891752 53.183432"></polygon>
    </defs>
    <g id="Page-1" opacity="0.216592817" stroke="none" stroke-width="1" fill="none" fill-rule="evenodd">
        <g id="Group-3" transform="translate(0.000000, 0.072568)">
            <mask id="mask-2" fill="white">
                <use xlink:href="#path-1"></use>
            </mask>
            <g id="Clip-2"></g>
            <path d="M20.2632102,24.1306527 C18.7039091,23.6794633 17.1444844,23.4505757 15.627721,23.4505757 C13.2854306,23.4505757 11.3309253,23.9884988 9.81539839,24.647203 C11.276393,19.2723213 14.7862425,9.99802544 21.7779952,8.95361716 C22.4255812,8.85681834 22.9561887,8.38636864 23.132893,7.75301361 L24.6609091,2.26058166 C24.7897586,1.79622071 24.7134629,1.29893077 24.4498285,0.895954438 C24.1860704,0.492853846 23.7624253,0.223830178 23.2875866,0.158469231 C22.7715704,0.0877650888 22.2455382,0.0517295858 21.7242048,0.0517295858 C13.3319253,0.0517295858 5.02051667,8.85408462 1.51326398,21.4579367 C-0.545483333,28.8521734 -1.14904785,39.969126 3.92208118,46.9663509 C6.75986075,50.8816704 10.8998608,52.9725994 16.2274522,53.1814811 C16.2493392,53.1821024 16.2706081,53.1827237 16.2924952,53.1827237 C22.8659199,53.1827237 28.6948124,48.734203 30.4679145,42.3656112 C31.5272747,38.558274 31.0483554,34.565416 29.1184575,31.1199249 C27.2092102,27.7130787 24.0646403,25.2297355 20.2632102,24.1306527" id="Fill-1" fill="#9B9B9B" mask="url(#mask-2)"></path>
        </g>
        <g id="Group-6" transform="translate(32.274194, 0.072568)">
            <mask id="mask-4" fill="white">
                <use xlink:href="#path-3"></use>
            </mask>
            <g id="Clip-5"></g>
            <path d="M29.1367586,31.1205586 C27.2273876,27.7129669 24.0828177,25.2297479 20.2815113,24.1306651 C18.7220866,23.6794757 17.1627855,23.4505882 15.6466403,23.4505882 C13.30435,23.4505882 11.3492263,23.9885112 9.83369946,24.6472154 C11.2946941,19.2723337 14.8045435,9.99803787 21.7970382,8.95362959 C22.4445005,8.85683077 22.9744898,8.3862568 23.1518124,7.75302604 L24.6799522,2.26059408 C24.8088016,1.79610888 24.7323823,1.2989432 24.4687478,0.895842604 C24.2057317,0.492742012 23.7820866,0.223842604 23.3065059,0.158481657 C22.7912317,0.0876532544 22.2651995,0.0516177515 21.7432478,0.0516177515 C13.3508446,0.0516177515 5.03943602,8.85409704 1.53156505,21.4578249 C-0.526440323,28.8521858 -1.13012849,39.9690142 3.94161882,46.9676059 C6.77878011,50.8824284 10.919522,52.9738544 16.2463715,53.1821148 C16.2682586,53.1827361 16.2895274,53.1834817 16.3121565,53.1834817 C22.8848392,53.1834817 28.71435,48.7348367 30.4875758,42.366245 C31.5454522,38.5589077 31.0660382,34.5654284 29.1367586,31.1205586" id="Fill-4" fill="#9B9B9B" mask="url(#mask-4)"></path>
        </g>
    </g>
</svg>