
<svg width="66px" height="56px" viewBox="959 162 66 56" version="1.1" xmlns="http://www.w3.org/2000/svg" xmlns:xlink="http://www.w3.org/1999/xlink">
    <!-- Generator: Sketch 3.8.3 (29802) - http://www.bohemiancoding.com/sketch -->
    <desc>Created with Sketch.</desc>
    <defs>
        <polygon id="path-1" points="4.54747351e-13 53.6948541 31.5055949 53.6948541 31.5055949 0.052227723 4.54747353e-13 0.052227723"></polygon>
        <polygon id="path-3" points="0.0191882981 53.6955692 31.5243336 53.6955692 31.5243336 0.0521900859 0.0191882981 0.0521900859 0.0191882981 53.6955692"></polygon>
    </defs>
    <g id="Page-1" opacity="0.216592817" stroke="none" stroke-width="1" fill="none" fill-rule="evenodd" transform="translate(991.504616, 190.020000) rotate(-180.000000) translate(-991.504616, -190.020000) translate(959.004616, 162.520000)">
        <g id="Group-3" transform="translate(0.000000, 0.073267)">
            <mask id="mask-2" fill="white">
                <use xlink:href="#path-1"></use>
            </mask>
            <g id="Clip-2"></g>
            <path d="M20.5812843,24.3630221 C18.9975067,23.907488 17.4136035,23.6763963 15.8730312,23.6763963 C13.4939737,23.6763963 11.5087882,24.2194994 9.96947191,24.8845466 C11.4533999,19.4579068 15.018344,10.0943028 22.119847,9.03983725 C22.7775983,8.9421063 23.3165348,8.46712633 23.4960129,7.82767232 L25.0480145,2.28235024 C25.1788865,1.81351767 25.1013932,1.311439 24.8336205,0.904582155 C24.5657222,0.49759985 24.135427,0.225985581 23.6531347,0.159995232 C23.1290186,0.0886102348 22.5947291,0.052227723 22.0652124,0.052227723 C13.5411982,0.052227723 5.09932434,8.93934625 1.53701787,21.6645689 C-0.554045853,29.1300094 -1.1670846,40.3540143 3.98364658,47.4186198 C6.86597112,51.3716425 11.0709572,53.4827064 16.4821765,53.6935995 C16.5044071,53.6942268 16.5260098,53.6948541 16.5482405,53.6948541 C23.2248491,53.6948541 29.1452384,49.2034957 30.9461731,42.7735767 C32.0221623,38.9295762 31.5357253,34.8982684 29.5755336,31.4195985 C27.6363166,27.9799456 24.442386,25.4726887 20.5812843,24.3630221" id="Fill-1" fill="#9B9B9B" mask="url(#mask-2)"></path>
        </g>
        <g id="Group-6" transform="translate(32.780806, 0.073267)">
            <mask id="mask-4" fill="white">
                <use xlink:href="#path-3"></use>
            </mask>
            <g id="Clip-5"></g>
            <path d="M29.5941219,31.4202383 C27.6547793,27.9798327 24.4608487,25.4727013 20.5998727,24.3630347 C19.0159695,23.9075005 17.4321919,23.6764088 15.8922476,23.6764088 C13.51319,23.6764088 11.5273766,24.2195119 9.98806026,24.8845591 C11.4719883,19.4579193 15.0369323,10.0943154 22.139189,9.0398498 C22.7968146,8.94211884 23.3351232,8.46701342 23.5152292,7.82768487 L25.0673564,2.28236279 C25.1982284,1.81340475 25.1206095,1.31145155 24.8528368,0.904469244 C24.5856921,0.497486939 24.1553969,0.225998127 23.672351,0.160007778 C23.1489885,0.0884973236 22.6146991,0.0521148117 22.0845543,0.0521148117 C13.5604145,0.0521148117 5.11854067,8.93935879 1.55560622,21.6644559 C-0.534703922,29.1300219 -1.14786826,40.3539013 4.0034909,47.419887 C6.88518746,51.3724078 11.0909271,53.4839735 16.5013928,53.6942393 C16.5236235,53.6948666 16.5452261,53.6956193 16.5682104,53.6956193 C23.2440654,53.6956193 29.1650827,49.2041355 30.9661431,42.7742166 C32.040625,38.930216 31.5536856,34.898281 29.5941219,31.4202383" id="Fill-4" fill="#9B9B9B" mask="url(#mask-4)"></path>
        </g>
    </g>
</svg>