<?xml version="1.0" encoding="UTF-8" standalone="no"?>
<svg width="221px" height="85px" viewBox="0 0 221 85" version="1.1" xmlns="http://www.w3.org/2000/svg" xmlns:xlink="http://www.w3.org/1999/xlink">
    <!-- Generator: Sketch 3.8.2 (29753) - http://www.bohemiancoding.com/sketch -->
    <title>Page 1</title>
    <desc>Created with Sketch.</desc>
    <defs>
        <polygon id="path-1" points="8.21929532 0.0594182813 0.131348469 0.0594182813 0.131348469 8.32087109 8.21929532 8.32087109 8.21929532 0.0594182813"></polygon>
        <polygon id="path-3" points="0.00118459381 6.32109375 6.15506104 6.32109375 6.15506104 0.0350730402 0.00118459381 0.0350730402"></polygon>
    </defs>
    <g id="Page-1" stroke="none" stroke-width="1" fill="none" fill-rule="evenodd">
        <g id="Artboard-7" transform="translate(-43.000000, -20.000000)">
            <g id="Page-1" transform="translate(43.000000, 33.000000)">
                <path d="M214.214855,12.9253906 C214.416943,12.7521926 214.443287,12.4444456 214.273731,12.2380168 C214.104175,12.0315879 213.802899,12.0046781 213.600811,12.1778761 L201.583902,22.4778274 L201.595218,22.4922756 C200.586368,21.4081178 199.162204,20.7313995 197.582274,20.7313995 C196.603304,20.7313995 195.684272,20.9918286 194.886174,21.4473086 L194.897666,21.439362 L184.160826,8.36878498 C183.99127,8.16235612 183.689994,8.13526572 183.487729,8.30864429 C183.285818,8.48184226 183.259297,8.78958922 183.428853,8.99601808 L194.101513,21.9882136 L194.113182,21.9802671 C192.852385,23.017107 192.04474,24.6056882 192.04474,26.3878754 C192.04474,26.8762251 192.105384,27.3501265 192.219246,27.8023556 L175.52885,27.8023556 C175.216966,27.8023556 174.964135,28.0207042 174.964135,28.2901634 C174.964135,28.5596226 175.216966,28.7781519 175.52885,28.7781519 L192.562071,28.7781519 L192.557298,28.7644261 C193.436549,30.700848 195.355237,32.0443513 197.582274,32.0443513 C198.741231,32.0443513 199.816559,31.6802563 200.705889,31.0584413 C200.703767,31.0602473 200.702176,31.0613309 200.700054,31.063137 L203.860975,35.1958681 C204.052985,35.4469058 204.377245,35.515896 204.584991,35.3501027 C204.792914,35.1841289 204.805821,34.8460407 204.61381,34.5950029 L201.44016,30.445837 C201.435386,30.4498103 201.431673,30.4528805 201.427076,30.4566732 C202.470226,29.4281409 203.119985,27.9858479 203.119985,26.3878754 C203.119985,25.2210015 202.7738,24.1368436 202.18115,23.2361781 L202.182741,23.2383453 L214.214855,12.9253906 Z" id="Fill-1" fill="#00638D"></path>
                <g id="Group-5" transform="translate(176.097826, 0.121184)">
                    <mask id="mask-2" fill="white">
                        <use xlink:href="#path-1"></use>
                    </mask>
                    <g id="Clip-4"></g>
                    <path d="M8.21929532,4.19012662 C8.21929532,6.47149966 6.40881164,8.32087109 4.1754103,8.32087109 C1.94200895,8.32087109 0.131348469,6.47149966 0.131348469,4.19012662 C0.131348469,1.90875359 1.94200895,0.0593821607 4.1754103,0.0593821607 C6.40881164,0.0593821607 8.21929532,1.90875359 8.21929532,4.19012662" id="Fill-3" fill="#00638D" mask="url(#mask-2)"></path>
                </g>
                <path d="M220.804015,9.9462972 C220.804015,11.6530481 219.445786,13.0366097 217.770284,13.0366097 C216.094783,13.0366097 214.736554,11.6530481 214.736554,9.9462972 C214.736554,8.23954635 216.094783,6.8559847 217.770284,6.8559847 C219.445786,6.8559847 220.804015,8.23954635 220.804015,9.9462972" id="Fill-6" fill="#00638D"></path>
                <g id="Group-10" transform="translate(203.679413, 35.338707)">
                    <mask id="mask-4" fill="white">
                        <use xlink:href="#path-3"></use>
                    </mask>
                    <g id="Clip-9"></g>
                    <path d="M0.00118459381,3.17810146 C0.00118459381,1.44232911 1.37884952,0.0350730402 3.07812282,0.0350730402 C4.77739612,0.0350730402 6.15506104,1.44232911 6.15506104,3.17810146 C6.15506104,4.9138738 4.77739612,6.32112987 3.07812282,6.32112987 C1.37884952,6.32112987 0.00118459381,4.9138738 0.00118459381,3.17810146" id="Fill-8" fill="#00638D" mask="url(#mask-4)"></path>
                </g>
                <path d="M173.55857,28.3416352 C173.55857,30.3750408 171.94487,32.0234014 169.954222,32.0234014 C167.963574,32.0234014 166.349874,30.3750408 166.349874,28.3416352 C166.349874,26.3082296 167.963574,24.659869 169.954222,24.659869 C171.94487,24.659869 173.55857,26.3082296 173.55857,28.3416352" id="Fill-11" fill="#00638D"></path>
                <path d="M14.4096113,40.7549269 C12.2582475,40.7549269 10.298894,40.3937215 8.53084349,39.6713108 C6.76279303,38.9489001 5.2447449,37.8954447 3.97811354,36.5107639 C2.71077497,35.1264444 1.7307446,33.4179431 1.03872965,31.3861629 C0.346007476,29.3543828 0,27.0291233 0,24.4103845 C0,21.7916456 0.390208737,19.4663861 1.17133343,17.434606 C1.95175091,15.4028259 3.00568579,13.6946857 4.33172364,12.310005 C5.65776149,10.9256855 7.20480564,9.87186883 8.97285611,9.14945812 C10.7409066,8.4270474 12.6263556,8.06584205 14.6306176,8.06584205 C15.8972489,8.06584205 17.0395863,8.15614339 18.0562154,8.33674606 C19.0728444,8.51734874 19.9568696,8.72811207 20.7082911,8.96885544 C21.4597125,9.20996002 22.0709276,9.45052278 22.5426434,9.69126615 C23.0136521,9.93237073 23.3382661,10.1129734 23.5150712,10.2330742 L22.2774358,13.8451278 C22.0122283,13.6645251 21.6289149,13.4689324 21.128203,13.2581691 C20.6267839,13.0477669 20.0597702,12.836823 19.4264545,12.6260597 C18.7924316,12.4156576 18.1004166,12.242279 17.3489952,12.106827 C16.5975737,11.971375 15.8385497,11.903649 15.0726302,11.903649 C13.4516815,11.903649 11.9930399,12.1899042 10.6967053,12.7615117 C9.39966349,13.3334804 8.29463195,14.1611824 7.38161069,15.2447985 C6.46788221,16.3284146 5.76826464,17.6453693 5.28205076,19.1954821 C4.79583688,20.7459561 4.55272995,22.4842569 4.55272995,24.4103845 C4.55272995,26.2769131 4.76613364,27.9772874 5.19364824,29.5124101 C5.62045562,31.0475329 6.26137391,32.3644876 7.11640312,33.4630937 C7.9707251,34.562061 9.039158,35.4121578 10.3209946,36.0141066 C11.6028312,36.6164165 13.0980714,36.9171199 14.8074226,36.9171199 C16.7812742,36.9171199 18.4167209,36.7067178 19.7137627,36.2850106 C21.0100973,35.8636645 21.982525,35.4876497 22.6310459,35.1562438 L23.7360775,38.7682974 C23.5295692,38.9191006 23.1614611,39.1069274 22.6310459,39.3326808 C22.1006308,39.5584341 21.4376119,39.7769634 20.6419892,39.9873655 C19.8463665,40.197587 18.91814,40.3781897 17.8573097,40.5291735 C16.7964794,40.6794349 15.6472466,40.7549269 14.4096113,40.7549269" id="Fill-13" fill="#00638D"></path>
                <path d="M43.7148709,28.3384024 C43.7148709,25.6900447 43.1326519,23.5905386 41.9689211,22.039884 C40.8044831,20.4899518 39.2208402,19.7146245 37.2172855,19.7146245 C35.2130235,19.7146245 33.6293807,20.4899518 32.4656498,22.039884 C31.3012118,23.5905386 30.7197,25.6900447 30.7197,28.3384024 C30.7197,30.9874825 31.3012118,33.0869886 32.4656498,34.6369208 C33.6293807,36.1875754 35.2130235,36.9621803 37.2172855,36.9621803 C39.2208402,36.9621803 40.8044831,36.1875754 41.9689211,34.6369208 C43.1326519,33.0869886 43.7148709,30.9874825 43.7148709,28.3384024 M48.0023933,28.3384024 C48.0023933,30.2051117 47.7371857,31.8904959 47.2067706,33.3952774 C46.6763554,34.9007813 45.9318294,36.1946189 44.9746069,37.278235 C44.0166771,38.3618511 42.8750469,39.1971385 41.5490091,39.7840972 C40.2229713,40.3710559 38.7788276,40.6645352 37.2172855,40.6645352 C35.6550361,40.6645352 34.2115997,40.3710559 32.8855618,39.7840972 C31.559524,39.1971385 30.4171866,38.3618511 29.4599641,37.278235 C28.5020343,36.1946189 27.7582155,34.9007813 27.2278003,33.3952774 C26.6973852,31.8904959 26.4321776,30.2051117 26.4321776,28.3384024 C26.4321776,26.5027568 26.6973852,24.8244161 27.2278003,23.3041028 C27.7582155,21.7845118 28.5020343,20.4821859 29.4599641,19.3985698 C30.4171866,18.3149538 31.559524,17.4796664 32.8855618,16.8927077 C34.2115997,16.305749 35.6550361,16.0122696 37.2172855,16.0122696 C38.7788276,16.0122696 40.2229713,16.305749 41.5490091,16.8927077 C42.8750469,17.4796664 44.0166771,18.3149538 44.9746069,19.3985698 C45.9318294,20.4821859 46.6763554,21.7845118 47.2067706,23.3041028 C47.7371857,24.8244161 48.0023933,26.5027568 48.0023933,28.3384024" id="Fill-15" fill="#00638D"></path>
                <path d="M53.7925818,17.2764884 C54.7353063,17.0359256 55.9874396,16.779831 57.549689,16.508927 C59.1112312,16.238023 60.9089849,16.1025709 62.9422429,16.1025709 C64.7689927,16.1025709 66.2863336,16.3664315 67.4949729,16.8927077 C68.7029049,17.4197063 69.6677301,18.1569264 70.3901555,19.1050905 C71.1118737,20.0532545 71.6201882,21.1897872 71.915099,22.513966 C72.2093026,23.8388673 72.3571116,25.2984981 72.3571116,26.893581 L72.3571116,40.0775765 L68.2463943,40.0775765 L68.2463943,27.7965944 C68.2463943,26.351773 68.1503892,25.1178955 67.9590861,24.0942395 C67.7670758,23.0713059 67.4507716,22.243062 67.008759,21.6109526 C66.5667464,20.9788433 65.9769247,20.5202931 65.2407085,20.2338572 C64.5037851,19.9481438 63.5900566,19.8049259 62.5002303,19.8049259 C62.0582177,19.8049259 61.6009998,19.8204577 61.1299912,19.8500765 C60.6582753,19.8804178 60.2086601,19.9178025 59.7818527,19.9629532 C59.3543381,20.0081039 58.9710248,20.0610205 58.6326199,20.1209805 C58.2935078,20.181663 58.0504009,20.2268137 57.9032991,20.2564325 L57.9032991,40.0775765 L53.7925818,40.0775765 L53.7925818,17.2764884 Z" id="Fill-17" fill="#00638D"></path>
                <path d="M93.6616954,26.0808689 C93.6906914,24.1845408 93.2265782,22.6268427 92.2693557,21.4077746 C91.3114259,20.1887065 89.9929907,19.5791725 88.3133427,19.5791725 C87.369911,19.5791725 86.5376897,19.7675411 85.8159715,20.1435559 C85.093546,20.5202931 84.482331,21.0091845 83.9816191,21.6109526 C83.4802,22.2134432 83.0899913,22.9055126 82.8102857,23.6878834 C82.5298729,24.4709767 82.3461724,25.2681569 82.2577699,26.0808689 L93.6616954,26.0808689 Z M77.881845,28.3835531 C77.881845,26.3066223 78.1760486,24.493552 78.7658702,22.9428974 C79.3549846,21.3929652 80.1361093,20.1061711 81.1085371,19.0825151 C82.0809649,18.0595816 83.2004944,17.2920202 84.467833,16.779831 C85.7344643,16.2683642 87.0315062,16.0122696 88.357544,16.0122696 C91.4516323,16.0122696 93.8232952,16.9985408 95.4739471,18.9696385 C97.1238918,20.9414585 97.9492178,23.943978 97.9492178,27.9771971 L97.9492178,28.6770324 C97.9492178,28.9634683 97.9340125,29.2266064 97.9050165,29.4671692 L82.1693674,29.4671692 C82.3461724,31.9053053 83.0381874,33.7564828 84.2468267,35.0207015 C85.4547587,36.2849203 87.340915,36.9170296 89.9045882,36.9170296 C91.3480246,36.9170296 92.5635592,36.7893436 93.5511922,36.533249 C94.538118,36.2778768 95.2819368,36.0295481 95.7833559,35.7882629 L96.3579724,39.3100151 C95.8565532,39.5809192 94.9801306,39.867355 93.7279973,40.1678779 C92.4751567,40.4685813 91.053821,40.6193846 89.4625755,40.6193846 C87.4583135,40.6193846 85.7275689,40.310554 84.2689273,39.6937958 C82.8102857,39.0772183 81.609249,38.2263991 80.6665245,37.142783 C79.7230928,36.0591669 79.0234752,34.7723728 78.5669646,33.2824007 C78.1097467,31.7924286 77.881845,30.159961 77.881845,28.3835531 L77.881845,28.3835531 Z" id="Fill-19" fill="#00638D"></path>
                <path d="M108.977008,39.7164615 C107.577066,39.1145127 106.39813,38.27164 105.440907,37.188024 C104.482978,36.1044079 103.768155,34.8176138 103.297146,33.3276417 C102.82543,31.8376696 102.589926,30.1896702 102.589926,28.3836434 C102.589926,26.5776166 102.847531,24.9223931 103.363448,23.4170697 C103.878658,21.9121076 104.607979,20.6105041 105.55141,19.5115368 C106.494135,18.4129307 107.65097,17.555068 109.021209,16.9379486 C110.391449,16.3211905 111.916392,16.0123599 113.59604,16.0123599 C114.627167,16.0123599 115.658294,16.1026612 116.690128,16.2832639 C117.721255,16.4638666 118.708181,16.7501218 119.651613,17.1411266 L118.723386,20.7080295 C118.104569,20.4073261 117.389746,20.1662215 116.579625,19.9856188 C115.768797,19.8050162 114.906873,19.7147148 113.993851,19.7147148 C111.695386,19.7147148 109.934231,20.4524768 108.711801,21.9270976 C107.488663,23.4020797 106.877448,25.5545024 106.877448,28.3836434 C106.877448,29.6478621 107.016947,30.8067895 107.29736,31.8602449 C107.577066,32.9140616 108.019078,33.817075 108.623398,34.5692851 C109.227011,35.3218565 110.000533,35.9012299 110.943964,36.3075859 C111.886689,36.7139419 113.035922,36.9171199 114.391663,36.9171199 C115.481489,36.9171199 116.469122,36.8118286 117.353147,36.6010653 C118.237173,36.3906631 118.929187,36.1649098 119.430607,35.9238052 L120.005223,39.4455574 C119.769011,39.5963607 119.430607,39.7390368 118.988594,39.8744888 C118.546581,40.0099408 118.045162,40.129861 117.485751,40.2356942 C116.925633,40.3408049 116.328916,40.4311063 115.6956,40.5065982 C115.061577,40.5813677 114.450362,40.6194749 113.861248,40.6194749 C112.004795,40.6194749 110.376243,40.3182296 108.977008,39.7164615 Z" id="Fill-21" fill="#00638D"></path>
                <path d="M128.270682,16.5992283 L136.978331,16.5992283 L136.978331,20.1209805 L128.270682,20.1209805 L128.270682,30.9571413 C128.270682,32.1310587 128.359085,33.1017981 128.53589,33.8693594 C128.712695,34.6369208 128.977902,35.2394114 129.331512,35.6753862 C129.685122,36.1120835 130.127135,36.4203723 130.65755,36.600975 C131.187965,36.7815776 131.806783,36.871879 132.514003,36.871879 C133.751639,36.871879 134.746167,36.7293835 135.497588,36.4429476 C136.24901,36.1572342 136.771822,35.9540562 137.066733,35.8334136 L137.862356,39.3100151 C137.449339,39.5209591 136.727621,39.7840972 135.696494,40.1001519 C134.66466,40.4162065 133.486431,40.5742339 132.160393,40.5742339 C130.598144,40.5742339 129.309412,40.3710559 128.292783,39.9646998 C127.276154,39.5583438 126.45843,38.9488098 125.839613,38.1360977 C125.220795,37.3233857 124.785678,36.3230274 124.535675,35.1335782 C124.284966,33.9448514 124.159965,32.5677559 124.159965,31.0022919 L124.159965,10.0523812 L128.270682,9.3299705 L128.270682,16.5992283 Z" id="Fill-23" fill="#00638D"></path>
                <path d="M149.973148,37.0524817 C150.945576,37.0524817 151.8075,37.0299063 152.558922,36.9847557 C153.310343,36.939605 153.936056,36.8570696 154.437475,36.736427 L154.437475,29.7380732 C154.142565,29.5878117 153.663953,29.4601257 153.000934,29.3542925 C152.337915,29.2491817 151.53469,29.1962651 150.591966,29.1962651 C149.973148,29.1962651 149.317024,29.2414158 148.625009,29.3317171 C147.932287,29.4220185 147.298972,29.6103871 146.724355,29.8961005 C146.149739,30.1825364 145.67042,30.5733606 145.287814,31.0700179 C144.904501,31.5666753 144.713198,32.22136 144.713198,33.0340721 C144.713198,34.539576 145.184206,35.5850849 146.127638,36.1720436 C147.070363,36.7590023 148.352199,37.0524817 149.973148,37.0524817 M149.619538,16.0122696 C151.269483,16.0122696 152.661822,16.2309794 153.796557,16.6669543 C154.930585,17.1036516 155.844313,17.7209515 156.537035,18.5181318 C157.22905,19.3160344 157.722867,20.2641985 158.017778,21.362624 C158.311981,22.4617719 158.45979,23.673074 158.45979,24.9972529 L158.45979,39.6712205 C158.10618,39.731903 157.612364,39.8144384 156.979048,39.9195492 C156.345025,40.0253823 155.630909,40.1227272 154.835287,40.2130285 C154.039664,40.3033299 153.177739,40.3860459 152.249513,40.4613572 C151.321286,40.5363073 150.399955,40.5742339 149.486934,40.5742339 C148.189892,40.5742339 146.996458,40.4387819 145.906632,40.1678779 C144.816098,39.8969738 143.873374,39.4680425 143.077751,38.8810838 C142.282128,38.2941251 141.663311,37.5195202 141.221298,36.5558243 C140.779286,35.5928508 140.558279,34.4337428 140.558279,33.0792227 C140.558279,31.7853851 140.815884,30.6714278 141.331801,29.7380732 C141.847011,28.8054409 142.547336,28.052689 143.431361,27.4805397 C144.315386,26.9091128 145.346513,26.487225 146.52545,26.2163209 C147.703678,25.9454169 148.941314,25.8099649 150.238355,25.8099649 C150.650665,25.8099649 151.078179,25.8325403 151.520192,25.8776909 C151.962205,25.9228416 152.382117,25.9835241 152.779928,26.0582936 C153.177739,26.1337855 153.523747,26.2015115 153.818658,26.2614716 C154.112861,26.3221541 154.31937,26.3673048 154.437475,26.3969236 L154.437475,25.2230062 C154.437475,24.5309367 154.363571,23.8459108 154.216469,23.1686507 C154.06866,22.4913907 153.803452,21.8896226 153.420846,21.362624 C153.037533,20.8363478 152.51472,20.4144599 151.851702,20.0984052 C151.188683,19.7823505 150.326758,19.6243232 149.265928,19.6243232 C147.910187,19.6243232 146.724355,19.7223904 145.707726,19.9178025 C144.691097,20.113937 143.932073,20.317115 143.431361,20.5273366 L142.945147,17.050735 C143.475562,16.8101722 144.359588,16.576653 145.597223,16.3508996 C146.834858,16.1251463 148.175394,16.0122696 149.619538,16.0122696" id="Fill-25" fill="#00638D"></path>
            </g>
        </g>
    </g>
</svg>