<?xml version="1.0" encoding="UTF-8" standalone="no"?>
<svg width="500px" height="176px" viewBox="0 0 500 176" version="1.1" xmlns="http://www.w3.org/2000/svg" xmlns:xlink="http://www.w3.org/1999/xlink" xmlns:sketch="http://www.bohemiancoding.com/sketch/ns">
    <!-- Generator: Sketch 3.3 (11970) - http://www.bohemiancoding.com/sketch -->
    <title>Artboard 1</title>
    <desc>Created with Sketch.</desc>
    <defs></defs>
    <g id="Page-1" stroke="none" stroke-width="1" fill="none" fill-rule="evenodd" sketch:type="MSPage">
        <g id="Artboard-1" sketch:type="MSArtboardGroup" fill="#FFFFFF">
            <g id="Imported-Layers" sketch:type="MSLayerGroup" transform="translate(5.000000, 8.654833)">
                <path d="M466.979129,27.346579 C467.419389,26.977192 467.476781,26.3208463 467.107394,25.8805863 C466.738007,25.4403263 466.081661,25.3829346 465.641401,25.7523216 L439.461916,47.7194856 L439.486567,47.7503 C437.288734,45.4384535 434.186114,43.9948012 430.744537,43.9948012 C428.611413,43.9948012 426.609251,44.550615 424.870551,45.5216522 L424.895588,45.5047043 L401.504801,17.6285037 C401.135414,17.1882437 400.479069,17.130852 400.038809,17.500239 C399.598549,17.869626 399.540772,18.5259716 399.910544,18.9662316 L423.161125,46.6756496 L423.186932,46.6583165 C420.439833,48.8696312 418.680334,52.2576688 418.680334,56.0586188 C418.680334,57.1005289 418.812451,58.1112396 419.060506,59.0753435 L382.699575,59.0753435 C382.020118,59.0753435 381.469312,59.5410253 381.469312,60.1160981 C381.469312,60.6907857 382.020118,61.1564676 382.699575,61.1564676 L419.807369,61.1564676 L419.796969,61.1275791 C421.712466,65.257087 425.892432,68.1228215 430.744537,68.1228215 C433.269002,68.1228215 435.612048,67.3459147 437.549115,66.0201274 C437.544493,66.023594 437.541026,66.0262902 437.536404,66.0297568 L444.422641,74.8438161 C444.840946,75.3792154 445.547365,75.5267391 445.99995,75.1727593 C446.452921,74.8187795 446.481039,74.0981089 446.062735,73.5623244 L439.148765,64.7132138 C439.138365,64.7216877 439.130662,64.7282358 439.120262,64.7367097 C441.39282,62.5427281 442.808354,59.4670709 442.808354,56.0586188 C442.808354,53.5699749 442.054173,51.2577432 440.763052,49.3368538 L440.766518,49.3414759 L466.979129,27.346579" id="Fill-1" sketch:type="MSShapeGroup"></path>
                <path d="M401.8453,8.97506425 C401.8453,13.8406499 397.901063,17.7848866 393.035477,17.7848866 C388.169892,17.7848866 384.22527,13.8406499 384.22527,8.97506425 C384.22527,4.10947858 388.169892,0.165241945 393.035477,0.165241945 C397.901063,0.165241945 401.8453,4.10947858 401.8453,8.97506425" id="Fill-2" sketch:type="MSShapeGroup"></path>
                <path d="M479.415415,20.0520523 C479.415415,23.1723903 476.885943,25.7018631 473.765605,25.7018631 C470.645267,25.7018631 468.115794,23.1723903 468.115794,20.0520523 C468.115794,16.9317143 470.645267,14.4022414 473.765605,14.4022414 C476.885943,14.4022414 479.415415,16.9317143 479.415415,20.0520523" id="Fill-3" sketch:type="MSShapeGroup"></path>
                <path d="M445.185296,81.9264942 C445.185296,78.2245353 448.186228,75.223603 451.888572,75.223603 C455.590531,75.223603 458.591849,78.2245353 458.591849,81.9264942 C458.591849,85.6288382 455.590531,88.6297706 451.888572,88.6297706 C448.186228,88.6297706 445.185296,85.6288382 445.185296,81.9264942" id="Fill-4" sketch:type="MSShapeGroup"></path>
                <path d="M378.407136,60.2254891 C378.407136,64.5622235 374.891604,68.0777555 370.554869,68.0777555 C366.218135,68.0777555 362.702603,64.5622235 362.702603,60.2254891 C362.702603,55.8887547 366.218135,52.3732227 370.554869,52.3732227 C374.891604,52.3732227 378.407136,55.8887547 378.407136,60.2254891" id="Fill-5" sketch:type="MSShapeGroup"></path>
                <path d="M31.6925577,86.700022 C27.0056952,86.700022 22.7371376,85.9296632 18.885344,84.3885606 C15.0335504,82.8478432 11.7264004,80.6014772 8.96697548,77.6479218 C6.20600984,74.6959072 4.07096065,71.0517253 2.56336864,66.7184575 C1.05423591,62.3851897 0.3004399,57.4260055 0.3004399,51.8409048 C0.3004399,46.2558041 1.15053075,41.2966198 2.85225316,36.963352 C4.55243485,32.6300842 6.84848901,28.987443 9.7373342,26.0338877 C12.6261794,23.0818731 15.9964988,20.8339664 19.8482924,19.2932489 C23.700086,17.7525315 27.8076387,16.9821728 32.1740319,16.9821728 C34.9334568,16.9821728 37.4221006,17.1747624 39.636882,17.5599418 C41.8516633,17.9451212 43.7775601,18.3950107 45.4145723,18.9080696 C47.0515846,19.4226692 48.3831497,19.9357281 49.4108082,20.448787 C50.436926,20.9633866 51.1441153,21.348566 51.5292947,21.6043251 L48.8330392,29.3079123 C48.2552701,28.9227329 47.4202013,28.5059688 46.3293733,28.0560793 C45.2370047,27.6077306 44.0017345,27.1578411 42.622022,26.7079516 C41.2407688,26.2596028 39.7331768,25.8894455 38.0961645,25.6005609 C36.4591522,25.3116764 34.8055773,25.1672342 33.1369803,25.1672342 C29.6056559,25.1672342 26.4279262,25.7781286 23.6037911,26.9968361 C20.7781154,28.2170843 18.3707444,29.9819761 16.3816781,32.2930523 C14.3910712,34.6041285 12.8669165,37.4132415 11.8076733,40.7188508 C10.74843,44.0260008 10.2188084,47.7333521 10.2188084,51.8409048 C10.2188084,55.8221186 10.6837199,59.4481971 11.6150836,62.7222217 C12.5449066,65.9962462 13.9411817,68.8053593 15.8039091,71.1480202 C17.6650958,73.4922217 19.9927346,75.305261 22.785285,76.5886786 C25.5778353,77.873637 28.8352972,78.5145754 32.5592112,78.5145754 C36.8593536,78.5145754 40.4222627,78.0662266 43.2479385,77.1664476 C46.0720735,76.2682094 48.19056,75.466266 49.6033979,74.7590767 L52.0107689,82.4626638 C51.5608794,82.7846738 50.758936,83.1848751 49.6033979,83.6663493 C48.4478598,84.1478235 47.0034372,84.6142757 45.2701301,85.0626245 C43.536823,85.5113585 41.5146313,85.8965378 39.2035552,86.2185478 C36.892479,86.539017 34.3888132,86.700022 31.6925577,86.700022" id="Fill-6" sketch:type="MSShapeGroup"></path>
                <path d="M104.876251,60.2185558 C104.876251,64.1997697 104.298482,67.7942635 103.142944,71.0035779 C101.987406,74.214433 100.365415,76.973858 98.2800542,79.2849341 C96.1931525,81.5960103 93.7060493,83.3774648 90.8172041,84.6292977 C87.9283589,85.8815158 84.7822139,86.5074323 81.3803098,86.5074323 C77.976865,86.5074323 74.8322607,85.8815158 71.9434155,84.6292977 C69.0545703,83.3774648 66.5659265,81.5960103 64.4805655,79.2849341 C62.3936637,76.973858 60.7732141,74.214433 59.617676,71.0035779 C58.462138,67.7942635 57.8843689,64.1997697 57.8843689,60.2185558 C57.8843689,56.3035928 58.462138,52.724121 59.617676,49.4816812 C60.7732141,46.2407821 62.3936637,43.4632537 64.4805655,41.1521776 C66.5659265,38.8411014 69.0545703,37.0596469 71.9434155,35.807814 C74.8322607,34.555981 77.976865,33.9300646 81.3803098,33.9300646 C84.7822139,33.9300646 87.9283589,34.555981 90.8172041,35.807814 C93.7060493,37.0596469 96.1931525,38.8411014 98.2800542,41.1521776 C100.365415,43.4632537 101.987406,46.2407821 103.142944,49.4816812 C104.298482,52.724121 104.876251,56.3035928 104.876251,60.2185558 L104.876251,60.2185558 Z M95.5356513,60.2185558 C95.5356513,54.5702857 94.2672557,50.0925757 91.7320051,46.7854257 C89.1952139,43.4798164 85.7451623,41.8262414 81.3803098,41.8262414 C77.0139166,41.8262414 73.5638651,43.4798164 71.0286146,46.7854257 C68.4918233,50.0925757 67.2249684,54.5702857 67.2249684,60.2185558 C67.2249684,65.8683667 68.4918233,70.3460767 71.0286146,73.651686 C73.5638651,76.958836 77.0139166,78.6108702 81.3803098,78.6108702 C85.7451623,78.6108702 89.1952139,76.958836 91.7320051,73.651686 C94.2672557,70.3460767 95.5356513,65.8683667 95.5356513,60.2185558 L95.5356513,60.2185558 Z" id="Fill-7" sketch:type="MSShapeGroup"></path>
                <path d="M117.49049,36.6263201 C119.544266,36.1132612 122.272106,35.5670769 125.675551,34.9893078 C129.077455,34.4115388 132.993959,34.1226543 137.423521,34.1226543 C141.403195,34.1226543 144.708804,34.6854013 147.34189,35.807814 C149.973435,36.9317673 152.075359,38.5040695 153.649202,40.5262611 C155.221504,42.5484527 156.328895,44.9723864 156.971374,47.7965215 C157.612312,50.6221973 157.934322,53.7352169 157.934322,57.137121 L157.934322,85.2552142 L148.978902,85.2552142 L148.978902,59.0630178 C148.978902,55.9815829 148.76975,53.3500375 148.352986,51.1668409 C147.934681,48.985185 147.245595,47.2187525 146.282647,45.8706247 C145.319698,44.522497 144.03474,43.5445266 142.430853,42.9336321 C140.825426,42.3242784 138.834819,42.0188311 136.460573,42.0188311 C135.497625,42.0188311 134.501551,42.0519565 133.475433,42.115126 C132.447774,42.1798361 131.468263,42.2595682 130.53844,42.3558631 C129.607077,42.4521579 128.772008,42.5650154 128.034775,42.692895 C127.296001,42.8223153 126.766379,42.9186101 126.44591,42.9817795 L126.44591,85.2552142 L117.49049,85.2552142 L117.49049,36.6263201" id="Fill-8" sketch:type="MSShapeGroup"></path>
                <path d="M169.970407,60.3148507 C169.970407,55.8852881 170.611345,52.0184725 171.896304,48.7113225 C173.179721,45.4057132 174.881444,42.6613103 176.99993,40.4781137 C179.118417,38.2964578 181.557372,36.6594455 184.318338,35.5670769 C187.077763,34.4762489 189.903439,33.9300646 192.792284,33.9300646 C199.532923,33.9300646 204.699719,36.0335291 208.295753,40.2373766 C211.890247,44.4427648 213.688264,50.8463717 213.688264,59.4481971 L213.688264,60.9407671 C213.688264,61.5516616 213.655139,62.1128679 213.591969,62.6259268 L179.311006,62.6259268 C179.696186,67.8258482 181.203778,71.7739366 183.836864,74.4701921 C186.468409,77.1664476 190.577503,78.5145754 196.162603,78.5145754 C199.307208,78.5145754 201.955316,78.2422536 204.106928,77.6960693 C206.256999,77.1514257 207.877448,76.621804 208.969817,76.1072044 L210.22165,83.6182019 C209.129281,84.195971 207.219947,84.8068654 204.492107,85.4478039 C201.762726,86.0891275 198.666269,86.4111374 195.199655,86.4111374 C190.833262,86.4111374 187.062741,85.7520956 183.885011,84.4367081 C180.707282,83.1217057 178.090758,81.3071258 176.036982,78.9960496 C173.981665,76.6849734 172.45751,73.9405705 171.462977,70.7628408 C170.466903,67.5851111 169.970407,64.1034749 169.970407,60.3148507 L169.970407,60.3148507 Z M204.347665,55.4038139 C204.410834,51.3594306 203.399738,48.0372586 201.314377,45.4372979 C199.227476,42.8373373 196.355193,41.5373569 192.695989,41.5373569 C190.640672,41.5373569 188.827633,41.939099 187.255331,42.7410424 C185.681488,43.5445266 184.349923,44.5872071 183.259095,45.8706247 C182.166726,47.1555831 181.316635,48.6315904 180.707282,50.3001873 C180.096387,51.970325 179.696186,53.6705067 179.503596,55.4038139 L204.347665,55.4038139 L204.347665,55.4038139 Z" id="Fill-9" sketch:type="MSShapeGroup"></path>
                <path d="M248.353251,86.4111374 C244.308868,86.4111374 240.761366,85.7686583 237.712671,84.4848555 C234.663206,83.2014378 232.094445,81.4034206 230.009084,79.0923444 C227.922567,76.7812683 226.364902,74.0368654 225.338784,70.8591356 C224.311511,67.6814059 223.798067,64.1666443 223.798067,60.3148507 C223.798067,56.4630571 224.359658,52.9332734 225.483227,49.7224183 C226.605639,46.5131039 228.194889,43.7371162 230.249821,41.3929147 C232.303983,39.0502538 234.823826,37.2206518 237.808966,35.9041088 C240.794106,34.5891065 244.116278,33.9300646 247.775482,33.9300646 C250.022233,33.9300646 252.268599,34.1226543 254.516121,34.5078336 C256.762872,34.893013 258.912558,35.5039074 260.967875,36.3374356 L258.945683,43.9447279 C257.597556,43.3037895 256.040661,42.7891898 254.275384,42.4040105 C252.508951,42.0188311 250.631202,41.8262414 248.642136,41.8262414 C243.634804,41.8262414 239.798032,43.4000843 237.134902,46.5446886 C234.470617,49.6908336 233.138666,54.2814012 233.138666,60.3148507 C233.138666,63.0111062 233.442573,65.4831873 234.053467,67.7295533 C234.663206,69.9774601 235.626155,71.9033569 236.942312,73.5072437 C238.257315,75.1126713 239.942474,76.3479415 241.997792,77.2145951 C244.051953,78.0812486 246.555619,78.5145754 249.508789,78.5145754 C251.883035,78.5145754 254.034647,78.290401 255.960543,77.8405115 C257.88644,77.3921628 259.394032,76.9106886 260.486401,76.3960889 L261.738234,83.9070864 C261.224019,84.2290964 260.486401,84.5330029 259.523452,84.8218874 C258.560504,85.1107719 257.468135,85.366531 256.249428,85.5926313 C255.029565,85.8168057 253.729584,86.0093954 252.349487,86.1704003 C250.968234,86.3298646 249.637054,86.4111374 248.353251,86.4111374" id="Fill-10" sketch:type="MSShapeGroup"></path>
                <path d="M279.745369,35.1818975 L298.715452,35.1818975 L298.715452,42.692895 L279.745369,42.692895 L279.745369,65.8036566 C279.745369,68.3073224 279.937958,70.3776614 280.323138,72.0146737 C280.708317,73.651686 281.286086,74.9366443 282.056445,75.8664673 C282.826804,76.797831 283.789752,77.4553322 284.94529,77.8405115 C286.100828,78.2256909 287.448956,78.4182806 288.989673,78.4182806 C291.685929,78.4182806 293.852563,78.1143741 295.489575,77.5034796 C297.126587,76.8941258 298.265178,76.4607991 298.908042,76.2034992 L300.641349,83.6182019 C299.74157,84.0680914 298.168883,84.6292977 295.922902,85.3033616 C293.674995,85.9778107 291.10816,86.3148426 288.219315,86.3148426 C284.815485,86.3148426 282.008297,85.8815158 279.793516,85.0144771 C277.578735,84.1478235 275.79728,82.8478432 274.449153,81.1145361 C273.101025,79.381229 272.153098,77.2477205 271.608455,74.7109292 C271.061885,72.1756787 270.789949,69.2386861 270.789949,65.8999514 L270.789949,21.2191457 L279.745369,19.6784283 L279.745369,35.1818975" id="Fill-11" sketch:type="MSShapeGroup"></path>
                <path d="M326.255006,33.9300646 C329.849115,33.9300646 332.882402,34.3965168 335.354868,35.3263398 C337.825409,36.2577034 339.815631,37.5742465 341.325148,39.2744282 C342.83274,40.9761506 343.908161,42.9983422 344.551026,45.3410031 C345.191964,47.6852047 345.513974,50.2686026 345.513974,53.0927377 L345.513974,84.3885606 C344.743615,84.5179809 343.667424,84.6940079 342.288097,84.9181823 C340.906844,85.1438974 339.351104,85.351509 337.617797,85.5444839 C335.88449,85.7370736 334.006741,85.9131005 331.984549,86.0741055 C329.962357,86.2335698 327.955188,86.3148426 325.966122,86.3148426 C323.140446,86.3148426 320.540485,86.0259581 318.166239,85.4478039 C315.790068,84.8700348 313.736677,83.9552339 312.00337,82.7034009 C310.270063,81.451568 308.921935,79.7995337 307.958986,77.7442167 C306.996038,75.6904403 306.514564,73.2183592 306.514564,70.329514 C306.514564,67.5700891 307.075385,65.1943028 308.199724,63.2036959 C309.322136,61.2146297 310.847832,59.6092021 312.773728,58.3889539 C314.699625,57.1702464 316.945606,56.2704674 319.514367,55.6926984 C322.081202,55.1149293 324.777458,54.8260448 327.603134,54.8260448 C328.500987,54.8260448 329.432736,54.8741922 330.395684,54.9704871 C331.358633,55.0667819 332.273434,55.1962022 333.140087,55.3556664 C334.006741,55.5166714 334.760151,55.6611137 335.403016,55.7889932 C336.043954,55.9184135 336.493459,56.0147083 336.751144,56.0778777 L336.751144,53.5742119 C336.751144,52.0982046 336.589753,50.6372193 336.269669,49.1927967 C335.947659,47.7483741 335.36989,46.4649565 334.536362,45.3410031 C333.700908,44.2185904 332.562318,43.3188115 331.117895,42.6447476 C329.673473,41.9706837 327.795723,41.6336518 325.484647,41.6336518 C322.530707,41.6336518 319.947694,41.8428042 317.732913,42.2595682 C315.518131,42.677873 313.864171,43.1111998 312.773728,43.5595486 L311.714485,36.1448459 C312.870023,35.631787 314.79592,35.1337501 317.492176,34.6522759 C320.188431,34.1708017 323.108476,33.9300646 326.255006,33.9300646 L326.255006,33.9300646 Z M327.025365,78.8034599 C329.143851,78.8034599 331.021601,78.7553125 332.658613,78.6590177 C334.295625,78.5627228 335.658775,78.3866959 336.751144,78.129396 L336.751144,63.2036959 C336.108279,62.8832266 335.065984,62.6109048 333.621561,62.3851897 C332.177139,62.1610154 330.426884,62.0481578 328.373493,62.0481578 C327.025365,62.0481578 325.595964,62.1444526 324.088372,62.3370423 C322.578854,62.529632 321.199527,62.9313741 319.947694,63.5407278 C318.695861,64.1516223 317.65164,64.9851504 316.818112,66.0443937 C315.982658,67.1036369 315.566279,68.4999121 315.566279,70.2332192 C315.566279,73.4440743 316.592397,75.6738776 318.647714,76.9257105 C320.701105,78.1775435 323.493655,78.8034599 327.025365,78.8034599 L327.025365,78.8034599 Z" id="Fill-12" sketch:type="MSShapeGroup"></path>
            </g>
        </g>
    </g>
</svg>