
<svg width="1000px" height="1001px" viewBox="-407 -262 1000 1001" version="1.1" xmlns="http://www.w3.org/2000/svg" xmlns:xlink="http://www.w3.org/1999/xlink">
    <!-- Generator: Sketch 3.8.3 (29802) - http://www.bohemiancoding.com/sketch -->
    <desc>Created with Sketch.</desc>
    <defs>
        <polygon id="path-1" points="0 0.578228087 0 999.057022 999.420472 999.057022 999.420472 0.578228087 5.11416119e-20 0.578228087"></polygon>
    </defs>
    <g id="Page-1" stroke="none" stroke-width="1" fill="none" fill-rule="evenodd" transform="translate(-407.000000, -262.000000)">
        <g id="Group-3" transform="translate(0.000000, 0.367578)">
            <mask id="mask-2" fill="white">
                <use xlink:href="#path-1"></use>
            </mask>
            <use id="Clip-2" fill="#00CD56" xlink:href="#path-1"></use>
        </g>
        <path d="M714.092576,607.481969 L712.692162,606.693864 L711.730444,606.160943 L710.397275,605.409633 L710.335367,605.54494 L520.690239,498.870684 L519.867282,499.076019 C507.7759,502.086009 497.150043,505.152971 489.131817,507.945758 L488.162628,508.282839 L487.716459,509.295269 C473.990905,540.48238 451.11676,568.399567 446.670018,573.680107 C439.972152,581.626434 430.506547,586.185336 420.70258,586.185336 C411.623369,586.185336 402.977519,582.381306 396.35864,575.472333 C382.064167,560.561248 381.329804,535.483137 394.722333,519.569117 C405.579813,506.643724 422.699664,481.602406 426.78136,466.395782 C429.576851,455.964076 436.204269,447.184541 444.962195,442.31111 C446.849339,441.261886 452.017636,438.396698 455.095986,436.683994 L366.007435,443.385259 C364.214222,443.515818 362.475445,443.830348 360.799645,444.295615 C357.919829,444.531809 355.07844,444.890254 352.269072,445.372137 C303.814951,408.457024 161.137071,277.276745 107.317186,227.65819 L15.7245409,392.88602 C76.8069406,435.06743 238.428839,584.864311 270.863587,612.766069 C272.120971,613.842591 273.577957,615.03187 274.930339,616.057356 C286.229718,640.047075 304.727569,659.164551 327.232397,669.830078 C328.288045,670.635986 329.395995,671.387297 330.560516,672.061459 L342.833354,679.090309 C344.415224,675.585379 346.493431,672.285784 349.074377,669.324456 L354.678169,662.893806 C361.439011,655.131449 370.516086,650.857404 380.239999,650.857404 C389.53589,650.857404 398.331175,654.82048 405.006625,662.01431 C407.706052,664.923413 409.967849,668.289475 411.732243,672.021104 L413.167881,675.063141 L426.285024,661.479015 C432.894296,654.629388 441.51026,650.857404 450.539303,650.857404 C460.382763,650.857404 469.875053,655.447165 476.581458,663.451651 C479.765479,667.25212 482.208733,671.613996 483.84077,676.412652 L484.812094,679.267158 L487.206248,677.772845 C492.461003,674.491053 498.47147,672.755798 504.588676,672.755798 C513.994508,672.755798 522.86024,676.798396 529.561308,684.140589 C539.128315,694.61265 542.582386,709.927282 538.583947,724.107234 L537.88374,726.592613 L540.112448,727.390213 C544.986146,729.137337 549.381653,731.975226 553.175154,735.823171 C560.198573,742.946974 564.305886,752.685528 564.74138,763.24542 C565.176875,773.805312 561.889317,783.922488 555.482849,791.732322 L550.395673,797.932713 L561.602189,804.344372 C566.031854,806.881975 570.760387,808.080749 575.419539,808.080749 C586.379489,808.080749 596.955179,801.430521 602.312404,789.855825 C606.876559,779.986712 606.625722,768.787078 602.525881,759.537529 L611.186675,764.788396 C615.776448,767.561006 620.717391,768.874909 625.603898,768.874909 C636.32155,768.874909 646.698705,762.522595 652.184017,751.314653 C657.967131,739.484773 656.699072,725.504221 649.972387,715.337194 L654.881309,717.917526 C659.051598,720.114486 663.450308,721.154215 667.777502,721.154215 C679.108903,721.154215 689.959979,714.041094 695.129344,701.896685 C699.604906,691.362904 698.731782,679.54252 693.72893,670.241934 C695.94056,670.809274 698.190615,671.09057 700.42466,671.09057 C711.455058,671.09057 722.093723,664.344204 727.41359,652.647257 C734.951491,636.084 728.987989,615.86389 714.092576,607.481969" id="Fill-4" fill="#FFFFFF"></path>
        <path d="M549.558306,740.228725 C543.82536,734.412891 536.631159,731.516843 529.438025,731.45275 C537.664391,718.268612 536.428355,700.030633 525.796094,688.388284 C513.907516,675.360817 494.771367,675.519862 483.056773,688.743168 L480.749078,691.344864 C480.959354,682.835943 478.285544,674.235631 472.656135,667.51775 C461.277769,653.937185 442.152294,653.190622 429.940297,665.843027 L410.222421,686.266098 C409.400532,678.929839 406.421449,671.844018 401.272365,666.297612 C389.287722,653.378153 370.147303,653.709299 358.530909,667.042988 L352.927118,673.474825 C341.310724,686.803766 341.609593,708.081408 353.594236,720.998493 C359.469144,727.322322 367.05401,730.472367 374.62927,730.472367 C376.624219,730.472367 378.613832,730.251603 380.577828,729.818383 C380.141266,738.622842 382.795862,747.611272 388.632345,754.577217 C394.585173,761.679655 402.656768,765.273603 410.753981,765.273603 C416.843435,765.273603 422.926484,763.204828 428.147084,759.102885 C426.45634,769.64616 429.308403,780.902765 436.686195,788.982026 C442.573913,795.43048 450.234563,798.650553 457.896281,798.650553 C465.707433,798.650553 473.511114,795.301107 479.43192,788.623581 L482.4569,785.204108 C482.46544,794.31835 485.779682,803.39105 492.3089,810.011605 C498.104822,815.892719 505.399358,818.789953 512.670412,818.789953 C520.872228,818.789953 529.046293,815.099866 535.010862,807.832448 L551.520167,787.713225 C562.769379,773.99854 561.89412,752.739888 549.558306,740.228725" id="Fill-6" fill="#FFFFFF"></path>
        <path d="M851.183208,207.367578 L973.910522,352.838191 C917.829907,397.688949 739.538595,580.752398 732.054063,587.375326 C726.515382,592.274869 720.582834,596.254561 714.421865,599.38799 C714.185972,599.85207 713.957551,600.306654 713.721658,600.761239 L712.762076,600.218823 L705.429114,596.099077 L521.410193,492.584362 L521.401653,492.584362 C508.057157,495.838855 494.270761,499.697482 484.292809,503.416055 C470.894943,535.692744 445.973546,565.781967 442.756436,569.604988 C436.808945,576.657576 428.75763,580.218291 420.699911,580.218291 C413.28903,580.218291 405.86107,577.209487 400.032059,571.127787 C387.86596,558.431466 387.244739,537.188244 398.639116,523.64566 C409.087787,511.211646 427.350812,485.128226 431.920304,468.102076 C434.306985,459.205038 439.901171,451.802313 447.360085,447.645772 C462.947165,438.975433 488.614667,431.661725 508.828879,426.787107 L508.835283,426.787107 C522.133882,423.586025 533.070349,421.431793 537.224627,420.637753 C539.122445,420.278121 541.056553,420.120263 542.976786,420.172487 L623.328758,422.151057 C626.31211,422.221084 629.190858,422.780117 631.897757,423.742696 C635.71474,424.12844 639.507172,424.721893 643.259045,425.553913 C652.64673,418.352962 790.045305,269.969684 851.183208,207.367578" id="Fill-8" fill="#FFFFFF"></path>
    </g>
</svg>