<?xml version="1.0" encoding="UTF-8" standalone="no"?>
<svg width="962px" height="300px" viewBox="0 0 962 300" version="1.1" xmlns="http://www.w3.org/2000/svg" xmlns:xlink="http://www.w3.org/1999/xlink">
    <!-- Generator: Sketch 3.8.2 (29753) - http://www.bohemiancoding.com/sketch -->
    <title>Artboard 3</title>
    <desc>Created with Sketch.</desc>
    <defs></defs>
    <g id="Page-1" stroke="none" stroke-width="1" fill="none" fill-rule="evenodd">
        <g id="Artboard-3">
            <g id="Page-1" transform="translate(13.000000, 15.000000)">
                <path d="M394.589832,140.652311 L394.589832,144.367154 L337.203692,144.367154 C332.940389,144.367154 329.447503,142.975326 326.821645,140.228819 C321.374228,134.53025 321.740858,125.056163 321.758198,124.658674 L321.75696,47.9694606 C321.75696,43.9264734 320.481189,40.5546344 317.968045,38.1214124 C312.424017,32.7559412 302.681094,32.9218708 302.583243,32.9218708 L255.86527,32.9218708 L255.86527,30.445309 L302.529983,30.445309 C302.933771,30.445309 313.81374,29.8484576 320.342465,36.1686434 C323.518266,39.2420567 325.227551,43.0064307 325.227551,47.9694606 L325.227551,124.73421 C325.227551,124.89271 324.816332,133.081461 329.296392,137.755972 C331.27941,139.825139 333.874302,140.652311 337.203692,140.652311 L394.589832,140.652311 Z" id="Fill-7" fill="#FFFFFF"></path>
                <path d="M596.711023,187.746239 C600.930975,187.746239 612.307628,186.997079 620.356129,179.494335 C625.884055,174.34061 628.687035,167.105335 628.687035,157.987872 L628.687035,113.409759 L623.732586,113.409759 L623.732586,157.987872 C623.732586,165.676358 621.459733,171.693165 616.977195,175.872363 C608.694596,183.591807 595.551682,182.772065 595.417912,182.759682 L595.244506,182.753491 L520.927777,182.753491 L520.927777,187.706614 L595.166474,187.706614 C595.389424,187.706614 595.926982,187.746239 596.711023,187.746239" id="Fill-9" fill="#FFFFFF"></path>
                <path d="M243.354668,13.4370253 L148.725937,13.3813026 C142.760781,13.3775878 137.954966,18.1994537 137.952489,24.1580615 L137.871979,161.347204 C137.868263,167.287238 142.667885,172.128916 148.633041,172.132631 L243.261772,172.187116 C249.208349,172.19083 254.036459,167.360297 254.040175,161.41531 L254.120685,24.2261669 C254.128116,18.2675591 249.301245,13.4407401 243.354668,13.4370253" id="Fill-11" fill="#005C7B"></path>
                <path d="M195.954095,168.120477 C192.412903,168.118001 189.551709,165.253857 189.554186,161.718565 C189.555425,158.179558 192.420335,155.312938 195.961527,155.315414 C199.49281,155.317891 202.363913,158.186988 202.361436,161.725995 C202.360197,165.261287 199.485378,168.122954 195.954095,168.120477" id="Fill-13" fill="#FFFFFF"></path>
                <polygon id="Fill-15" fill="#FFFFFF" points="243.14881 149.734358 148.781427 149.678636 148.853267 26.33595 243.22065 26.3916726"></polygon>
                <polygon id="Fill-17" fill="#FFFFFF" points="580.381656 114.64804 738.924012 114.64804 738.924012 14.3472856 580.381656 14.3472856"></polygon>
                <polygon id="Stroke-19" stroke="#9B9B9A" stroke-width="3" points="579.76235 114.0289 738.304706 114.0289 738.304706 13.7281451 579.76235 13.7281451"></polygon>
                <polygon id="Fill-20" fill="#9B9B9A" points="580.381656 29.2066566 738.924012 29.2066566 738.924012 14.3472856 580.381656 14.3472856"></polygon>
                <path d="M592.86154,21.7556727 C592.86154,23.2626605 591.63903,24.4848438 590.131639,24.4848438 C588.624248,24.4848438 587.401738,23.2626605 587.401738,21.7556727 C587.401738,20.2486848 588.624248,19.0265015 590.131639,19.0265015 C591.63903,19.0265015 592.86154,20.2486848 592.86154,21.7556727" id="Fill-21" fill="#E62828"></path>
                <path d="M601.181546,21.7556727 C601.181546,23.2626605 599.959036,24.4848438 598.451645,24.4848438 C596.944254,24.4848438 595.721744,23.2626605 595.721744,21.7556727 C595.721744,20.2486848 596.944254,19.0265015 598.451645,19.0265015 C599.959036,19.0265015 601.181546,20.2486848 601.181546,21.7556727" id="Fill-22" fill="#FFD500"></path>
                <path d="M609.501552,21.7556727 C609.501552,23.2626605 608.279041,24.4848438 606.77165,24.4848438 C605.264259,24.4848438 604.041749,23.2626605 604.041749,21.7556727 C604.041749,20.2486848 605.264259,19.0265015 606.77165,19.0265015 C608.279041,19.0265015 609.501552,20.2486848 609.501552,21.7556727" id="Fill-23" fill="#6FB107"></path>
                <polygon id="Fill-24" fill="#FFFFFF" points="613.824184 24.2535329 696.811199 24.2535329 696.811199 19.3004093 613.824184 19.3004093"></polygon>
                <polygon id="Fill-25" fill="#FFFFFF" points="700.527035 24.2535329 735.208176 24.2535329 735.208176 19.3004093 700.527035 19.3004093"></polygon>
                <polygon id="Fill-26" fill="#B4F061" points="597.722226 91.1207026 605.153899 91.1207026 605.153899 45.3043086 597.722226 45.3043086"></polygon>
                <polygon id="Fill-27" fill="#B4F061" points="606.392511 91.1207026 611.34696 91.1207026 611.34696 53.972275 606.392511 53.972275"></polygon>
                <polygon id="Fill-28" fill="#B4F061" points="613.824184 91.1207026 620.017245 91.1207026 620.017245 50.2574322 613.824184 50.2574322"></polygon>
                <polygon id="Fill-29" fill="#B4F061" points="643.550876 91.1207026 648.505325 91.1207026 648.505325 56.4488368 643.550876 56.4488368"></polygon>
                <polygon id="Fill-30" fill="#B4F061" points="649.743937 91.1207026 655.936998 91.1207026 655.936998 44.0660276 649.743937 44.0660276"></polygon>
                <polygon id="Fill-31" fill="#B4F061" points="657.17561 91.1207026 663.368671 91.1207026 663.368671 67.5933651 657.17561 67.5933651"></polygon>
                <polygon id="Fill-32" fill="#00B3C5" points="621.255857 91.1207026 627.448918 91.1207026 627.448918 68.831646 621.255857 68.831646"></polygon>
                <polygon id="Fill-33" fill="#00B3C5" points="628.68753 91.1207026 634.880591 91.1207026 634.880591 61.4019605 628.68753 61.4019605"></polygon>
                <polygon id="Fill-34" fill="#00B3C5" points="636.119203 91.1207026 642.312264 91.1207026 642.312264 77.4996124 636.119203 77.4996124"></polygon>
                <polygon id="Fill-35" fill="#00B3C5" points="664.607283 91.1207026 670.800344 91.1207026 670.800344 73.7847697 664.607283 73.7847697"></polygon>
                <polygon id="Fill-36" fill="#00B3C5" points="672.038956 91.1207026 678.232017 91.1207026 678.232017 79.9761743 672.038956 79.9761743"></polygon>
                <polygon id="Fill-37" fill="#00B3C5" points="679.470629 91.1207026 685.66369 91.1207026 685.66369 82.4527361 679.470629 82.4527361"></polygon>
                <path d="M696.811199,43.4472587 L724.060667,43.4472587" id="Stroke-38" stroke="#C3C6BF"></path>
                <path d="M696.811199,45.9238205 L724.060667,45.9238205" id="Stroke-39" stroke="#C3C6BF"></path>
                <path d="M696.811199,50.8769442 L724.060667,50.8769442" id="Stroke-40" stroke="#C3C6BF"></path>
                <path d="M696.811199,53.353506 L724.060667,53.353506" id="Stroke-41" stroke="#C3C6BF"></path>
                <path d="M696.811199,55.8300678 L724.060667,55.8300678" id="Stroke-42" stroke="#C3C6BF"></path>
                <polygon id="Fill-43" fill="#FFFFFF" points="243.479148 228.569885 357.431467 228.569885 357.431467 156.749591 243.479148 156.749591"></polygon>
                <polygon id="Stroke-44" stroke="#9B9B9A" stroke-width="3" points="242.859842 230.427306 356.812161 230.427306 356.812161 157.368732 242.859842 157.368732"></polygon>
                <polygon id="Fill-45" fill="#9B9B9A" points="243.479148 167.89412 357.431467 167.89412 357.431467 156.749591 243.479148 156.749591"></polygon>
                <path d="M252.709782,162.061197 C252.709782,163.142216 251.832844,164.017681 250.752774,164.017681 C249.671466,164.017681 248.795767,163.142216 248.795767,162.061197 C248.795767,160.980178 249.671466,160.104713 250.752774,160.104713 C251.832844,160.104713 252.709782,160.980178 252.709782,162.061197" id="Fill-46" fill="#E62828"></path>
                <path d="M258.674814,162.061197 C258.674814,163.142216 257.797876,164.017681 256.717807,164.017681 C255.636498,164.017681 254.760799,163.142216 254.760799,162.061197 C254.760799,160.980178 255.636498,160.104713 256.717807,160.104713 C257.797876,160.104713 258.674814,160.980178 258.674814,162.061197" id="Fill-47" fill="#FFD500"></path>
                <path d="M264.63997,162.061197 C264.63997,163.142216 263.764271,164.017681 262.682963,164.017681 C261.601654,164.017681 260.725956,163.142216 260.725956,162.061197 C260.725956,160.980178 261.601654,160.104713 262.682963,160.104713 C263.764271,160.104713 264.63997,160.980178 264.63997,162.061197" id="Fill-48" fill="#6FB107"></path>
                <polygon id="Fill-49" fill="#FFFFFF" points="267.012779 164.179277 327.704775 164.179277 327.704775 160.464434 267.012779 160.464434"></polygon>
                <polygon id="Fill-50" fill="#FFFFFF" points="328.943387 164.179277 353.715631 164.179277 353.715631 160.464434 328.943387 160.464434"></polygon>
                <path d="M327.704775,177.181598 L346.283958,177.181598" id="Stroke-51" stroke="#C3C6BF"></path>
                <path d="M327.704775,179.65816 L346.283958,179.65816" id="Stroke-52" stroke="#C3C6BF"></path>
                <path d="M327.704775,182.134722 L346.283958,182.134722" id="Stroke-53" stroke="#C3C6BF"></path>
                <path d="M327.704775,184.611283 L346.283958,184.611283" id="Stroke-54" stroke="#C3C6BF"></path>
                <path d="M327.704775,187.087845 L346.283958,187.087845" id="Stroke-55" stroke="#C3C6BF"></path>
                <path d="M279.687498,196.508686 L279.687498,177.179121 L279.682543,177.179121 C269.006945,177.179121 260.356478,185.83099 260.356478,196.502495 C260.356478,201.849392 262.526526,206.688594 266.036753,210.186738 L279.717224,196.508686 L279.687498,196.508686 Z" id="Fill-56" fill="#005C7B"></path>
                <path d="M267.666395,212.49254 C271.164236,215.977063 275.986153,218.13291 281.313424,218.13291 C291.985306,218.13291 300.639489,209.484756 300.641967,198.815728 L281.348105,198.815728 L267.666395,212.49254 Z" id="Fill-57" fill="#005C7B"></path>
                <path d="M282.26827,177.179493 L282.26827,196.509058 L301.594335,196.509058 L301.594335,196.502867 C301.594335,185.833838 292.940152,177.183208 282.26827,177.179493" id="Fill-58" fill="#00C2D2"></path>
                <polygon id="Fill-59" fill="#FFFFFF" points="534.553006 208.75739 821.911027 208.75739 821.911027 205.042547 534.553006 205.042547"></polygon>
                <path d="M537.03023,220.056827 C537.03023,222.706748 534.881238,224.855166 532.230608,224.855166 L395.673618,224.855166 C393.022987,224.855166 390.873995,222.706748 390.873995,220.056827 L390.873995,34.005119 C390.873995,31.3551978 393.022987,29.2067804 395.673618,29.2067804 L532.230608,29.2067804 C534.881238,29.2067804 537.03023,31.3551978 537.03023,34.005119 L537.03023,220.056827 Z" id="Fill-60" fill="#005C7B"></path>
                <polygon id="Fill-61" fill="#FFFFFF" points="402.021505 214.948794 525.882721 214.948794 525.882721 41.5894658 402.021505 41.5894658"></polygon>
                <path d="M463.646919,25.9540641 C470.1967,25.9354899 469.957648,34.8932141 469.919251,36.083202 L457.546754,36.0324325 C457.197465,25.3361619 463.646919,25.9540641 463.646919,25.9540641 L463.646919,25.9540641 Z M474.446378,36.083202 C474.446378,36.083202 474.84645,21.8380183 463.646919,21.8380183 C452.447388,21.8380183 453.247531,36.083202 453.247531,36.083202 L434.447876,36.083202 L434.447876,54.4778651 L492.845962,54.4778651 L492.845962,36.083202 L474.446378,36.083202 Z" id="Fill-62" fill="#00C2D2"></path>
                <polygon id="Fill-63" fill="#005C7B" points="441.657094 81.2144552 509.780763 81.2144552 509.780763 78.7378934 441.657094 78.7378934"></polygon>
                <polygon id="Fill-64" fill="#005C7B" points="441.657094 110.933197 509.780763 110.933197 509.780763 108.456635 441.657094 108.456635"></polygon>
                <polygon id="Fill-65" fill="#005C7B" points="441.657094 139.413658 509.780763 139.413658 509.780763 136.937097 441.657094 136.937097"></polygon>
                <polygon id="Fill-66" fill="#005C7B" points="441.657094 169.1324 509.780763 169.1324 509.780763 166.655839 441.657094 166.655839"></polygon>
                <path d="M430.220864,73.8928716 L423.092651,79.876245 L420.697175,77.0244841 C420.036995,76.2369374 418.862791,76.1341601 418.073795,76.7966404 C417.286037,77.4578824 417.183232,78.6317727 417.84589,79.4180811 L421.437865,83.6938651 C422.098045,84.48265 423.27225,84.5854273 424.061246,83.9229471 L432.615101,76.7433943 C433.402859,76.0821523 433.505663,74.9095002 432.843006,74.1219536 C432.181587,73.3331686 431.00986,73.2316296 430.220864,73.8928716" id="Fill-67" fill="#B0D747"></path>
                <path d="M430.220864,104.284124 L423.092651,110.267497 L420.697175,107.415736 C420.036995,106.62819 418.862791,106.525412 418.073795,107.187893 C417.286037,107.849135 417.183232,109.023025 417.84589,109.809333 L421.437865,114.085118 C422.098045,114.873902 423.27225,114.97668 424.061246,114.314199 L432.615101,107.134647 C433.402859,106.473405 433.505663,105.300753 432.843006,104.513206 C432.181587,103.724421 431.00986,103.622882 430.220864,104.284124" id="Fill-68" fill="#B0D747"></path>
                <path d="M430.220864,132.276083 L423.092651,138.259457 L420.697175,135.408934 C420.036995,134.620149 418.862791,134.517372 418.073795,135.179852 C417.286037,135.841094 417.183232,137.014984 417.84589,137.801293 L421.437865,142.077077 C422.098045,142.865862 423.27225,142.968639 424.061246,142.306159 L432.615101,135.126606 C433.402859,134.465364 433.505663,133.292712 432.843006,132.505165 C432.181587,131.71638 431.00986,131.614841 430.220864,132.276083" id="Fill-69" fill="#B0D747"></path>
                <path d="M430.059968,160.630487 L422.931755,166.613861 L420.536279,163.7621 C419.876099,162.974553 418.701895,162.871776 417.912899,163.534256 C417.125142,164.195498 417.022337,165.369389 417.684994,166.155697 L421.276969,170.431481 C421.93715,171.220266 423.111354,171.321805 423.899111,170.660563 L432.454206,163.48101 C433.241963,162.819768 433.344768,161.647116 432.68211,160.859569 C432.020691,160.070785 430.848964,159.968007 430.059968,160.630487" id="Fill-70" fill="#B0D747"></path>
                <path d="M766.484495,207.51948 C766.484495,222.736715 754.145441,235.072469 738.924136,235.072469 C723.702831,235.072469 711.363777,222.736715 711.363777,207.51948 C711.363777,192.302246 723.702831,179.966492 738.924136,179.966492 C754.145441,179.966492 766.484495,192.302246 766.484495,207.51948" id="Fill-71" fill="#9B9B9A"></path>
                <path d="M738.294674,211.829069 C738.330593,209.182863 740.514267,207.057973 743.161181,207.093883 C745.808095,207.131032 747.933553,209.312883 747.897634,211.960327 C747.860475,214.606534 745.678041,216.730185 743.029888,216.694275 C740.382974,216.658365 738.258754,214.475276 738.294674,211.829069 M741.866831,225.256988 L743.960086,225.285468 C744.864272,225.297851 745.608678,224.572218 745.621065,223.669512 L745.638405,222.389129 C745.64336,222.042411 745.962921,221.643684 746.335744,221.516141 C746.681317,221.398504 747.025651,221.261055 747.360076,221.105032 C747.715558,220.939102 748.219673,221.008446 748.461202,221.25734 L749.360435,222.17986 C749.990888,222.827481 751.030084,222.841102 751.677878,222.212055 L753.179076,220.752122 C753.492445,220.447505 753.668328,220.037634 753.674521,219.600521 C753.680714,219.163407 753.515978,218.749822 753.21128,218.435298 L752.312047,217.511541 C752.16713,217.362947 752.082904,217.117767 752.08662,216.855252 C752.087859,216.694275 752.125017,216.534537 752.188186,216.406994 C752.352922,216.077611 752.501555,215.737084 752.627894,215.39408 C752.765379,215.025073 753.172883,214.716741 753.519694,214.721694 L754.800419,214.73903 C755.704606,214.751412 756.449012,214.027018 756.461398,213.123073 L756.489886,211.030378 C756.502272,210.127672 755.777684,209.382226 754.873497,209.369844 L753.592772,209.352508 C753.245961,209.347555 752.847128,209.029316 752.719551,208.656594 C752.603121,208.311113 752.464397,207.966871 752.308332,207.632535 C752.246401,207.501278 752.215436,207.345254 752.217913,207.181801 C752.221629,206.919286 752.312047,206.676583 752.460681,206.531704 L753.384686,205.632712 C753.699293,205.326856 753.875176,204.918224 753.88013,204.481111 C753.886323,204.042759 753.721588,203.629173 753.416889,203.315888 L751.955327,201.813853 C751.324874,201.167471 750.285678,201.152611 749.637884,201.782896 L748.713879,202.681888 C748.464918,202.924591 747.958326,202.980314 747.607798,202.804478 C747.278328,202.639787 746.937709,202.492431 746.595852,202.364888 C746.226746,202.228678 745.918331,201.820045 745.923286,201.473326 L745.940626,200.192944 C745.953013,199.290237 745.228424,198.54603 744.325476,198.532409 L742.230983,198.505167 C741.328035,198.492784 740.583629,199.217178 740.571243,200.119885 L740.553902,201.400268 C740.548948,201.746986 740.229386,202.146951 739.856564,202.273256 C739.510991,202.390892 739.166657,202.52958 738.83347,202.684365 C738.477988,202.850295 737.972634,202.780951 737.731105,202.532056 L736.831873,201.608299 C736.527174,201.295014 736.117193,201.119178 735.679963,201.112986 C735.242733,201.106795 734.829037,201.271486 734.514429,201.577342 L733.01447,203.038513 C732.701101,203.34313 732.525218,203.751763 732.519025,204.190115 C732.512832,204.627228 732.677567,205.040813 732.983505,205.354099 L733.88026,206.276618 C734.025177,206.425212 734.109403,206.671629 734.105687,206.934145 C734.10321,207.095122 734.06729,207.253621 734.002882,207.382403 C733.838147,207.711785 733.690752,208.052313 733.563175,208.395317 C733.426928,208.764324 733.018186,209.072656 732.672613,209.067703 L731.390649,209.050367 C730.487701,209.037984 729.743295,209.762379 729.730909,210.666324 L729.702421,212.759018 C729.690035,213.661725 730.414623,214.405932 731.317571,214.418315 L732.598296,214.435651 C732.945108,214.440604 733.345179,214.76008 733.471518,215.132803 C733.589186,215.479522 733.729149,215.825002 733.885214,216.1581 C733.945906,216.290596 733.97811,216.446619 733.975633,216.610072 C733.971917,216.871349 733.881498,217.114052 733.732865,217.258931 L732.80886,218.157923 C732.495491,218.46254 732.31837,218.872411 732.313415,219.309525 C732.307222,219.746638 732.471958,220.160224 732.776656,220.474747 L734.23698,221.974305 C734.867434,222.620688 735.906629,222.635547 736.553185,222.005262 L737.478428,221.10627 C737.726151,220.864805 738.232743,220.809083 738.582032,220.98368 C738.911502,221.14961 739.252121,221.296965 739.595216,221.424508 C739.965561,221.560719 740.272737,221.969352 740.267783,222.316071 L740.250442,223.596453 C740.238056,224.49916 740.963883,225.243367 741.866831,225.256988" id="Fill-72" fill="#FFFFFF"></path>
                <path d="M726.199874,196.69319 C726.215976,195.520538 727.183332,194.579445 728.356297,194.595542 C729.529263,194.610402 730.470608,195.578738 730.454506,196.75139 C730.439643,197.924042 729.471048,198.865135 728.298083,198.849037 C727.125117,198.83294 726.183772,197.865842 726.199874,196.69319 M730.57589,201.573255 C730.657639,201.534869 730.780261,201.558396 730.814942,201.593068 L731.264559,202.054947 C731.684448,202.485868 732.376832,202.495775 732.809108,202.075997 L733.558468,201.345412 C733.767794,201.142334 733.885462,200.869912 733.889178,200.578916 C733.892894,200.286682 733.783896,200.010545 733.579525,199.801275 L733.129909,199.339397 C733.116284,199.325776 733.093989,199.276244 733.095227,199.205662 C733.095227,199.166037 733.103898,199.127651 733.117522,199.100408 C733.204225,198.927049 733.282258,198.747498 733.349143,198.566709 C733.381347,198.48003 733.48539,198.408209 733.534935,198.408209 L734.176536,198.416877 C734.778501,198.425545 735.275185,197.942616 735.282617,197.339573 L735.29748,196.293226 C735.30615,195.691421 734.821853,195.19487 734.219887,195.187441 L733.578286,195.178773 C733.52998,195.177534 733.427176,195.101999 733.397449,195.01532 C733.335518,194.832054 733.26244,194.651265 733.180692,194.475429 C733.167067,194.446949 733.159635,194.408562 733.160874,194.368937 C733.162113,194.298355 733.185646,194.250062 733.199271,194.236441 L733.661273,193.786945 C733.870599,193.582629 733.988267,193.310207 733.991983,193.019211 C733.995699,192.726977 733.886701,192.45084 733.68233,192.242809 L732.952787,191.49241 C732.749655,191.283141 732.47716,191.165504 732.184848,191.161789 C731.893774,191.158075 731.617563,191.268282 731.408238,191.47136 L730.946235,191.920856 C730.911554,191.954289 730.787693,191.974102 730.707183,191.933238 C730.533778,191.846559 730.354179,191.768547 730.173341,191.70168 C730.086639,191.669485 730.01356,191.564231 730.014799,191.515938 L730.023469,190.874508 C730.03214,190.272704 729.547842,189.776153 728.945877,189.768723 L727.899249,189.753864 C727.297284,189.745196 726.8006,190.229364 726.79193,190.831168 L726.78326,191.472598 C726.78326,191.520891 726.707705,191.623668 726.619763,191.653387 C726.437687,191.715301 726.255611,191.78836 726.079728,191.870086 C725.99798,191.908473 725.875357,191.886184 725.840676,191.851512 L725.39106,191.389633 C724.97117,190.957473 724.278786,190.948805 723.84651,191.368582 L723.09715,192.09793 C722.887825,192.301008 722.770156,192.57343 722.766441,192.865664 C722.762725,193.157898 722.871723,193.432797 723.076094,193.642066 L723.52571,194.103945 C723.539335,194.118804 723.56163,194.167097 723.560391,194.237679 C723.560391,194.277304 723.551721,194.316929 723.538096,194.342933 C723.451393,194.516292 723.373361,194.695843 723.306476,194.877871 C723.274272,194.96455 723.16899,195.03637 723.120684,195.035132 L722.479083,195.026464 C721.877117,195.019035 721.380434,195.501964 721.371763,196.103769 L721.358139,197.150116 C721.349468,197.751921 721.832527,198.249709 722.435731,198.257139 L723.076094,198.265807 C723.125638,198.267045 723.228443,198.341342 723.25817,198.42926 C723.3201,198.611287 723.393178,198.793315 723.474927,198.969151 C723.488552,198.997631 723.494745,199.036018 723.494745,199.075643 C723.493506,199.144987 723.469972,199.194518 723.456348,199.208139 L722.994345,199.657635 C722.78502,199.860713 722.667352,200.133135 722.663636,200.425369 C722.658681,200.717603 722.768918,200.992502 722.97205,201.201771 L723.702831,201.952169 C724.122721,202.383091 724.815105,202.392997 725.247381,201.97322 L725.709383,201.522486 C725.744064,201.489052 725.867926,201.470478 725.948435,201.511341 C726.121841,201.598021 726.30144,201.676033 726.482277,201.7429 C726.56898,201.775095 726.640819,201.879111 726.640819,201.927404 L726.632149,202.568833 C726.623479,203.170638 727.106538,203.667188 727.709742,203.675856 L728.756369,203.690716 C729.358335,203.698145 729.855018,203.215216 729.86245,202.613411 L729.872359,201.971982 C729.872359,201.922451 729.947914,201.820912 730.034617,201.791193 C730.216693,201.729279 730.398769,201.65622 730.57589,201.573255" id="Fill-73" fill="#FFFFFF"></path>
                <polygon id="Fill-74" fill="#00C2D2" points="225.32481 114.516906 225.32481 118.174788 166.791715 118.174788 166.791715 59.6573465 170.450575 59.6573465 170.450575 114.516906"></polygon>
                <polygon id="Fill-75" fill="#B0D747" points="192.961113 79.9689923 207.904968 83.7011709 213.078651 75.0864506 217.76556 77.9010631 218.008328 63.3141139 205.250623 70.3933659 209.937531 73.2079784 206.162241 79.5009221 191.83893 75.9185754 176.473946 91.2806884 179.060168 93.866219"></polygon>
                <polygon id="Fill-76" fill="#00C2D2" points="188.742028 110.859643 196.05851 110.859643 196.05851 84.511502 194.082924 84.0186662 188.742028 89.3581335"></polygon>
                <polygon id="Fill-77" fill="#00C2D2" points="177.767181 97.7447625 177.767181 110.859396 185.083663 110.859396 185.083663 93.0157677 179.060292 99.0375278"></polygon>
                <polygon id="Fill-78" fill="#00C2D2" points="210.691722 86.1727797 210.691722 110.859148 218.008204 110.859148 218.008204 82.3118198 214.332003 80.1076797"></polygon>
                <polygon id="Fill-79" fill="#00C2D2" points="207.033481 110.859643 207.033481 87.2555325 199.716999 85.4265916 199.716999 110.859643"></polygon>
                <path d="M827.726683,27.6061785 C826.488071,25.4602377 825.790732,22.9774844 825.820459,20.3399461 C825.910877,12.3344599 832.624155,5.91892651 840.817575,6.01427414 L841.448028,6.03532491 C843.056986,2.53470476 847.405753,0.0544280749 852.491494,0.112627278 C858.213883,0.174541324 862.92804,3.42998186 863.835943,7.64632839 C864.823117,7.52992998 865.833825,7.46925422 866.868066,7.48163703 C870.229659,7.51878545 873.369541,8.27289853 876.053614,9.54585132 C878.129527,6.1851569 881.863943,3.96491922 886.099997,4.01568873 C890.731168,4.06645825 894.699681,6.81420361 896.535304,10.7482221 C899.01129,9.24371077 901.952994,8.38434382 905.1065,8.4177774 C913.79041,8.51807816 920.755126,15.358342 920.658515,23.7018788 C920.60897,28.4246822 918.296481,32.6175014 914.72804,35.344196 C916.141296,37.3105861 916.95878,39.6843706 916.930292,42.2352293 C916.853498,48.9008955 911.051839,54.236648 903.969454,54.1561597 C902.640424,54.1425386 900.159483,53.5692145 900.159483,53.5692145 C894.614217,62.4650247 879.032476,58.2808734 880.371416,56.7070184 C862.769498,77.3999308 843.723359,74.8119237 843.266311,74.6311347 C850.772301,72.8418188 854.810176,66.7259493 857.959967,59.2541622 C855.936075,59.9290253 853.735061,60.2918417 851.432481,60.2633612 C845.193592,60.1927792 839.741221,57.3088229 836.643452,53.0181795 C834.791727,53.6719919 832.761641,54.0187105 830.633706,53.9951832 C822.117008,53.897359 815.282346,47.8533098 815.366572,40.4979212 C815.438412,34.0947705 820.733479,28.8048344 827.726683,27.6061785" id="Fill-80" fill="#005C7B"></path>
                <path d="M188.315574,234.225485 C188.315574,242.126956 194.677086,248.533821 202.521217,248.533821 L246.472131,248.533821 C254.316262,248.533821 260.675296,242.126956 260.675296,234.225485 C260.675296,227.089272 255.489227,221.176481 248.70411,220.095461 C248.789574,219.593958 248.83788,219.078833 248.83788,218.548849 C248.83788,213.542479 244.807436,209.483394 239.835647,209.483394 C237.618531,209.483394 235.587207,210.291991 234.019124,211.635526 C231.224815,205.291813 227.64151,199.50285 217.591411,199.50285 C205.402229,199.50285 199.624103,208.971984 199.624103,218.964911 C199.624103,219.38345 199.642682,219.797036 199.669932,220.206907 C193.190751,221.53682 188.315574,227.307209 188.315574,234.225485" id="Fill-81" fill="#005C7B"></path>
                <path d="M678.433291,174.13877 C678.433291,183.159647 671.171308,190.472934 662.217381,190.472934 L612.041202,190.472934 C603.086036,190.472934 595.82653,183.159647 595.82653,174.13877 C595.82653,165.990882 601.747096,159.242251 609.492138,158.007685 C609.394288,157.435599 609.339789,156.847415 609.339789,156.241896 C609.339789,150.525991 613.941233,145.893582 619.616554,145.893582 C622.148277,145.893582 624.466959,146.814863 626.256754,148.349093 C629.447419,141.107627 633.537316,134.498921 645.011819,134.498921 C658.927627,134.498921 665.523237,145.309114 665.523237,156.717396 C665.523237,157.194134 665.50218,157.667157 665.469976,158.135228 C672.866968,159.652122 678.433291,166.241014 678.433291,174.13877" id="Fill-82" fill="#00B3C5"></path>
                <path d="M53.8915973,15.0995412 C31.7006218,15.0995412 13.7122574,29.7112561 13.7122574,47.7369114 C13.7122574,65.7625668 31.7006218,80.3742816 53.8915973,80.3742816 C56.0232488,80.3742816 58.1140261,80.2380707 60.155259,79.9780317 C68.7859085,88.6063731 79.0886845,90.1542243 89.0496035,90.382068 L89.0496035,88.2695607 C83.6703108,85.6357372 79.0044588,80.8373987 79.0044588,75.3530525 C79.0044588,74.5877949 79.0639122,73.8361583 79.1741487,73.1018578 C88.2606075,67.1184844 94.0709372,57.9787329 94.0709372,47.7369114 C94.0709372,29.7112561 76.0825728,15.0995412 53.8915973,15.0995412" id="Fill-83" fill="#00C2D2"></path>
                <path d="M36.7743488,63.5531021 C36.4845136,63.5531021 36.2219278,63.468899 35.9568648,63.3884107 L48.3850992,49.1890435 L53.0398037,53.176308 C53.3073439,53.4091048 53.639292,53.5242649 53.97124,53.5242649 C54.3031881,53.5242649 54.6363748,53.4091048 54.903915,53.1775463 L59.5586195,49.1890435 L71.9856153,63.3884107 C71.7230295,63.468899 71.4604438,63.5531021 71.1681313,63.5531021 L36.7743488,63.5531021 Z M34.020914,61.247423 C33.982517,61.0592043 33.9082003,60.885845 33.9082003,60.6877201 L33.9082003,37.7646637 C33.9082003,37.4674763 33.9936645,37.1987693 34.0778901,36.9300624 L46.207619,47.3229541 L34.020914,61.247423 Z M71.1681313,34.8992816 C71.3588776,34.8992816 71.5273288,34.9711019 71.705689,35.0082504 L53.97124,50.2056721 L36.2367911,35.0082504 C36.4163899,34.9711019 36.5836025,34.8992816 36.7743488,34.8992816 L71.1681313,34.8992816 Z M61.7336225,47.3254307 L73.8670672,36.9300624 C73.9512928,37.1987693 74.0355184,37.4674763 74.0355184,37.7646637 L74.0355184,60.6877201 C74.0355184,60.885845 73.9587245,61.0629192 73.9203275,61.2498996 L61.7336225,47.3254307 Z M71.1681313,32.0338996 L36.7743488,32.0338996 C33.6084561,32.0338996 31.0420517,34.5996177 31.0420517,37.7646637 L31.0420517,60.6877201 C31.0420517,63.8527661 33.6084561,66.4184842 36.7743488,66.4184842 L71.1681313,66.4184842 C74.334024,66.4184842 76.9004284,63.8527661 76.9004284,60.6877201 L76.9004284,37.7646637 C76.9004284,34.5996177 74.334024,32.0338996 71.1681313,32.0338996 L71.1681313,32.0338996 Z" id="Fill-84" fill="#FFFFFF"></path>
                <polygon id="Fill-85" fill="#FFFFFF" points="80.6016492 247.76361 0.0918587966 247.76361 0.0918587966 141.271451 62.7965994 141.271451 80.6016492 157.157357"></polygon>
                <polygon id="Stroke-86" stroke="#C3C6BF" stroke-width="3" points="80.6016492 247.76361 0.0918587966 247.76361 0.0918587966 141.271451 62.7965994 141.271451 80.6016492 157.157357"></polygon>
                <polygon id="Fill-87" fill="#C3C6BF" points="62.5025529 155.673277 62.4740648 140.823813 80.383158 155.691852"></polygon>
                <path d="M638.989439,173.058989 L636.146824,173.058989 C633.781075,173.058989 631.856272,174.983278 631.856272,177.348394 L631.856272,180.825487 L631.864942,180.879972 L632.103994,180.954268 C634.361984,181.65885 636.323946,181.894124 637.937857,181.894124 C641.091364,181.894124 642.918317,180.99637 643.031031,180.938171 L643.255219,180.825487 L643.278753,180.825487 L643.278753,177.348394 C643.279992,174.983278 641.355188,173.058989 638.989439,173.058989 M634.217066,169.480357 C634.217066,171.330349 635.717026,172.831146 637.568751,172.831146 C639.419238,172.831146 640.919197,171.331587 640.919197,169.480357 C640.919197,167.630366 639.419238,166.130807 637.568751,166.130807 C635.717026,166.130807 634.217066,167.631604 634.217066,169.480357 M647.933457,165.502999 L643.349354,165.502999 C642.596278,165.502999 641.872928,165.628065 641.19293,165.852194 C642.047573,166.751186 642.57646,167.962225 642.57646,169.297092 C642.57646,170.265427 642.295295,171.166896 641.817191,171.93463 C643.67387,172.941353 644.937255,174.907743 644.937255,177.16389 L644.937255,179.712273 C645.383155,179.733323 645.820385,179.748183 646.237797,179.748183 C651.321062,179.748183 654.266481,178.298156 654.449796,178.206523 L654.810232,178.023257 L654.848629,178.023257 L654.848629,172.41756 C654.848629,168.604893 651.745906,165.502999 647.933457,165.502999 M645.640786,165.13523 C648.624603,165.13523 651.043613,162.716867 651.043613,159.735087 C651.043613,156.752068 648.624603,154.333705 645.640786,154.333705 C642.658208,154.333705 640.239199,156.752068 640.239199,159.735087 C640.239199,162.716867 642.658208,165.13523 645.640786,165.13523 M633.319073,171.93463 C632.840968,171.166896 632.559803,170.265427 632.559803,169.297092 C632.559803,167.838397 633.191496,166.527057 634.189817,165.61073 C633.807086,165.545101 633.414446,165.502999 633.013135,165.502999 L628.429032,165.502999 C624.615345,165.502999 621.512622,168.604893 621.512622,172.41756 L621.512622,178.023257 L621.527485,178.109937 L621.913932,178.231289 C625.047621,179.209531 627.824589,179.625593 630.199009,179.722179 L630.199009,177.16389 C630.199009,174.907743 631.462393,172.941353 633.319073,171.93463 M625.318877,159.735087 C625.318877,156.752068 627.737886,154.333705 630.721703,154.333705 C633.704281,154.333705 636.123291,156.752068 636.123291,159.735087 C636.123291,162.716867 633.704281,165.13523 630.721703,165.13523 C627.737886,165.13523 625.318877,162.716867 625.318877,159.735087" id="Fill-88" fill="#FFFFFF"></path>
                <path d="M224.965241,232.656831 C223.353806,232.59987 222.097854,231.248905 222.15483,229.63914 C222.213045,228.028137 223.561893,226.77252 225.173328,226.830719 C226.783523,226.88768 228.040715,228.236168 227.983739,229.847171 C227.925524,231.456937 226.575437,232.713792 224.965241,232.656831 L224.965241,232.656831 Z M236.725863,230.160456 C236.956245,223.72511 231.923764,218.321253 225.486696,218.090932 C219.049629,217.860612 213.643087,222.891747 213.413944,229.327093 C213.183562,235.762439 218.216043,241.166297 224.65311,241.396617 L226.109718,241.448625 C226.912339,241.477106 227.58986,240.846821 227.618348,240.044415 C227.648075,239.242009 227.016382,238.564669 226.213762,238.53495 L224.757154,238.482942 C219.931521,238.310821 216.154992,234.257928 216.32716,229.431109 C216.500565,224.60429 220.555781,220.831248 225.381414,221.003369 C230.210763,221.176728 233.983576,225.228383 233.811409,230.056441 L233.655344,234.426334 C233.626856,235.22874 232.949335,235.859025 232.146714,235.830545 C231.342855,235.802064 230.712401,235.124725 230.740889,234.32108 L230.896954,229.952425 C231.012145,226.735371 228.494047,224.032204 225.277371,223.917044 C222.060695,223.801884 219.356805,226.319309 219.241614,229.535125 C219.126423,232.749702 221.644522,235.455346 224.861197,235.570506 C225.953653,235.608892 226.977986,235.326564 227.867309,234.834967 C228.093975,236.962333 229.83918,238.66497 232.041432,238.742981 C234.454249,238.829661 236.483095,236.942521 236.569798,234.53035 L236.725863,230.160456 Z" id="Fill-89" fill="#FFFFFF"></path>
                <path d="M839.677928,103.730241 L839.645724,100.17266 L844.561775,100.12932 L843.453218,103.696807 L839.677928,103.730241 Z M820.464576,100.342304 L825.50325,100.297726 L825.534215,103.855307 L821.730438,103.889979 L820.464576,100.342304 Z M825.374434,85.7937419 L825.406638,89.4887721 L816.616208,89.5667838 L815.30204,85.8828981 L825.374434,85.7937419 Z M828.691438,89.4590534 L828.659234,85.7652614 L836.233347,85.697156 L836.265551,89.3921862 L828.691438,89.4590534 Z M817.785458,92.8407986 L825.436365,92.7726931 L825.473523,97.0138053 L819.295326,97.0695279 L817.785458,92.8407986 Z M836.362163,100.20114 L836.393128,103.75996 L828.819015,103.826827 L828.78805,100.269246 L836.362163,100.20114 Z M828.758323,96.9853248 L828.721165,92.7429744 L836.294039,92.6761072 L836.332436,96.9184576 L828.758323,96.9853248 Z M845.584869,96.8354928 L839.617236,96.8887389 L839.580077,92.6463885 L846.907707,92.5819979 L845.584869,96.8354928 Z M847.930801,89.2881706 L839.550351,89.3624675 L839.518147,85.6686755 L849.08271,85.5832341 L847.930801,89.2881706 Z M839.587509,119.331342 C838.379862,119.342487 837.388972,118.369198 837.379064,117.161874 C837.367916,115.95455 838.341465,114.963925 839.549112,114.952781 C840.756759,114.941636 841.747649,115.914925 841.758796,117.122249 C841.768705,118.329573 840.796395,119.320198 839.587509,119.331342 L839.587509,119.331342 Z M821.521112,119.491081 C820.313465,119.502225 819.322575,118.528936 819.311428,117.321612 C819.301519,116.114288 820.275068,115.123664 821.482715,115.112519 C822.690362,115.102613 823.681252,116.075902 823.692399,117.283226 C823.702308,118.49055 822.728759,119.481174 821.521112,119.491081 L821.521112,119.491081 Z M852.637527,82.9419809 C852.324158,82.5209654 851.828713,82.2745475 851.30478,82.2795006 L814.349548,82.6076451 C814.277708,82.6076451 814.207107,82.6125982 814.137745,82.6225044 L812.578332,78.2538494 C812.416074,77.8018768 812.066785,77.4440136 811.618408,77.2718926 L803.927865,74.3297371 C803.079416,74.0065458 802.130639,74.4300379 801.806122,75.2757837 C801.481606,76.1227679 801.905211,77.0725294 802.752422,77.396959 L809.738195,80.0691692 L818.476603,104.547506 C818.102543,104.682479 817.785458,104.973475 817.644256,105.378393 L815.241348,112.242184 C815.093954,112.6632 815.160839,113.128793 815.420947,113.490371 C815.681056,113.853187 816.099707,114.066172 816.545607,114.062457 L817.81023,114.051312 C817.034859,114.930492 816.562948,116.083331 816.575334,117.346378 C816.598867,120.061928 818.829608,122.252447 821.545884,122.227681 C824.262161,122.204154 826.453266,119.975248 826.429732,117.25846 C826.418585,115.995413 825.926856,114.851242 825.135382,113.985684 L835.877866,113.890336 C835.101256,114.769515 834.630583,115.922355 834.641731,117.185401 C834.665264,119.90219 836.894766,122.09147 839.612281,122.067943 C842.329796,122.044416 844.519663,119.814272 844.496129,117.098722 C844.484982,115.835675 843.993252,114.691504 843.201779,113.825945 L844.740136,113.812324 C845.496928,113.804895 846.103848,113.186992 846.097655,112.431641 C846.090223,111.675051 845.472155,111.068294 844.716602,111.075723 L818.469172,111.30852 L819.956745,107.057502 C820.154923,107.13799 820.367964,107.186283 820.590914,107.183806 L844.679444,106.970822 C845.394123,106.963392 846.022099,106.496561 846.232663,105.815506 L852.887726,84.4093438 C853.043792,83.90784 852.950896,83.3629964 852.637527,82.9419809 L852.637527,82.9419809 Z" id="Fill-90" fill="#FFFFFF"></path>
                <path d="M287.051666,90.681732 C283.275138,90.6804937 280.213288,87.6169867 280.214527,83.8414682 C280.215766,80.0659496 283.281331,77.0049192 287.056621,77.0061575 C290.833149,77.0073958 293.894998,80.0721411 293.89376,83.8464213 C293.892521,87.6219398 290.828195,90.6829702 287.051666,90.681732 M287.059098,72.4480454 C280.761994,72.4455689 275.657673,77.5448097 275.655196,83.8402299 C275.653957,85.5403896 276.028018,87.1563462 276.693153,88.6038966 L285.368392,107.444341 C285.784566,108.349524 286.381577,108.915418 287.045473,108.915418 C287.708131,108.915418 288.305142,108.350762 288.721315,107.446817 L297.412657,88.6113263 C298.080269,87.1650142 298.453091,85.5490576 298.453091,83.8488979 C298.455568,77.5534777 293.354963,72.450522 287.059098,72.4480454" id="Fill-91" fill="#FFFFFF"></path>
                <polygon id="Fill-92" fill="#00C2D2" points="8.14283784 240.952694 72.5506702 240.952694 72.5506702 232.284727 8.14283784 232.284727"></polygon>
                <polygon id="Fill-93" fill="#00C2D2" points="8.14283784 169.1324 72.5506702 169.1324 72.5506702 160.464434 8.14283784 160.464434"></polygon>
                <g id="Group-96" transform="translate(8.142838, 174.063235)">
                    <path d="M0,0.641801 L28.4880797,0.641801" id="Fill-94" fill="#FFFFFF"></path>
                    <path d="M0,0.641801 L28.4880797,0.641801" id="Stroke-95" stroke="#C3C6BF"></path>
                </g>
                <g id="Group-99" transform="translate(8.142838, 177.778078)">
                    <path d="M0,0.641801 L28.4880797,0.641801" id="Fill-97" fill="#FFFFFF"></path>
                    <path d="M0,0.641801 L28.4880797,0.641801" id="Stroke-98" stroke="#C3C6BF"></path>
                </g>
                <g id="Group-102" transform="translate(8.142838, 181.492921)">
                    <path d="M0,0.641801 L28.4880797,0.641801" id="Fill-100" fill="#FFFFFF"></path>
                    <path d="M0,0.641801 L28.4880797,0.641801" id="Stroke-101" stroke="#C3C6BF"></path>
                </g>
                <g id="Group-105" transform="translate(8.142838, 185.207763)">
                    <path d="M0,0.641801 L28.4880797,0.641801" id="Fill-103" fill="#FFFFFF"></path>
                    <path d="M0,0.641801 L28.4880797,0.641801" id="Stroke-104" stroke="#C3C6BF"></path>
                </g>
                <g id="Group-108" transform="translate(8.142838, 188.922606)">
                    <path d="M0,0.641801 L28.4880797,0.641801" id="Fill-106" fill="#FFFFFF"></path>
                    <path d="M0,0.641801 L28.4880797,0.641801" id="Stroke-107" stroke="#C3C6BF"></path>
                </g>
                <g id="Group-111" transform="translate(8.142838, 192.637449)">
                    <path d="M0,0.641801 L28.4880797,0.641801" id="Fill-109" fill="#FFFFFF"></path>
                    <path d="M0,0.641801 L28.4880797,0.641801" id="Stroke-110" stroke="#C3C6BF"></path>
                </g>
                <g id="Group-114" transform="translate(8.142838, 196.352292)">
                    <path d="M0,0.641801 L28.4880797,0.641801" id="Fill-112" fill="#FFFFFF"></path>
                    <path d="M0,0.641801 L28.4880797,0.641801" id="Stroke-113" stroke="#C3C6BF"></path>
                </g>
                <g id="Group-117" transform="translate(8.142838, 200.067134)">
                    <path d="M0,0.641801 L28.4880797,0.641801" id="Fill-115" fill="#FFFFFF"></path>
                    <path d="M0,0.641801 L28.4880797,0.641801" id="Stroke-116" stroke="#C3C6BF"></path>
                </g>
                <g id="Group-120" transform="translate(8.142838, 203.781977)">
                    <path d="M0,0.641801 L28.4880797,0.641801" id="Fill-118" fill="#FFFFFF"></path>
                    <path d="M0,0.641801 L28.4880797,0.641801" id="Stroke-119" stroke="#C3C6BF"></path>
                </g>
                <g id="Group-123" transform="translate(8.142838, 207.496820)">
                    <path d="M0,0.641801 L28.4880797,0.641801" id="Fill-121" fill="#FFFFFF"></path>
                    <path d="M0,0.641801 L28.4880797,0.641801" id="Stroke-122" stroke="#C3C6BF"></path>
                </g>
                <g id="Group-126" transform="translate(8.142838, 211.211663)">
                    <path d="M0,0.641801 L28.4880797,0.641801" id="Fill-124" fill="#FFFFFF"></path>
                    <path d="M0,0.641801 L28.4880797,0.641801" id="Stroke-125" stroke="#C3C6BF"></path>
                </g>
                <g id="Group-129" transform="translate(8.142838, 214.926505)">
                    <path d="M0,0.641801 L28.4880797,0.641801" id="Fill-127" fill="#FFFFFF"></path>
                    <path d="M0,0.641801 L28.4880797,0.641801" id="Stroke-128" stroke="#C3C6BF"></path>
                </g>
                <g id="Group-132" transform="translate(8.142838, 218.641348)">
                    <path d="M0,0.641801 L28.4880797,0.641801" id="Fill-130" fill="#FFFFFF"></path>
                    <path d="M0,0.641801 L28.4880797,0.641801" id="Stroke-131" stroke="#C3C6BF"></path>
                </g>
                <g id="Group-135" transform="translate(8.142838, 222.356191)">
                    <path d="M0,0.641801 L28.4880797,0.641801" id="Fill-133" fill="#FFFFFF"></path>
                    <path d="M0,0.641801 L28.4880797,0.641801" id="Stroke-134" stroke="#C3C6BF"></path>
                </g>
                <g id="Group-138" transform="translate(8.142838, 226.071034)">
                    <path d="M0,0.641801 L28.4880797,0.641801" id="Fill-136" fill="#FFFFFF"></path>
                    <path d="M0,0.641801 L28.4880797,0.641801" id="Stroke-137" stroke="#C3C6BF"></path>
                </g>
                <g id="Group-141" transform="translate(44.062590, 174.063235)">
                    <path d="M0,0.641801 L28.4880797,0.641801" id="Fill-139" fill="#FFFFFF"></path>
                    <path d="M0,0.641801 L28.4880797,0.641801" id="Stroke-140" stroke="#C3C6BF"></path>
                </g>
                <g id="Group-144" transform="translate(44.062590, 177.778078)">
                    <path d="M0,0.641801 L28.4880797,0.641801" id="Fill-142" fill="#FFFFFF"></path>
                    <path d="M0,0.641801 L28.4880797,0.641801" id="Stroke-143" stroke="#C3C6BF"></path>
                </g>
                <g id="Group-147" transform="translate(44.062590, 181.492921)">
                    <path d="M0,0.641801 L28.4880797,0.641801" id="Fill-145" fill="#FFFFFF"></path>
                    <path d="M0,0.641801 L28.4880797,0.641801" id="Stroke-146" stroke="#C3C6BF"></path>
                </g>
                <g id="Group-150" transform="translate(44.062590, 185.207763)">
                    <path d="M0,0.641801 L28.4880797,0.641801" id="Fill-148" fill="#FFFFFF"></path>
                    <path d="M0,0.641801 L28.4880797,0.641801" id="Stroke-149" stroke="#C3C6BF"></path>
                </g>
                <g id="Group-153" transform="translate(44.062590, 188.922606)">
                    <path d="M0,0.641801 L28.4880797,0.641801" id="Fill-151" fill="#FFFFFF"></path>
                    <path d="M0,0.641801 L28.4880797,0.641801" id="Stroke-152" stroke="#C3C6BF"></path>
                </g>
                <g id="Group-156" transform="translate(44.062590, 192.637449)">
                    <path d="M0,0.641801 L28.4880797,0.641801" id="Fill-154" fill="#FFFFFF"></path>
                    <path d="M0,0.641801 L28.4880797,0.641801" id="Stroke-155" stroke="#C3C6BF"></path>
                </g>
                <g id="Group-159" transform="translate(44.062590, 196.352292)">
                    <path d="M0,0.641801 L28.4880797,0.641801" id="Fill-157" fill="#FFFFFF"></path>
                    <path d="M0,0.641801 L28.4880797,0.641801" id="Stroke-158" stroke="#C3C6BF"></path>
                </g>
                <g id="Group-162" transform="translate(44.062590, 200.067134)">
                    <path d="M0,0.641801 L28.4880797,0.641801" id="Fill-160" fill="#FFFFFF"></path>
                    <path d="M0,0.641801 L28.4880797,0.641801" id="Stroke-161" stroke="#C3C6BF"></path>
                </g>
                <g id="Group-165" transform="translate(44.062590, 203.781977)">
                    <path d="M0,0.641801 L28.4880797,0.641801" id="Fill-163" fill="#FFFFFF"></path>
                    <path d="M0,0.641801 L28.4880797,0.641801" id="Stroke-164" stroke="#C3C6BF"></path>
                </g>
                <g id="Group-168" transform="translate(44.062590, 207.496820)">
                    <path d="M0,0.641801 L28.4880797,0.641801" id="Fill-166" fill="#FFFFFF"></path>
                    <path d="M0,0.641801 L28.4880797,0.641801" id="Stroke-167" stroke="#C3C6BF"></path>
                </g>
                <g id="Group-171" transform="translate(44.062590, 211.211663)">
                    <path d="M0,0.641801 L28.4880797,0.641801" id="Fill-169" fill="#FFFFFF"></path>
                    <path d="M0,0.641801 L28.4880797,0.641801" id="Stroke-170" stroke="#C3C6BF"></path>
                </g>
                <g id="Group-174" transform="translate(44.062590, 214.926505)">
                    <path d="M0,0.641801 L28.4880797,0.641801" id="Fill-172" fill="#FFFFFF"></path>
                    <path d="M0,0.641801 L28.4880797,0.641801" id="Stroke-173" stroke="#C3C6BF"></path>
                </g>
                <g id="Group-177" transform="translate(44.062590, 218.641348)">
                    <path d="M0,0.641801 L28.4880797,0.641801" id="Fill-175" fill="#FFFFFF"></path>
                    <path d="M0,0.641801 L28.4880797,0.641801" id="Stroke-176" stroke="#C3C6BF"></path>
                </g>
                <g id="Group-180" transform="translate(44.062590, 222.356191)">
                    <path d="M0,0.641801 L28.4880797,0.641801" id="Fill-178" fill="#FFFFFF"></path>
                    <path d="M0,0.641801 L28.4880797,0.641801" id="Stroke-179" stroke="#C3C6BF"></path>
                </g>
                <g id="Group-183" transform="translate(44.062590, 226.071034)">
                    <path d="M0,0.641801 L28.4880797,0.641801" id="Fill-181" fill="#FFFFFF"></path>
                    <path d="M0,0.641801 L28.4880797,0.641801" id="Stroke-182" stroke="#C3C6BF"></path>
                </g>
                <path d="M873.691828,30.6939558 L865.092144,30.6803347 L865.097098,26.9543474 C865.102053,24.4171098 866.868313,22.3566104 869.404991,22.3615635 C871.941669,22.3652784 873.701737,24.4319692 873.698021,26.9679685 L873.691828,30.6939558 Z M877.810213,30.7001472 L876.559215,30.6989089 L876.564169,26.9716834 C876.571601,22.9026923 873.480025,19.586576 869.408707,19.5791463 C865.338627,19.5729549 862.237143,22.8791649 862.23095,26.9493943 L862.224756,30.6753816 L860.863522,30.6741433 C860.272704,30.672905 859.357369,31.3799634 859.356131,31.9718617 L859.333836,46.1984712 C859.332597,46.7891312 860.246693,46.9129593 860.837511,46.9141976 L877.784202,46.9414398 C878.37502,46.942678 878.444383,46.8200882 878.445621,46.2294282 L878.467916,32.0015805 C878.469155,31.4096822 878.401031,30.7013855 877.810213,30.7001472 L877.810213,30.7001472 Z" id="Fill-184" fill="#FFFFFF"></path>
                <path d="M918.688502,171.442042 L918.729376,240.883598 C918.731853,245.260921 915.1919,248.786306 910.817122,248.788783 L810.089465,248.848221 C805.728312,248.850697 802.174733,245.329026 802.172256,240.951703 L802.131382,171.510147 C802.128905,167.146446 805.675051,163.603724 810.039921,163.601247 L910.766339,163.54181 C915.142355,163.535618 918.686025,167.07834 918.688502,171.442042" id="Fill-185" fill="#00B3C5"></path>
                <path d="M805.117304,206.225725 C805.118543,208.823638 807.221706,210.923762 809.817837,210.922524 C812.416446,210.921286 814.520848,208.818685 814.519609,206.220771 C814.517132,203.629049 812.411491,201.521495 809.811644,201.523972 C807.216752,201.52521 805.116066,203.634003 805.117304,206.225725" id="Fill-186" fill="#FFFFFF"></path>
                <polygon id="Fill-187" fill="#FFFFFF" points="818.61669 171.593112 818.657565 240.842734 909.217454 240.789488 909.177819 171.539866"></polygon>
                <polygon id="Fill-188" fill="#00B3C5" points="799.616008 212.472233 803.331845 212.472233 803.331845 201.327704 799.616008 201.327704"></polygon>
                <polygon id="Fill-189" fill="#A1A1A1" points="824.388251 231.046446 903.65943 231.046446 903.65943 223.616761 824.388251 223.616761"></polygon>
                <polygon id="Fill-190" fill="#005C7B" points="823.149639 190.183176 904.898042 190.183176 904.898042 179.038648 823.149639 179.038648"></polygon>
                <path d="M903.65943,195.755812 L878.887187,195.755812" id="Stroke-191" stroke="#A1A1A1"></path>
                <path d="M903.65943,198.232374 L878.887187,198.232374" id="Stroke-192" stroke="#A1A1A1"></path>
                <path d="M903.65943,201.947216 L878.887187,201.947216" id="Stroke-193" stroke="#A1A1A1"></path>
                <path d="M903.65943,204.423778 L878.887187,204.423778" id="Stroke-194" stroke="#A1A1A1"></path>
                <path d="M903.65943,206.90034 L878.887187,206.90034" id="Stroke-195" stroke="#A1A1A1"></path>
                <path d="M903.65943,210.615183 L878.887187,210.615183" id="Stroke-196" stroke="#A1A1A1"></path>
                <path d="M903.65943,213.091745 L878.887187,213.091745" id="Stroke-197" stroke="#A1A1A1"></path>
                <path d="M903.65943,215.568306 L878.887187,215.568306" id="Stroke-198" stroke="#A1A1A1"></path>
                <path d="M903.65943,219.283149 L878.887187,219.283149" id="Stroke-199" stroke="#A1A1A1"></path>
                <path d="M875.17135,195.755812 L851.637719,195.755812" id="Stroke-200" stroke="#A1A1A1"></path>
                <path d="M875.17135,198.232374 L851.637719,198.232374" id="Stroke-201" stroke="#A1A1A1"></path>
                <path d="M875.17135,201.947216 L851.637719,201.947216" id="Stroke-202" stroke="#A1A1A1"></path>
                <path d="M875.17135,204.423778 L851.637719,204.423778" id="Stroke-203" stroke="#A1A1A1"></path>
                <path d="M875.17135,206.90034 L851.637719,206.90034" id="Stroke-204" stroke="#A1A1A1"></path>
                <path d="M875.17135,210.615183 L851.637719,210.615183" id="Stroke-205" stroke="#A1A1A1"></path>
                <path d="M875.17135,213.091745 L851.637719,213.091745" id="Stroke-206" stroke="#A1A1A1"></path>
                <path d="M875.17135,215.568306 L851.637719,215.568306" id="Stroke-207" stroke="#A1A1A1"></path>
                <path d="M875.17135,219.283149 L851.637719,219.283149" id="Stroke-208" stroke="#A1A1A1"></path>
                <path d="M849.160495,195.755812 L824.388251,195.755812" id="Stroke-209" stroke="#A1A1A1"></path>
                <path d="M849.160495,198.232374 L824.388251,198.232374" id="Stroke-210" stroke="#A1A1A1"></path>
                <path d="M849.160495,201.947216 L824.388251,201.947216" id="Stroke-211" stroke="#A1A1A1"></path>
                <path d="M849.160495,204.423778 L824.388251,204.423778" id="Stroke-212" stroke="#A1A1A1"></path>
                <path d="M849.160495,206.90034 L824.388251,206.90034" id="Stroke-213" stroke="#A1A1A1"></path>
                <path d="M849.160495,210.615183 L824.388251,210.615183" id="Stroke-214" stroke="#A1A1A1"></path>
                <path d="M849.160495,213.091745 L824.388251,213.091745" id="Stroke-215" stroke="#A1A1A1"></path>
                <path d="M849.160495,215.568306 L824.388251,215.568306" id="Stroke-216" stroke="#A1A1A1"></path>
                <path d="M849.160495,219.283149 L824.388251,219.283149" id="Stroke-217" stroke="#A1A1A1"></path>
                <path d="M149.352923,223.030683 L140.356883,214.080388 C139.025375,216.161938 137.260352,217.935157 135.184438,219.276215 L144.180478,228.227748 C145.61603,229.655485 147.938428,229.650532 149.365309,228.215365 C150.794667,226.781435 150.788474,224.459659 149.352923,223.030683" id="Fill-218" fill="#FFFFFF"></path>
                <path d="M125.963095,215.901899 C119.896372,215.916759 114.950594,210.994592 114.935731,204.929492 C114.920867,198.86563 119.844351,193.919936 125.911073,193.905077 C131.976557,193.891456 136.923574,198.812384 136.938437,204.877484 C136.952062,210.942584 132.029817,215.88704 125.963095,215.901899 M140.604729,204.868816 C140.58615,196.770459 134.002926,190.219953 125.902403,190.239765 C117.801879,190.25834 111.249621,196.839803 111.2682,204.93816 C111.288018,213.036517 117.871241,219.587023 125.971765,219.568449 C134.072288,219.548637 140.624547,212.967173 140.604729,204.868816" id="Fill-219" fill="#FFFFFF"></path>
                <path d="M117.380379,204.92392 L119.8254,204.917728 C119.81673,201.549604 122.552824,198.801859 125.921849,198.793191 L125.916894,196.350063 C121.199021,196.361207 117.369232,200.207308 117.380379,204.92392" id="Fill-220" fill="#FFFFFF"></path>
                <path d="M358.945918,27.8955648 C356.684212,27.9153773 354.867168,29.7628924 354.885747,32.0239934 C354.905565,34.2850943 356.753575,36.1016524 359.01528,36.0830782 C361.276986,36.0632657 363.09403,34.2157506 363.075451,31.9546496 C363.055633,29.6935487 361.207624,27.8769906 358.945918,27.8955648" id="Fill-221" fill="#FFFFFF"></path>
                <path d="M349.111214,22.2093788 C349.171906,22.1462265 349.235075,22.0905038 349.297006,22.0323046 L349.479082,21.8564687 C349.510047,21.8242734 349.543489,21.8007461 349.581886,21.7697891 C354.836079,16.9157279 362.940318,17.0383177 368.035969,22.047164 L368.634219,22.6365857 L369.461612,23.4501363 C370.468603,24.4395227 370.477273,26.0678621 369.485145,27.0770611 C368.49054,28.0899749 366.863003,28.1048342 365.856012,27.1154478 L364.430369,25.7124755 C361.188921,22.5288553 355.961978,22.5734334 352.777506,25.8102997 L351.764321,26.8071158 C350.784579,27.803932 349.170667,27.8163148 348.167391,26.8294049 C347.683094,26.353905 347.413076,25.7174286 347.404406,25.0363741 C347.396974,24.3602727 347.653367,23.7188432 348.130233,23.237152 L349.111214,22.2093788 Z" id="Fill-222" fill="#FFFFFF"></path>
                <path d="M342.092618,17.2079622 L342.936113,16.3498335 C342.939829,16.3473569 342.941067,16.3424038 342.94726,16.3399272 L343.613634,15.6588727 C343.731302,15.5424743 343.858879,15.439697 343.992649,15.3505408 C352.558891,7.70291783 365.686941,7.82550764 374.109504,15.7901305 C374.150378,15.8260407 374.194968,15.8508063 374.237081,15.8916695 L375.785346,17.4159934 C376.704396,18.3174619 376.711828,19.7972076 375.802686,20.7209651 C374.896022,21.6434844 373.415881,21.6632969 372.496831,20.7581136 L370.948565,19.2375046 C370.937418,19.2238835 370.928748,19.2115007 370.918839,19.2028327 C364.10771,12.7352915 353.389999,12.786061 346.63337,19.2758913 L345.435632,20.495598 C344.533922,21.4131642 343.050065,21.4218321 342.127299,20.5154105 C341.20701,19.6065123 341.190908,18.1255283 342.092618,17.2079622" id="Fill-223" fill="#FFFFFF"></path>
                <path d="M750.439514,70.5101358 L713.993351,70.5101358 C710.507896,70.5101358 707.692531,73.3358929 707.692531,76.8204154 L707.692531,150.802747 C707.692531,154.277363 710.507896,157.105597 713.993351,157.105597 L750.439514,157.105597 C753.920014,157.105597 756.746527,154.27984 756.746527,150.802747 L756.746527,76.8204154 C756.744049,73.3358929 753.920014,70.5101358 750.439514,70.5101358" id="Fill-224" fill="#005C7B"></path>
                <polygon id="Fill-225" fill="#FFFFFF" points="712.418951 140.671752 752.019859 140.671752 752.019859 81.1550177 712.418951 81.1550177"></polygon>
                <polygon id="Fill-226" fill="#FFFFFF" points="740.666368 76.9136579 723.769221 76.9136579 723.769221 75.0710959 740.668845 75.0710959 740.668845 76.9136579"></polygon>
                <path d="M747.897138,76.0718745 C747.897138,76.9621985 747.170073,77.6841163 746.281988,77.6841163 C745.390187,77.6841163 744.665599,76.959722 744.665599,76.0718745 C744.665599,75.1840271 745.390187,74.4596328 746.281988,74.4596328 C747.170073,74.4571562 747.897138,75.1803123 747.897138,76.0718745" id="Fill-227" fill="#FFFFFF"></path>
                <polygon id="Fill-228" fill="#FFFFFF" points="724.520192 150.382351 739.908709 150.382351 739.908709 145.648403 724.520192 145.648403"></polygon>
                <path d="M732.232782,115.367605 L728.287802,111.915278 L717.007761,121.582537 C717.417742,121.962689 717.971401,122.199201 718.582037,122.199201 L745.883526,122.199201 C746.491685,122.199201 747.042867,121.962689 747.450371,121.582537 L736.177762,111.915278 L732.232782,115.367605 Z" id="Fill-229" fill="#00B3C5"></path>
                <path d="M747.457307,100.044745 C747.047326,99.6621167 746.496144,99.4280816 745.883031,99.4280816 L718.58278,99.4280816 C717.974622,99.4280816 717.422201,99.6645932 717.01222,100.049699 L732.232286,113.090035 L747.457307,100.044745 Z" id="Fill-230" fill="#00B3C5"></path>
                <polygon id="Fill-231" fill="#00B3C5" points="716.288499 101.426915 716.288499 120.345371 727.297284 110.992635"></polygon>
                <polygon id="Fill-232" fill="#00B3C5" points="737.168775 110.993254 748.17756 120.34599 748.17756 101.420104"></polygon>
            </g>
        </g>
    </g>
</svg>