
<svg width="1060px" height="1061px" viewBox="-29 -13 1060 1061" version="1.1" xmlns="http://www.w3.org/2000/svg" xmlns:xlink="http://www.w3.org/1999/xlink">
    <!-- Generator: Sketch 3.8.3 (29802) - http://www.bohemiancoding.com/sketch -->
    <desc>Created with Sketch.</desc>
    <defs>
        <rect id="path-1" x="0" y="0" width="1060" height="1061"></rect>
        <mask id="mask-2" maskContentUnits="userSpaceOnUse" maskUnits="objectBoundingBox" x="0" y="0" width="1060" height="1061" fill="white">
            <use xlink:href="#path-1"></use>
        </mask>
    </defs>
    <g id="new-idea" stroke="none" stroke-width="1" fill="none" fill-rule="evenodd" transform="translate(-29.000000, -13.000000)">
        <g id="Group">
            <path d="M262.126,184.112 C259.803,184.112 257.449,184.242 255.077,184.508 C227.321,187.599 204.75,209.954 201.412,237.675 C198.811,259.096 207.297,279.852 224.114,293.213 C226.082,294.786 227.241,297.167 227.241,299.683 L227.241,315.731 C227.241,326.338 235.858,334.973 246.478,334.973 L277.81,334.973 C288.426,334.973 297.043,326.338 297.043,315.731 L297.043,299.683 C297.043,297.167 298.207,294.786 300.174,293.223 C314.887,281.506 323.342,264.048 323.342,245.322 C323.343,211.576 295.884,184.112 262.126,184.112 L262.126,184.112 Z" id="Shape" fill="#000000"></path>
            <use id="Rectangle-1" stroke="#FFCF38" mask="url(#mask-2)" stroke-width="2" fill="#FFCF38" xlink:href="#path-1"></use>
            <path d="M835.906067,599.557793 C820.975572,515.976381 784.531698,311.395376 760.727138,280.610498 C718.419618,211.996656 632.99933,165 534.342092,165 C393.623508,165 235.935351,190.856984 224.449784,398.037628 C213.204457,600.956229 269.815177,644.364109 310.016886,682.006219 C325.760046,696.743929 334.708259,717.330454 334.708259,738.904634 L334.708259,876.371076 C334.708259,886.671753 343.036593,895.000087 353.329856,895.000087 L580.020392,895.000087 C590.307723,895.000087 598.634573,886.671753 598.634573,876.371076 L598.634573,855.817176 C598.634573,844.270807 603.231766,833.184158 611.439979,825.036746 C619.648193,816.861158 630.748188,812.338114 642.306421,812.378154 C674.393342,812.544246 713.155091,812.618394 717.153166,812.099356 C779.940437,804.06465 762.497798,734.50171 777.142081,634.923551 L811.859784,634.923551 C820.401664,634.923551 828.388916,630.679304 833.226349,623.610008 C838.037089,616.533298 837.411277,607.97807 835.906067,599.557793 L835.906067,599.557793 Z M483.853053,276.191261 C483.853053,272.144248 487.133373,268.865412 491.178902,268.865412 L501.030241,268.865412 C505.077254,268.865412 508.35609,272.145731 508.35609,276.191261 L508.35609,316.670284 C508.35609,320.717296 505.075771,323.996133 501.030241,323.996133 L491.178902,323.996133 C487.13189,323.996133 483.853053,320.715813 483.853053,316.670284 L483.853053,276.191261 L483.853053,276.191261 Z M369.772976,316.863069 C371.147685,315.48836 373.011772,314.717218 374.954457,314.717218 C376.898624,314.717218 378.762712,315.489843 380.135938,316.864552 L401.558856,338.300817 C404.418013,341.161457 404.418013,345.800173 401.557373,348.660813 L394.596333,355.623335 C393.221624,356.998044 391.357537,357.769186 389.414852,357.769186 C387.470684,357.769186 385.606597,356.996561 384.231888,355.621852 L362.810453,334.184105 C359.951296,331.321982 359.952779,326.684749 362.811936,323.824109 L369.772976,316.863069 L369.772976,316.863069 Z M572.363842,581.214994 L572.363842,599.296791 C572.363842,622.662393 557.093747,642.316134 536.040088,649.378015 L536.040088,669.678328 C536.040088,681.017081 526.872396,690.218881 515.512881,690.218881 L476.697745,690.218881 C465.330816,690.218881 456.170538,681.017081 456.170538,669.678328 L456.170538,649.378015 C435.110947,642.316134 419.846785,622.66091 419.846785,599.296791 L419.846785,581.214994 C391.27894,556.031276 377.086961,518.860749 381.704915,480.598759 C388.020865,428.344991 430.567141,386.167973 482.920268,380.341402 C552.523248,372.635914 611.367314,426.992527 611.367314,494.882682 C611.367314,528.155976 597.22279,559.289351 572.363842,581.214994 L572.363842,581.214994 Z M607.98467,353.201653 C606.611444,354.576362 604.747356,355.348987 602.803189,355.348987 C600.859021,355.348987 598.996417,354.577845 597.621708,353.203136 L590.659185,346.240613 C587.798545,343.379973 587.798545,338.744223 590.657702,335.883583 L612.074688,314.448802 C613.447914,313.074093 615.312002,312.301468 617.256169,312.301468 C619.200337,312.301468 621.062941,313.074093 622.43765,314.447319 L629.400173,321.411324 C632.25933,324.271964 632.260813,328.907714 629.401656,331.768354 L607.98467,353.201653 L607.98467,353.201653 Z" id="Shape" fill="#FFFFFF"></path>
        </g>
    </g>
</svg>