
<svg width="1060px" height="1061px" viewBox="-390 945 1060 1061" version="1.1" xmlns="http://www.w3.org/2000/svg" xmlns:xlink="http://www.w3.org/1999/xlink">
    <!-- Generator: Sketch 3.8.3 (29802) - http://www.bohemiancoding.com/sketch -->
    <desc>Created with Sketch.</desc>
    <defs>
        <polygon id="path-1" points="1059.385 1059.9995 1059.385 0.6135 0.0003 0.6135 0.0003 1059.9995 1059.385 1059.9995"></polygon>
    </defs>
    <g id="Page-1" stroke="none" stroke-width="1" fill="none" fill-rule="evenodd" transform="translate(-390.000000, 945.000000)">
        <g id="Group-3" transform="translate(0.000000, 0.390000)">
            <mask id="mask-2" fill="white">
                <use xlink:href="#path-1"></use>
            </mask>
            <g id="Clip-2"></g>
            <path d="M1059.3853,963.3535 C1059.3853,1016.5095 1015.8943,1059.9995 962.7393,1059.9995 L96.6453,1059.9995 C43.4903,1059.9995 0.0003,1016.5095 0.0003,963.3535 L0.0003,97.2585 C0.0003,44.1035 43.4903,0.6135 96.6453,0.6135 L962.7393,0.6135 C1015.8943,0.6135 1059.3853,44.1035 1059.3853,97.2585 L1059.3853,963.3535 Z" id="Fill-1" fill="#B82875" mask="url(#mask-2)"></path>
        </g>
        <path d="M510.189,625.2308 C484.821,642.5398 454.18,652.6588 421.219,652.6588 C333.922,652.6588 262.891,581.6368 262.891,494.3308 C262.891,407.0258 333.922,336.0018 421.219,336.0018 C508.525,336.0018 579.547,407.0258 579.547,494.3308 C579.547,527.5008 569.293,558.3108 551.788,583.7778 C540.623,600.0418 526.5,614.1218 510.189,625.2308 M767.159,781.3908 L581.734,603.9458 C603.711,571.9028 615.532,534.0298 615.532,494.3308 C615.532,442.4238 595.327,393.6308 558.624,356.9258 C521.919,320.2328 473.126,300.0198 421.219,300.0198 C369.322,300.0198 320.527,320.2328 283.825,356.9258 C247.122,393.6308 226.908,442.4238 226.908,494.3308 C226.908,546.2388 247.122,595.0318 283.825,631.7348 C320.527,668.4298 369.322,688.6428 421.219,688.6428 C460.918,688.6428 498.8,676.8248 530.844,654.8438 L717.402,833.3888 C724.374,840.0628 733.335,843.3738 742.276,843.3738 C751.749,843.3738 761.212,839.6608 768.283,832.2738 C782.019,817.9148 781.515,795.1348 767.159,781.3908" id="Fill-4" fill="#FFFFFF"></path>
        <path d="M470.4351,423.1664 C469.6531,423.1664 468.8211,423.3054 467.9621,423.5784 L465.4331,424.3894 L465.5541,421.7364 C465.8171,415.9614 460.3511,409.6724 455.9561,406.9454 C452.3031,408.1394 437.2451,412.7014 420.5641,412.7014 L420.5581,412.7014 C407.6821,412.7014 397.0371,409.9654 388.8851,404.5644 C387.1721,406.6604 383.8751,411.5454 384.2851,417.6954 L384.4731,420.5234 L381.8111,419.5554 C381.3211,419.3774 380.7931,419.2874 380.2421,419.2874 C378.8051,419.2874 377.0391,419.9394 375.9171,421.6454 C375.9171,421.7074 375.9161,421.7704 375.9161,421.8324 C375.9161,422.3204 376.0571,449.8284 386.4541,473.2134 C394.1581,490.5414 408.8851,505.6374 426.0581,505.6374 C445.2011,505.6374 459.8181,487.5944 467.4871,468.1024 C473.9861,451.5844 475.7981,434.0864 476.2921,426.6464 C475.4471,425.3714 473.5391,423.1664 470.4351,423.1664" id="Fill-6" fill="#FFFFFF"></path>
        <path d="M456.1636,404.9281 C456.1636,404.9281 413.2236,419.9731 388.5986,402.1191 C388.5986,402.1191 381.8266,408.5841 382.4416,417.8191 C379.0566,416.5881 374.3886,418.3301 373.2316,423.3601 C373.2316,423.3601 365.8196,375.6491 397.0126,374.0061 C413.8396,355.9481 482.7376,353.4871 478.4796,426.7501 C478.4796,426.7501 475.0946,419.3581 467.3986,421.8211 C467.7066,415.0491 461.3846,407.7931 456.1636,404.9281" id="Fill-8" fill="#FFFFFF"></path>
        <path d="M552.6841,564.2113 C551.0881,553.6003 544.1641,545.1153 535.0411,541.0493 C535.0631,541.0493 535.0831,541.0473 535.1061,541.0473 C535.1061,541.0473 474.6761,509.0023 424.0681,509.7603 C379.0451,510.4343 326.5851,535.3713 315.5531,540.8693 C306.2321,544.8633 299.1301,553.4453 297.5131,564.2113 L297.3011,569.1563 L419.2791,569.1563 L425.4631,546.0593 C425.7131,545.1173 425.9591,544.3303 426.1941,543.6643 L420.2691,543.6643 C416.9971,543.6643 414.3441,541.0123 414.3441,537.7403 L414.3441,525.3973 C414.3441,522.1233 416.9971,519.4713 420.2691,519.4713 L426.1941,519.4713 L432.1191,519.4713 C435.3901,519.4713 438.0441,522.1233 438.0441,525.3973 L438.0441,537.7403 C438.0441,541.0123 435.3901,543.6643 432.1191,543.6643 L426.1941,543.6643 C426.4291,544.3303 426.6741,545.1173 426.9261,546.0593 L433.1111,569.1563 L552.9091,569.1563 L552.6841,564.2113 Z" id="Fill-10" fill="#FFFFFF"></path>
        <path d="M699.0562,465.43 C699.1502,465.43 699.2422,465.424 699.3342,465.422 C705.3612,486.278 719.6152,504.879 733.2022,504.879 C746.6492,504.879 760.6332,486.205 766.7092,465.387 C766.9202,465.412 767.1322,465.43 767.3482,465.43 C771.1382,465.43 774.2112,461.092 774.2112,455.741 C774.2112,451.616 772.3832,448.092 769.8082,446.694 C769.8272,446.08 769.8392,445.471 769.8392,444.862 C769.8392,417.723 759.5422,406.604 733.2022,406.604 C706.8622,406.604 696.3662,418.53 696.3662,445.668 C696.3662,446.051 696.3702,446.434 696.3782,446.819 C693.9182,448.291 692.1932,451.731 692.1932,455.741 C692.1932,461.092 695.2662,465.43 699.0562,465.43" id="Fill-12" fill="#FFFFFF"></path>
        <path d="M814.2114,545.3285 L814.0304,541.3555 C813.0154,534.6035 808.6084,529.2055 802.8024,526.6175 C802.8154,526.6175 802.8294,526.6155 802.8434,526.6155 C802.8434,526.6155 764.3844,506.2215 732.1764,506.7035 C703.5224,507.1315 670.1354,523.0045 663.1144,526.5025 C657.1814,529.0455 652.6614,534.5065 651.6334,541.3555 L651.4624,545.3285 L814.2114,545.3285 Z" id="Fill-14" fill="#FFFFFF"></path>
        <path d="M898.728,470.0101 C898.822,470.0101 898.914,470.0041 899.006,470.0001 C905.033,490.8561 919.287,509.4571 932.874,509.4571 C946.321,509.4571 960.305,490.7831 966.381,469.9651 C966.592,469.9901 966.804,470.0101 967.02,470.0101 C970.81,470.0101 973.883,465.6701 973.883,460.3191 C973.883,456.1941 972.055,452.6721 969.48,451.2721 C969.499,450.6601 969.511,450.0491 969.511,449.4421 C969.511,422.3031 959.214,411.1821 932.874,411.1821 C906.534,411.1821 896.038,423.1101 896.038,450.2461 C896.038,450.6291 896.042,451.0121 896.05,451.3971 C893.59,452.8691 891.865,456.3111 891.865,460.3191 C891.865,465.6701 894.938,470.0101 898.728,470.0101" id="Fill-16" fill="#FFFFFF"></path>
        <path d="M1013.8833,549.9086 L1013.7023,545.9336 C1012.6873,539.1836 1008.2803,533.7836 1002.4743,531.1956 C1002.4873,531.1956 1002.5013,531.1936 1002.5153,531.1936 C1002.5153,531.1936 964.0563,510.7996 931.8483,511.2816 C903.1943,511.7096 869.8073,527.5826 862.7863,531.0806 C856.8533,533.6236 852.3333,539.0846 851.3053,545.9336 L851.1343,549.9086 L1013.8833,549.9086 Z" id="Fill-18" fill="#FFFFFF"></path>
        <path d="M93.0962,449.7836 C93.1892,449.7836 93.2822,449.7776 93.3732,449.7736 C99.4002,470.6316 113.6542,489.2326 127.2422,489.2326 C140.6882,489.2326 154.6722,470.5586 160.7492,449.7406 C160.9592,449.7656 161.1712,449.7836 161.3872,449.7836 C165.1772,449.7836 168.2502,445.4456 168.2502,440.0926 C168.2502,435.9696 166.4222,432.4456 163.8472,431.0476 C163.8662,430.4336 163.8782,429.8246 163.8782,429.2156 C163.8782,402.0766 153.5822,390.9576 127.2422,390.9576 C100.9022,390.9576 90.4052,402.8836 90.4052,430.0196 C90.4052,430.4046 90.4092,430.7876 90.4172,431.1726 C87.9582,432.6446 86.2332,436.0846 86.2332,440.0926 C86.2332,445.4456 89.3052,449.7836 93.0962,449.7836" id="Fill-20" fill="#FFFFFF"></path>
        <path d="M208.2515,529.682 L208.0695,525.709 C207.0545,518.957 202.6485,513.557 196.8415,510.969 L196.8835,510.969 C196.8835,510.969 158.4235,490.575 126.2155,491.057 C97.5615,491.485 64.1745,507.356 57.1535,510.854 C51.2205,513.399 46.7015,518.86 45.6725,525.709 L45.5015,529.682 L208.2515,529.682 Z" id="Fill-22" fill="#FFFFFF"></path>
    </g>
</svg>