
<svg width="1061px" height="1062px" viewBox="971 834 1061 1062" version="1.1" xmlns="http://www.w3.org/2000/svg" xmlns:xlink="http://www.w3.org/1999/xlink">
    <!-- Generator: Sketch 3.8.3 (29802) - http://www.bohemiancoding.com/sketch -->
    <desc>Created with Sketch.</desc>
    <defs>
        <rect id="path-1" x="0" y="0" width="1060" height="1061"></rect>
        <mask id="mask-2" maskContentUnits="userSpaceOnUse" maskUnits="objectBoundingBox" x="0" y="0" width="1060" height="1061" fill="white">
            <use xlink:href="#path-1"></use>
        </mask>
        <polygon id="path-3" points="0.264517886 75.2616582 314.746339 75.2616582 314.746339 0.788170285 0.264517886 0.788170285"></polygon>
        <polygon id="path-5" points="131.404744 0.529882756 0.733825436 0.529882756 0.733825436 80.0018205 131.404744 80.0018205 131.404744 0.529882756"></polygon>
    </defs>
    <g id="Group" stroke="none" stroke-width="1" fill="none" fill-rule="evenodd" transform="translate(971.000000, 834.000000)">
        <use id="Rectangle-1" stroke="#FF4B40" mask="url(#mask-2)" stroke-width="2" fill="#FF4B40" xlink:href="#path-1"></use>
        <g id="Page-1" transform="translate(124.000000, 195.000000)">
            <path d="M213.01316,75.9970867 C212.051911,75.9970867 211.028776,76.1710021 209.969707,76.5157819 L206.858377,77.5318143 L207.006108,74.2060626 C207.330517,66.9677218 200.605773,59.0805034 195.198628,55.6652514 C190.703821,57.1603141 172.177587,62.8791831 151.65599,62.8802001 L151.648004,62.8802001 C135.805878,62.8812172 122.707751,59.4496924 112.678032,52.6791943 C110.57187,55.306233 106.515264,61.4298876 107.018347,69.1401394 L107.250923,72.6845567 L103.975892,71.4712167 C103.372991,71.2474658 102.724174,71.1355904 102.045411,71.1355904 C100.277633,71.1355904 98.1045933,71.9543152 96.7251076,74.091136 C96.7251076,74.1694489 96.7231112,74.2467446 96.7231112,74.3250574 C96.7231112,74.9383382 96.8967947,109.420382 109.68848,138.736832 C119.166206,160.458974 137.28618,179.382196 158.413673,179.382196 C181.966745,179.382196 199.950967,156.766068 209.385771,132.330438 C217.381198,111.624328 219.612132,89.6875891 220.221022,80.3622629 C219.178922,78.7634612 216.831201,75.9970867 213.01316,75.9970867" id="Fill-1" fill="#FFFFFF"></path>
            <path d="M195.454263,53.1343239 C195.454263,53.1343239 142.623552,71.9965227 112.325774,49.6143158 C112.325774,49.6143158 103.993959,57.7191828 104.75058,69.2952394 C100.58617,67.7513584 94.8426386,69.9369976 93.4202311,76.24067 C93.4202311,76.24067 84.3008522,16.4290098 122.677906,14.3725358 C143.381172,-8.26596758 228.149672,-11.3547467 222.912217,80.4899026 C222.912217,80.4899026 218.745811,71.2225481 209.278067,74.3113272 C209.657376,65.8220156 201.877555,56.7275596 195.454263,53.1343239" id="Fill-3" fill="#FFFFFF"></path>
            <path d="M314.205625,252.810826 C312.243202,239.509853 303.724727,228.874567 292.501184,223.775082 C292.527136,223.775082 292.554087,223.773048 292.579042,223.773048 C292.579042,223.773048 218.23055,183.602646 155.966034,184.553587 C100.573993,185.394687 36.0296319,216.659804 22.4573689,223.551331 C10.9872745,228.558265 2.25019876,239.315597 0.259826437,252.810826 L0.000299454211,259.010759 L150.072775,259.010759 L157.681907,230.055362 C157.990345,228.877619 158.293792,227.890064 158.581268,227.054049 L151.291554,227.054049 C147.267888,227.054049 144.00184,223.729314 144.00184,219.627554 L144.00184,204.15213 C144.00184,200.052404 147.267888,196.725635 151.291554,196.725635 L158.581268,196.725635 L165.87198,196.725635 C169.897642,196.725635 173.160695,200.052404 173.160695,204.15213 L173.160695,219.627554 C173.160695,223.729314 169.897642,227.054049 165.87198,227.054049 L158.581268,227.054049 C158.871738,227.890064 159.174187,228.877619 159.481627,230.055362 L167.090758,259.010759 L314.482121,259.010759 L314.205625,252.810826 Z" id="Fill-5" fill="#FFFFFF"></path>
            <path d="M469.809719,487.709479 C468.848471,487.709479 467.825336,487.883394 466.766266,488.228174 L463.654937,489.244207 L463.802667,485.918455 C464.127076,478.680114 457.402333,470.792896 451.995188,467.377644 C447.50038,468.872706 428.974146,474.591575 408.452549,474.592592 L408.444564,474.592592 C392.602438,474.593609 379.504311,471.162085 369.474591,464.391587 C367.36843,467.018625 363.311823,473.14228 363.814906,480.852532 L364.047482,484.396949 L360.772452,483.183609 C360.16955,482.959858 359.520733,482.847983 358.84197,482.847983 C357.074192,482.847983 354.901153,483.666707 353.521667,485.803528 C353.521667,485.881841 353.519671,485.959137 353.519671,486.03745 C353.519671,486.650731 353.693354,521.132775 366.48504,550.449225 C375.962765,572.171366 394.08274,591.094588 415.210233,591.094588 C438.763304,591.094588 456.747526,568.47846 466.18233,544.04283 C474.177758,523.336721 476.408691,501.399981 477.017582,492.074655 C475.975481,490.475853 473.62776,487.709479 469.809719,487.709479" id="Fill-7" fill="#FFFFFF"></path>
            <path d="M452.250922,464.846716 C452.250922,464.846716 399.420212,483.708915 369.122433,461.326708 C369.122433,461.326708 360.790618,469.431575 361.547239,481.007632 C357.382829,479.463751 351.639298,481.64939 350.21689,487.953062 C350.21689,487.953062 341.097511,428.141402 379.474565,426.084928 C400.177831,403.446425 484.946331,400.357646 479.708876,492.202295 C479.708876,492.202295 475.54247,482.93494 466.074726,486.02372 C466.454035,477.534408 458.674215,468.439952 452.250922,464.846716" id="Fill-9" fill="#FFFFFF"></path>
            <g id="Group-13" transform="translate(256.532441, 595.461087)">
                <mask id="mask-4" fill="white">
                    <use xlink:href="#path-3"></use>
                </mask>
                <g id="Clip-12"></g>
                <path d="M314.469843,69.06203 C312.50742,55.7610575 303.988946,45.1257715 292.765402,40.0262857 C292.791355,40.0262857 292.818306,40.0242516 292.84326,40.0242516 C292.84326,40.0242516 218.494769,-0.146150004 156.230253,0.804791218 C100.838211,1.6458911 36.2938504,32.9110078 22.7215873,39.8025348 C11.2514929,44.8094692 2.51441719,55.566801 0.524044869,69.06203 L0.264517886,75.2619634 L150.336994,75.2619634 L157.946125,46.3065659 C158.254563,45.1288227 158.55801,44.1412677 158.845486,43.305253 L151.555773,43.305253 C147.532106,43.305253 144.266059,39.9805184 144.266059,35.8787581 L144.266059,20.4033338 C144.266059,16.3036076 147.532106,12.9768389 151.555773,12.9768389 L158.845486,12.9768389 L166.136198,12.9768389 C170.161861,12.9768389 173.424914,16.3036076 173.424914,20.4033338 L173.424914,35.8787581 C173.424914,39.9805184 170.161861,43.305253 166.136198,43.305253 L158.845486,43.305253 C159.135957,44.1412677 159.438406,45.1288227 159.745845,46.3065659 L167.354977,75.2619634 L314.746339,75.2619634 L314.469843,69.06203 Z" id="Fill-11" fill="#FFFFFF" mask="url(#mask-4)"></path>
            </g>
            <path d="M710.199681,75.9961713 C709.238433,75.9961713 708.215298,76.1700868 707.156228,76.5148666 L704.044899,77.5308989 L704.19263,74.2051473 C704.517038,66.9668065 697.792295,59.0795881 692.38515,55.6643361 C687.890342,57.1593987 669.364108,62.8782677 648.842511,62.8792848 L648.834526,62.8792848 C632.9924,62.8803018 619.894273,59.448777 609.864553,52.6782789 C607.758392,55.3053176 603.701785,61.4289723 604.204869,69.139224 L604.437445,72.6836413 L601.162414,71.4703014 C600.559513,71.2465505 599.910695,71.134675 599.231932,71.134675 C597.464154,71.134675 595.291115,71.9533998 593.911629,74.0902207 C593.911629,74.1685335 593.909633,74.2458293 593.909633,74.3241421 C593.909633,74.9374229 594.083316,109.419467 606.875002,138.735917 C616.352728,160.458059 634.472702,179.381281 655.600195,179.381281 C679.153267,179.381281 697.137488,156.765152 706.572292,132.329523 C714.56772,111.623413 716.798654,89.6866738 717.407544,80.3613475 C716.365443,78.7625458 714.017722,75.9961713 710.199681,75.9961713" id="Fill-14" fill="#FFFFFF"></path>
            <g id="Group-18" transform="translate(588.926615, 0.487167)">
                <mask id="mask-6" fill="white">
                    <use xlink:href="#path-5"></use>
                </mask>
                <g id="Clip-17"></g>
                <path d="M103.714269,52.6462419 C103.714269,52.6462419 50.883559,71.5084407 20.5857801,49.1262338 C20.5857801,49.1262338 12.2539658,57.2311007 13.0105867,68.8071574 C8.84617685,67.2632764 3.10264508,69.4489156 1.68023758,75.752588 C1.68023758,75.752588 -7.43914133,15.9409277 30.9379122,13.8844538 C51.6411781,-8.75404961 136.409678,-11.8428287 131.172224,80.0018205 C131.172224,80.0018205 127.005818,70.7344661 117.538074,73.8232452 C117.917382,65.3339336 110.137562,56.2394775 103.714269,52.6462419" id="Fill-16" fill="#FFFFFF" mask="url(#mask-6)"></path>
            </g>
            <g id="Group-21" transform="translate(497.093990, 184.427411)" fill="#FFFFFF">
                <path d="M314.298256,68.382398 C312.335833,55.0814255 303.817359,44.4461395 292.593815,39.3466536 C292.619767,39.3466536 292.646718,39.3446195 292.671673,39.3446195 C292.671673,39.3446195 218.323181,-0.825782026 156.058665,0.125159196 C100.666624,0.96625908 36.1222631,32.2313758 22.5500001,39.1229028 C11.0799056,44.1298371 2.34282993,54.887169 0.352457606,68.382398 L0.0929306235,74.5823313 L150.165407,74.5823313 L157.774538,45.6269339 C158.082976,44.4491907 158.386423,43.4616357 158.673899,42.625621 L151.384185,42.625621 C147.360519,42.625621 144.094472,39.3008864 144.094472,35.199126 L144.094472,19.7237018 C144.094472,15.6239755 147.360519,12.2972068 151.384185,12.2972068 L158.673899,12.2972068 L165.964611,12.2972068 C169.990274,12.2972068 173.253326,15.6239755 173.253326,19.7237018 L173.253326,35.199126 C173.253326,39.3008864 169.990274,42.625621 165.964611,42.625621 L158.673899,42.625621 C158.96437,43.4616357 159.266818,44.4491907 159.574258,45.6269339 L167.183389,74.5823313 L314.574752,74.5823313 L314.298256,68.382398 Z" id="Fill-19"></path>
            </g>
            <path d="M213.636024,544.143823 C161.738613,491.265389 132.443008,421.480542 130.712162,346.973534 L158.471568,346.973534 L133.668774,297.449329 C133.700715,297.222527 133.728664,296.993691 133.761604,296.766889 L133.340372,296.794349 L114.416862,259.009946 L63.4028412,346.973534 L90.7849342,346.973534 C92.523765,432.34263 125.963817,512.338653 185.408472,572.916152 C192.175139,579.811747 199.183366,586.361545 206.42916,592.565547 L234.938199,563.793218 C227.570627,557.65024 220.453598,551.090271 213.636024,544.143823" id="Fill-22" fill="#FFFFFF"></path>
            <path d="M581.5826,88.9804347 L537.526897,1.01786308 L521.300471,28.995876 C487.292455,16.838067 451.147333,10.5079514 414.040964,10.5079514 C367.197341,10.5079514 321.878939,20.5869113 280.464422,39.7481226 L300.358163,75.2736594 C335.723706,59.4890522 374.253481,51.1899288 414.040964,51.1899288 C443.834661,51.1899288 472.933625,55.8469982 500.524338,64.8214424 L486.513874,88.9804347 L581.5826,88.9804347 Z" id="Fill-24" fill="#FFFFFF"></path>
            <path d="M737.371857,339.961182 C737.371857,326.312378 736.562332,312.795791 734.976223,299.462273 L694.310341,296.766075 C696.385559,310.944761 697.444629,325.365505 697.444629,339.961182 C697.444629,417.094211 667.968352,489.609836 614.435921,544.144027 C612.492463,546.125239 610.516066,548.063735 608.525693,549.979856 L597.388991,527.743087 L546.37497,615.705659 L641.443697,615.705659 L627.347389,587.56085 C632.583845,582.865133 637.698523,577.987364 642.674453,572.916355 C703.743149,510.682083 737.371857,427.956299 737.371857,339.961182" id="Fill-26" fill="#FFFFFF"></path>
        </g>
    </g>
</svg>