
<svg width="65px" height="67px" viewBox="117 0 65 67" version="1.1" xmlns="http://www.w3.org/2000/svg" xmlns:xlink="http://www.w3.org/1999/xlink">
    <!-- Generator: Sketch 3.8.3 (29802) - http://www.bohemiancoding.com/sketch -->
    <desc>Created with Sketch.</desc>
    <defs>
        <polygon id="path-1" points="0 66 63.8688579 66 63.8688579 0 0 0"></polygon>
    </defs>
    <g id="Page-1" stroke="none" stroke-width="1" fill="none" fill-rule="evenodd" transform="translate(118.000000, 0.000000)">
        <g id="Group-3" transform="translate(0.000000, 2.145000)" fill="#E6EDEE">
            <path d="M13.6861602,2.228061 C13.6861602,1.454211 13.92,0.736296 14.3122687,0.130911 L2.87975194,3.187371 C0.80744186,3.741441 -0.421953488,5.865981 0.133374677,7.933596 L13.6029767,58.087986 C13.6153798,58.135671 13.6861602,58.126596 13.6861602,58.076601 L13.6861602,2.228061 Z" id="Fill-1"></path>
        </g>
        <path d="M50.1826315,3.2351385 C50.1826315,2.4612885 49.9487917,1.7433735 49.556523,1.1379885 L60.9890398,4.1944485 C63.0613499,4.7485185 64.2907452,6.8730585 63.7354171,8.9406735 L50.265815,59.0950635 C50.2534119,59.1427485 50.1826315,59.1336735 50.1826315,59.0836785 L50.1826315,3.2351385 Z" id="Fill-4" fill="#E6EDEE"></path>
        <path d="M46.2991876,66 L17.5707948,66 C15.4253891,66 13.6861437,64.264695 13.6861437,62.125305 L13.6861437,3.874695 C13.6861437,1.735305 15.4253891,0 17.5707948,0 L46.2991876,0 C48.4444279,0 50.1826811,1.735305 50.1826811,3.874695 L50.1826811,62.12415 C50.1826811,64.264695 48.4444279,66 46.2991876,66" id="Fill-6" fill="#3C4860"></path>
        <mask id="mask-2" fill="white">
            <use xlink:href="#path-1"></use>
        </mask>
        <g id="Clip-9"></g>
        <polygon id="Fill-8" fill="#7DE95E" mask="url(#mask-2)" points="13.6860775 52.344765 50.182615 52.344765 50.182615 6.827535 13.6860775 6.827535"></polygon>
        <path d="M31.9343959,55.758615 C33.8241323,55.758615 35.3559979,57.28701 35.3559979,59.172465 C35.3559979,61.057755 33.8241323,62.58615 31.9343959,62.58615 C30.0446594,62.58615 28.5127938,61.057755 28.5127938,59.172465 C28.5127938,57.28701 30.0446594,55.758615 31.9343959,55.758615" id="Fill-10" fill="#1E2632" mask="url(#mask-2)"></path>
        <path d="M31.9343959,4.551723 L27.37237,4.551723 C26.741631,4.551723 26.2317809,4.043028 26.2317809,3.413718 C26.2317809,2.784573 26.741631,2.275878 27.37237,2.275878 L31.9343959,2.275878 C32.5651349,2.275878 33.074985,2.784573 33.074985,3.413718 C33.074985,4.043028 32.5651349,4.551723 31.9343959,4.551723" id="Fill-11" fill="#1E2632" mask="url(#mask-2)"></path>
        <path d="M36.4964548,4.551723 L35.3558656,4.551723 C34.725292,4.551723 34.2154419,4.043028 34.2154419,3.413718 C34.2154419,2.784573 34.725292,2.275878 35.3558656,2.275878 L36.4964548,2.275878 C37.1271938,2.275878 37.6370439,2.784573 37.6370439,3.413718 C37.6370439,4.043028 37.1271938,4.551723 36.4964548,4.551723" id="Fill-12" fill="#1E2632" mask="url(#mask-2)"></path>
    </g>
</svg>