
<svg width="94px" height="95px" viewBox="103 0 94 95" version="1.1" xmlns="http://www.w3.org/2000/svg" xmlns:xlink="http://www.w3.org/1999/xlink">
    <!-- Generator: Sketch 3.8.3 (29802) - http://www.bohemiancoding.com/sketch -->
    <desc>Created with Sketch.</desc>
    <defs>
        <polygon id="path-1" points="52.2928172 0.000947630923 9.4949495e-05 0.000947630923 9.4949495e-05 62.9991671 52.2928172 62.9991671 52.2928172 0.000947630923"></polygon>
        <polygon id="path-3" points="28.9622071 34.9828498 28.9622071 0.224872818 0.111482576 0.224872818 0.111482576 34.9828498"></polygon>
    </defs>
    <g id="Page-1" stroke="none" stroke-width="1" fill="none" fill-rule="evenodd" transform="translate(103.000000, 0.000000)">
        <g id="Group-3" transform="translate(0.000000, 0.235960)">
            <mask id="mask-2" fill="white">
                <use xlink:href="#path-1"></use>
            </mask>
            <g id="Clip-2"></g>
            <path d="M44.6343096,55.3556945 L44.6343096,55.3556945 C34.4229662,65.5469913 17.868047,65.5469913 7.65860253,55.3556945 C-2.55274091,45.1643978 -2.55274091,28.6438741 7.65860253,18.4525773 L26.1464561,0.000781795511 L44.6343096,18.4525773 C54.845653,28.6438741 54.845653,45.166293 44.6343096,55.3556945" id="Fill-1" fill="#0097EA" mask="url(#mask-2)"></path>
        </g>
        <g id="Group-6" transform="translate(64.803030, 33.639950)">
            <mask id="mask-4" fill="white">
                <use xlink:href="#path-3"></use>
            </mask>
            <g id="Clip-5"></g>
            <path d="M24.7374056,30.7663067 L24.7374056,30.7663067 C19.1042894,36.3883641 9.96943586,36.3883641 4.3363197,30.7663067 C-1.29679646,25.1442494 -1.29679646,16.0273292 4.3363197,10.4052718 L14.5369813,0.224872818 L24.7374056,10.4052718 C30.3705217,16.0273292 30.3705217,25.1442494 24.7374056,30.7663067" id="Fill-4" fill="#C7E9FA" mask="url(#mask-4)"></path>
        </g>
        <path d="M55.5903657,92.8907868 L55.5903657,92.8907868 C52.7739263,95.701697 48.2063808,95.701697 45.3899414,92.8907868 C42.5732646,90.0798766 42.5732646,85.521298 45.3899414,82.7103878 L50.489204,77.620899 L55.5884667,82.7103878 C58.4068051,85.5231933 58.4068051,90.0798766 55.5903657,92.8907868" id="Fill-7" fill="#E2EDF5"></path>
        <path d="M16.2289813,38.0398716 C22.204153,38.0398716 27.0480015,42.8742107 27.0480015,48.8376521 C27.0480015,54.8010935 22.204153,59.6354327 16.2289813,59.6354327 C10.2538096,59.6354327 5.40996111,54.8010935 5.40996111,48.8376521 C5.40996111,42.8742107 10.2538096,38.0398716 16.2289813,38.0398716" id="Fill-9" fill="#C7E9FA"></path>
    </g>
</svg>