
<svg width="71px" height="58px" viewBox="115 -1 71 58" version="1.1" xmlns="http://www.w3.org/2000/svg" xmlns:xlink="http://www.w3.org/1999/xlink">
    <!-- Generator: Sketch 3.8.3 (29802) - http://www.bohemiancoding.com/sketch -->
    <desc>Created with Sketch.</desc>
    <defs></defs>
    <g id="Group-28" stroke="none" stroke-width="1" fill="none" fill-rule="evenodd" transform="translate(116.000000, 0.000000)">
        <g id="Page-1">
            <polygon id="Fill-1" fill="#B7E2EE" points="0 54.1048002 68.8586124 54.1048002 68.8586124 0.177714421 0 0.177714421"></polygon>
            <g id="Group-9" transform="translate(0.000000, 0.079616)">
                <polygon id="Stroke-2" stroke="#E6EDEE" stroke-width="2" points="0 54.0251841 68.8586124 54.0251841 68.8586124 0.0980983607 0 0.0980983607"></polygon>
                <path d="M18.4442705,5.00051062 C22.9052008,5.00051062 26.5215496,8.60509223 26.5215496,13.0515071 C26.5215496,17.4980996 22.9052008,21.1026812 18.4442705,21.1026812 C13.9833403,21.1026812 10.3669915,17.4980996 10.3669915,13.0515071 C10.3669915,8.60509223 13.9833403,5.00051062 18.4442705,5.00051062" id="Fill-4" fill="#FF8B00"></path>
                <polygon id="Fill-5" fill="#009271" points="67.6289682 35.7769697 66.3992705 34.4153218 51.6439682 20.9335504 38.732945 35.0280812 45.474976 41.7481743 50.4142705 46.6713969 67.6289682 46.6713969"></polygon>
                <polygon id="Fill-6" fill="#009271" points="1.22960853 51.5739513 30.7403915 51.5739513 25.8010969 46.6507287 12.3170349 33.2105425 1.22960853 42.9407625"></polygon>
                <polygon id="Fill-7" fill="#715A48" points="1.22969767 52.7996655 67.629093 52.7996655 67.629093 46.6715391 1.22969767 46.6715391"></polygon>
                <polygon id="Fill-8" fill="#00B087" points="45.4749581 41.7481921 31.9908961 28.3080058 11.0666016 46.6714147 50.4142527 46.6714147"></polygon>
            </g>
        </g>
    </g>
</svg>