
<svg width="58px" height="66px" viewBox="112 0 58 66" version="1.1" xmlns="http://www.w3.org/2000/svg" xmlns:xlink="http://www.w3.org/1999/xlink">
    <!-- Generator: Sketch 3.8.3 (29802) - http://www.bohemiancoding.com/sketch -->
    <desc>Created with Sketch.</desc>
    <defs>
        <polygon id="path-1" points="0.0923438202 63.7474647 26.7107221 63.7474647 26.7107221 0.086009788 0.0923438202 0.086009788 0.0923438202 63.7474647"></polygon>
    </defs>
    <g id="Page-1" stroke="none" stroke-width="1" fill="none" fill-rule="evenodd" transform="translate(112.000000, 0.000000)">
        <path d="M49.7465348,49.2132892 C49.634282,49.2910019 49.1947202,49.4651574 48.2874112,49.4651574 L48.2870854,49.4651574 C46.3421303,49.4651574 43.3582258,48.7054453 39.6737596,47.1056797 C40.0219225,44.7839905 40.2772202,42.3265914 40.4318326,39.7822789 C41.1741022,39.1622198 41.897473,38.537889 42.6003157,37.9109294 C43.9805854,39.3411399 45.2148775,40.7563994 46.2697933,42.1274627 C49.686091,46.5661264 49.885018,48.7992592 49.7465348,49.2132892 M32.5555629,52.8694034 C31.0136753,58.2733154 29.3412876,59.7505151 28.9295854,59.8801459 C28.5177202,59.7505151 26.8453326,58.2733154 25.3034449,52.8694034 C25.0820348,52.0939188 24.8761022,51.28081 24.6853213,50.4354989 C26.0742258,49.7050319 27.4931079,48.8989879 28.9295854,48.0257462 C30.3657371,48.8988236 31.7849449,49.7050319 33.1735236,50.4354989 C32.9829056,51.2806457 32.776973,52.0937545 32.5555629,52.8694034 M9.57208539,49.4649931 C8.66493933,49.4649931 8.22488876,49.2908376 8.11247303,49.2129606 C7.97398989,48.7992592 8.17291685,46.5661264 11.5892146,42.1271341 C12.6441303,40.7562351 13.8784225,39.3408113 15.2586921,37.9106008 C15.9613719,38.5375604 16.6849056,39.1620555 17.4270124,39.7819504 C17.5816247,42.3264271 17.8369225,44.7836619 18.1850854,47.1055154 C14.500782,48.7054453 11.5168775,49.4649931 9.57208539,49.4649931 M8.11247303,18.5639025 C8.22488876,18.4861897 8.6647764,18.3117057 9.57224831,18.3117057 C11.5170404,18.3117057 14.5009449,19.0714177 18.1852483,20.6710191 C17.8370854,22.9928726 17.5817876,25.4502716 17.4271753,27.9947484 C16.6850685,28.6148075 15.9618607,29.2391383 15.2588551,29.8659336 C13.8787483,28.4357231 12.6444562,27.020628 11.5895404,25.6498932 C8.17307978,21.2107366 7.97398989,18.9777681 8.11247303,18.5639025 M25.3034449,14.9072953 C26.8453326,9.50371191 28.5177202,8.02634798 28.9295854,7.89688148 C29.3412876,8.02634798 31.0136753,9.50371191 32.5555629,14.9072953 C32.7768101,15.6827799 32.9829056,16.4958887 33.1735236,17.3413641 C31.784782,18.0716669 30.3657371,18.8777109 28.9295854,19.7511169 C27.4931079,18.8778752 26.0742258,18.0718312 24.6853213,17.3413641 C24.8761022,16.4958887 25.0821978,15.6827799 25.3034449,14.9072953 M32.4045348,38.6885499 C31.2241697,39.5573555 30.0649843,40.3681642 28.9295854,41.1262332 C27.7941865,40.3681642 26.6348382,39.5575198 25.454636,38.6885499 C24.6480124,38.0947784 23.8576809,37.4921349 23.084782,36.8834123 C23.0528494,35.8948337 23.0362315,34.89574 23.0362315,33.8885958 C23.0362315,32.8814516 23.0528494,31.8821937 23.084782,30.8936151 C23.8576809,30.2847282 24.6480124,29.6822489 25.454636,29.0883132 C26.6348382,28.2193432 27.7941865,27.4086989 28.9295854,26.6504655 C30.0648213,27.4086989 31.2241697,28.2191789 32.4045348,29.0883132 C33.2111584,29.6820846 34.001327,30.2847282 34.7743888,30.8936151 C34.8061584,31.8820294 34.8227764,32.8814516 34.8227764,33.8885958 C34.8227764,34.8955757 34.8061584,35.8948337 34.7743888,36.8834123 C34.001327,37.4919706 33.2111584,38.0947784 32.4045348,38.6885499 M48.2867596,18.3117057 C49.1942315,18.3117057 49.634282,18.4860254 49.7465348,18.5639025 C49.885018,18.9777681 49.6859281,21.2107366 46.2697933,25.6498932 C45.2147146,27.020628 43.9805854,28.4357231 42.6004787,29.8659336 C41.897636,29.2391383 41.1742652,28.6146432 40.4321584,27.9947484 C40.2773831,25.4502716 40.0220854,22.9930369 39.6739225,20.6710191 C43.3582258,19.0714177 46.3419674,18.3117057 48.2867596,18.3117057 M46.7913045,33.8884315 C48.5019787,32.1125389 50.0150292,30.3494615 51.2827202,28.6427381 C56.6941528,21.3563043 55.977136,17.2671016 54.4227034,15.120225 C53.5499337,13.9142807 51.7766978,12.4770054 48.2867596,12.4770054 C45.6319562,12.4770054 42.2759393,13.3104871 38.5274449,14.8341829 C38.3337315,14.0586983 38.1273101,13.309337 37.9081809,12.5890563 C35.2631528,3.88489865 31.5654899,2.05790946 28.9294225,2.05790946 C26.2931921,2.05790946 22.5955292,3.88489865 19.9505011,12.5890563 C19.7316978,13.309337 19.5251135,14.0586983 19.3312371,14.8341829 C15.5827427,13.3104871 12.2270517,12.4770054 9.57192247,12.4770054 C6.08198427,12.4770054 4.30891124,13.9142807 3.43614157,15.1198964 C1.88154607,17.2671016 1.16452921,21.35614 6.5759618,28.6427381 C7.84365281,30.3496257 9.35670337,32.1127032 11.0673775,33.8884315 C9.35670337,35.6641599 7.84365281,37.4274016 6.5759618,39.134125 C1.16469213,46.420723 1.88154607,50.5095972 3.43597865,52.6568023 C4.30874831,53.8627467 6.08198427,55.2998577 9.57175955,55.2998577 C12.2265629,55.2998577 15.5825798,54.466376 19.3312371,52.9425159 C19.5251135,53.7181648 19.7315348,54.4675261 19.9505011,55.1878067 C22.5955292,63.8916358 26.2931921,65.7187893 28.9294225,65.7187893 C31.5654899,65.7187893 35.2631528,63.8916358 37.9081809,55.1878067 C38.1271472,54.4673618 38.3337315,53.7178362 38.5274449,52.9423516 C42.2759393,54.4660474 45.6317933,55.2996934 48.2867596,55.2998577 L48.2874112,55.2998577 C51.7766978,55.2998577 53.5497708,53.8625824 54.4227034,52.6568023 C55.977136,50.5095972 56.6939899,46.4208873 51.2827202,39.134125 C50.0150292,37.4272373 48.5018157,35.6641599 46.7913045,33.8884315" id="Fill-1" fill="#00D8E1"></path>
        <g id="Group-5" transform="translate(28.837079, 1.971900)">
            <mask id="mask-2" fill="white">
                <use xlink:href="#path-1"></use>
            </mask>
            <g id="Clip-4"></g>
            <path d="M20.9094562,47.2413895 C20.7972034,47.3191023 20.3576416,47.4932577 19.4503326,47.4932577 L19.4500067,47.4932577 C17.5050517,47.4932577 14.5211472,46.7335457 10.8366809,45.13378 C11.1848438,42.8120908 11.4401416,40.3546917 11.5947539,37.8103793 C12.3370236,37.1903202 13.0603944,36.5659893 13.7632371,35.9390297 C15.1435067,37.3692403 16.3777989,38.7844997 17.4327146,40.1555631 C20.8490124,44.5942267 21.0479393,46.8273596 20.9094562,47.2413895 M19.4496809,16.339806 C20.3571528,16.339806 20.7972034,16.5141257 20.9094562,16.5920028 C21.0479393,17.0058684 20.8488494,19.238837 17.4327146,23.6779935 C16.377636,25.0487283 15.1435067,26.4638235 13.7634,27.894034 C13.0605573,27.2672387 12.3371865,26.6427435 11.5950798,26.0228487 C11.4403045,23.478372 11.1850067,21.0211372 10.8368438,18.6991194 C14.5211472,17.0995181 17.5048888,16.339806 19.4496809,16.339806 M17.9542258,31.9165319 C19.6649,30.1406392 21.1779506,28.3775618 22.4456416,26.6708384 C27.8570742,19.3844046 27.1400573,15.2952019 25.5856247,13.1483253 C24.7128551,11.942381 22.9396191,10.5051057 19.4496809,10.5051057 C16.7948775,10.5051057 13.4388607,11.3385874 9.69036629,12.8622832 C9.49665281,12.0867986 9.29023146,11.3374373 9.07110225,10.6171567 C6.42607416,1.91299898 2.72841124,0.086009788 0.0923438202,0.086009788 L0.0923438202,5.92498182 C0.504046067,6.05444832 2.17643371,7.53181224 3.71832135,12.9353957 C3.93956854,13.7108803 4.14566404,14.523989 4.33628202,15.3694644 C2.94737753,16.0997672 1.52849551,16.9058112 0.0923438202,17.7792172 L0.0923438202,24.6787302 C1.22757978,25.4369635 2.38692809,26.2474435 3.56729326,27.1165778 C4.37391685,27.7103493 5.16408539,28.3129928 5.93698427,28.9218797 C5.96891685,29.910294 5.98553483,30.9097162 5.98553483,31.9168605 C5.98553483,32.9238404 5.96891685,33.9230983 5.93698427,34.9116769 C5.16408539,35.5203995 4.37391685,36.123043 3.56729326,36.7168145 C2.38692809,37.5856202 1.2277427,38.3964288 0.0923438202,39.1544979 L0.0923438202,46.0541751 C1.52849551,46.9274168 2.94754045,47.7334608 4.33628202,48.4639279 C4.14566404,49.309239 3.93956854,50.1223477 3.71832135,50.8978324 C2.17643371,56.3017444 0.504046067,57.778944 0.0923438202,57.9085748 L0.0923438202,63.7475468 C2.72841124,63.7475468 6.42607416,61.9203933 9.07110225,53.2163999 C9.29006854,52.495955 9.49665281,51.7465937 9.69036629,50.9709448 C13.4388607,52.4946406 16.7947146,53.3282866 19.4496809,53.3284509 L19.4503326,53.3284509 C22.9396191,53.3284509 24.7126921,51.8911756 25.5856247,50.6853956 C27.1400573,48.5381904 27.8569112,44.4494806 22.4456416,37.1627182 C21.1779506,35.4553376 19.6647371,33.6922602 17.9542258,31.9165319" id="Fill-3" fill="#00979D" mask="url(#mask-2)"></path>
        </g>
        <path d="M4.95937472,11.6695484 C7.69840843,11.6695484 9.91870056,13.9087603 9.91870056,16.6707671 C9.91870056,19.4329381 7.69840843,21.67215 4.95937472,21.67215 C2.22034101,21.67215 4.88764045e-05,19.4329381 4.88764045e-05,16.6707671 C4.88764045e-05,13.9087603 2.22034101,11.6695484 4.95937472,11.6695484" id="Fill-6" fill="#FFEC96"></path>
        <path d="M28.9295365,0 C31.6685702,0 33.8888624,2.23921185 33.8888624,5.00121862 C33.8888624,7.76338969 31.6685702,10.0026015 28.9295365,10.0026015 C26.1905028,10.0026015 23.9702107,7.76338969 23.9702107,5.00121862 C23.9702107,2.23921185 26.1905028,0 28.9295365,0" id="Fill-8" fill="#FFDB2D"></path>
        <path d="M52.8996983,46.6782431 C55.638732,46.6782431 57.8590242,48.9174549 57.8590242,51.6794617 C57.8590242,54.4416328 55.638732,56.6808446 52.8996983,56.6808446 C50.1606646,56.6808446 47.9403725,54.4416328 47.9403725,51.6794617 C47.9403725,48.9174549 50.1606646,46.6782431 52.8996983,46.6782431" id="Fill-10" fill="#FFCF00"></path>
        <path d="M28.9295365,0 L28.9295365,10.0026015 C31.6684073,10.0026015 33.8888624,7.76338969 33.8888624,5.00121862 C33.8888624,2.23921185 31.6684073,0 28.9295365,0" id="Fill-12" fill="#FFCF00"></path>
    </g>
</svg>