
<svg width="53px" height="74px" viewBox="119 -1 53 74" version="1.1" xmlns="http://www.w3.org/2000/svg" xmlns:xlink="http://www.w3.org/1999/xlink">
    <!-- Generator: Sketch 3.8.3 (29802) - http://www.bohemiancoding.com/sketch -->
    <desc>Created with Sketch.</desc>
    <defs>
        <polygon id="path-1" points="0 72.8342253 52.9369483 72.8342253 52.9369483 0 0 0"></polygon>
    </defs>
    <g id="Page-1" stroke="none" stroke-width="1" fill="none" fill-rule="evenodd" transform="translate(119.000000, 0.000000)">
        <path d="M13.8644528,34.597657 L37.8120459,34.597657 L37.8120459,16.245457 C37.8120459,10.2001329 32.4402217,5.28288987 25.8382493,5.28288987 C19.2362769,5.28288987 13.8644528,10.2001329 13.8644528,16.245457 L13.8644528,34.597657 L13.8644528,34.597657 Z M42.8538079,39.6958291 L8.82287345,39.6958291 L8.82287345,16.245457 C8.82287345,7.38843165 16.4557872,0.184717722 25.8382493,0.184717722 C35.2207114,0.184717722 42.8538079,7.38843165 42.8538079,16.245457 L42.8538079,39.6958291 L42.8538079,39.6958291 Z" id="Fill-1" fill="#C7CCC8"></path>
        <path d="M13.8644528,34.597657 L37.8120459,34.597657 L37.8120459,16.245457 C37.8120459,10.2001329 32.4402217,5.28288987 25.8382493,5.28288987 C19.2362769,5.28288987 13.8644528,10.2001329 13.8644528,16.245457 L13.8644528,34.597657 L13.8644528,34.597657 Z M42.8538079,39.6958291 L8.82287345,39.6958291 L8.82287345,16.245457 C8.82287345,7.38843165 16.4557872,0.184717722 25.8382493,0.184717722 C35.2207114,0.184717722 42.8538079,7.38843165 42.8538079,16.245457 L42.8538079,39.6958291 L42.8538079,39.6958291 Z" id="Stroke-3" stroke="#C7CCC8" stroke-width="2"></path>
        <mask id="mask-2" fill="white">
            <use xlink:href="#path-1"></use>
        </mask>
        <g id="Clip-6"></g>
        <polygon id="Fill-5" fill="#6C84C3" mask="url(#mask-2)" points="0 72.8342253 52.9369483 72.8342253 52.9369483 32.0484785 0 32.0484785"></polygon>
        <polygon id="Fill-7" fill="#607AB2" mask="url(#mask-2)" points="26.4685655 72.8342253 52.937131 72.8342253 52.937131 32.0484785 26.4685655 32.0484785"></polygon>
        <polygon id="Fill-8" fill="#FCBC00" mask="url(#mask-2)" points="43.5923355 71.5596823 51.6764803 63.3847911 51.6764803 58.8140671 44.6358872 58.8140671 32.031939 71.5596823"></polygon>
        <polygon id="Fill-9" fill="#495871" mask="url(#mask-2)" points="1.26039483 58.814141 1.26039483 68.4828524 10.8217776 58.814141"></polygon>
        <polygon id="Fill-10" fill="#3C4860" mask="url(#mask-2)" points="28.4674879 71.5596823 41.0714362 58.8140671 29.5110397 58.8140671 16.9070914 71.5596823"></polygon>
        <path d="M25.94668,58.814141 L14.3862834,58.814141 L2.15150759,71.1862549 C1.90569724,71.4348246 1.58312828,71.5597562 1.26037655,71.5597562 L13.342549,71.5597562 L25.94668,58.814141 Z" id="Fill-11" fill="#F6CE00" mask="url(#mask-2)"></path>
        <polygon id="Fill-12" fill="#3C4860" mask="url(#mask-2)" points="51.6765717 71.5596823 51.6765717 66.989143 47.1567683 71.5596823"></polygon>
        <polygon id="Fill-13" fill="#495871" mask="url(#mask-2)" points="26.4684924 61.8909154 16.9071097 71.5596268 26.4684924 71.5596268"></polygon>
    </g>
</svg>