
<svg width="59px" height="61px" viewBox="112 0 59 61" version="1.1" xmlns="http://www.w3.org/2000/svg" xmlns:xlink="http://www.w3.org/1999/xlink">
    <!-- Generator: Sketch 3.8.3 (29802) - http://www.bohemiancoding.com/sketch -->
    <desc>Created with Sketch.</desc>
    <defs>
        <polygon id="path-1" points="0 60 58.9143452 60 58.9143452 0 0 0"></polygon>
    </defs>
    <g id="Page-1" stroke="none" stroke-width="1" fill="none" fill-rule="evenodd" transform="translate(112.000000, 0.000000)">
        <path d="M29.4571726,60 C34.6264112,60 38.9644086,56.37135 40.0668401,51.52335 L29.4571726,51.52335 L29.4571726,60 L29.4571726,60 Z" id="Fill-1" fill="#FF8800"></path>
        <path d="M18.8475201,51.52329 C19.9501013,56.37129 24.287949,59.99994 29.4571876,59.99994 L29.4571876,51.52329 L18.8475201,51.52329 Z" id="Fill-3" fill="#FFA91E"></path>
        <path d="M54.5438378,46.679115 L54.5438378,39.742815 L50.9168353,36.109665 L50.9168353,27.203715 C50.9168353,17.600115 44.5442363,9.224565 35.5021119,6.573615 L35.5021119,6.055215 C35.5021119,2.716365 32.7903581,1.50000001e-05 29.4571576,1.50000001e-05 L29.4571576,46.679115 L54.5438378,46.679115 Z" id="Fill-5" fill="#FFCF00"></path>
        <path d="M29.4571726,0 C26.1239721,0 23.4122183,2.71635 23.4122183,6.0552 L23.4122183,6.5736 C14.3700939,9.22455 7.99749492,17.6001 7.99749492,27.2037 L7.99749492,36.10965 L4.37049239,39.7428 L4.37049239,46.6791 L29.4571726,46.6791 L29.4571726,0 Z" id="Fill-7" fill="#FFDB2D"></path>
        <mask id="mask-2" fill="white">
            <use xlink:href="#path-1"></use>
        </mask>
        <g id="Clip-10"></g>
        <polygon id="Fill-9" fill="#FFB84C" mask="url(#mask-2)" points="1.95254061 51.52335 56.9618046 51.52335 56.9618046 46.6791 1.95254061 46.6791"></polygon>
        <path d="M54.1536891,22.73082 L58.9144201,21.87882 C57.4768566,13.81887 52.7276561,6.60792 45.8847043,2.09487 L43.2253617,6.14082 C48.9651332,9.92637 52.9485317,15.97317 54.1536891,22.73082" id="Fill-11" fill="#FFE570" mask="url(#mask-2)"></path>
        <path d="M15.6890135,6.14085 L13.0296708,2.0949 C6.18671904,6.60795 1.43751853,13.8189 -4.49238579e-05,21.8787 L4.76068604,22.7307 C5.9658434,15.9732 9.94924188,9.9264 15.6890135,6.14085" id="Fill-12" fill="#FFEC96" mask="url(#mask-2)"></path>
    </g>
</svg>