
<svg width="60px" height="59px" viewBox="121 0 60 59" version="1.1" xmlns="http://www.w3.org/2000/svg" xmlns:xlink="http://www.w3.org/1999/xlink">
    <!-- Generator: Sketch 3.8.3 (29802) - http://www.bohemiancoding.com/sketch -->
    <desc>Created with Sketch.</desc>
    <defs>
        <polygon id="path-1" points="60 6.31456835 60 0.133982278 4.5e-05 0.133982278 4.5e-05 6.31456835 60 6.31456835"></polygon>
    </defs>
    <g id="Page-1" stroke="none" stroke-width="1" fill="none" fill-rule="evenodd" transform="translate(121.000000, 0.000000)">
        <g id="Group-3" transform="translate(0.000000, 0.015385)">
            <mask id="mask-2" fill="white">
                <use xlink:href="#path-1"></use>
            </mask>
            <g id="Clip-2"></g>
            <path d="M56.896545,0.133907595 L3.103395,0.133907595 C1.396545,0.133907595 4.5e-05,1.52451519 4.5e-05,3.22431266 C4.5e-05,4.92396076 1.396545,6.31456835 3.103395,6.31456835 L3.103395,3.22431266 L56.896545,3.22431266 L56.896545,6.31456835 C58.603395,6.31456835 60.000045,4.92396076 60.000045,3.22431266 C60.000045,1.52451519 58.603395,0.133907595 56.896545,0.133907595" id="Fill-1" fill="#36445B" mask="url(#mask-2)"></path>
        </g>
        <polygon id="Fill-4" fill="#F2EEE1" points="5.17242 52.6853122 11.37927 58.8659729 17.58627 52.6853122 23.79312 58.8659729 29.99997 52.6853122 36.20697 58.8659729 42.41382 52.6853122 48.62067 58.8659729 54.82752 52.6853122 56.89662 54.7455324 56.89662 3.23972734 3.10347 3.23972734 3.10347 54.7455324"></polygon>
        <path d="M44.482755,42.3841362 L28.965555,42.3841362 C28.394505,42.3841362 27.931005,41.9236375 27.931005,41.3539514 C27.931005,40.7844147 28.394505,40.3239159 28.965555,40.3239159 L44.482755,40.3239159 C45.053805,40.3239159 45.517305,40.7844147 45.517305,41.3539514 C45.517305,41.9236375 45.053805,42.3841362 44.482755,42.3841362" id="Fill-6" fill="#DCC5A5"></path>
        <path d="M49.655175,42.3841362 C49.386225,42.3841362 49.117275,42.2707666 48.920625,42.085402 C48.734475,41.8897311 48.620625,41.6219159 48.620625,41.3539514 C48.620625,41.0747843 48.734475,40.8172754 48.920625,40.6226501 C49.313775,40.2414653 49.996575,40.2414653 50.389725,40.6226501 C50.575875,40.8172754 50.689725,41.0747843 50.689725,41.3539514 C50.689725,41.6219159 50.575875,41.8897311 50.389725,42.085402 C50.193075,42.2707666 49.924125,42.3841362 49.655175,42.3841362" id="Fill-8" fill="#DCC5A5"></path>
        <path d="M49.655175,27.9624899 L34.137975,27.9624899 C33.566925,27.9624899 33.103425,27.5019911 33.103425,26.9323051 C33.103425,26.3627684 33.566925,25.9022696 34.137975,25.9022696 L49.655175,25.9022696 C50.226225,25.9022696 50.689725,26.3627684 50.689725,26.9323051 C50.689725,27.5019911 50.226225,27.9624899 49.655175,27.9624899" id="Fill-10" fill="#DCC5A5"></path>
        <path d="M49.655175,35.1733056 L39.310275,35.1733056 C38.739375,35.1733056 38.275875,34.7128068 38.275875,34.1431208 C38.275875,33.5735841 38.739375,33.1130853 39.310275,33.1130853 L49.655175,33.1130853 C50.226225,33.1130853 50.689725,33.5735841 50.689725,34.1431208 C50.689725,34.7128068 50.226225,35.1733056 49.655175,35.1733056" id="Fill-12" fill="#DCC5A5"></path>
        <path d="M31.034475,35.1733056 L28.965525,35.1733056 C28.394475,35.1733056 27.930975,34.7128068 27.930975,34.1431208 C27.930975,33.5735841 28.394475,33.1130853 28.965525,33.1130853 L31.034475,33.1130853 C31.605525,33.1130853 32.069025,33.5735841 32.069025,34.1431208 C32.069025,34.7128068 31.605525,35.1733056 31.034475,35.1733056" id="Fill-14" fill="#DCC5A5"></path>
        <path d="M44.482755,20.7516592 L28.965555,20.7516592 C28.394505,20.7516592 27.931005,20.2911605 27.931005,19.7214744 C27.931005,19.1519377 28.394505,18.691439 28.965555,18.691439 L44.482755,18.691439 C45.053805,18.691439 45.517305,19.1519377 45.517305,19.7214744 C45.517305,20.2911605 45.053805,20.7516592 44.482755,20.7516592" id="Fill-16" fill="#DCC5A5"></path>
        <path d="M49.655175,20.7516592 C49.386225,20.7516592 49.117275,20.6382896 48.920625,20.4529251 C48.734475,20.2572542 48.620625,19.989439 48.620625,19.7214744 C48.620625,19.4423073 48.734475,19.1847985 48.920625,18.9901732 C49.303425,18.6089884 50.006925,18.6089884 50.389725,18.9901732 C50.575875,19.1847985 50.689725,19.4536592 50.689725,19.7214744 C50.689725,19.989439 50.575875,20.2572542 50.389725,20.4529251 C50.193075,20.6382896 49.934475,20.7516592 49.655175,20.7516592" id="Fill-18" fill="#DCC5A5"></path>
        <path d="M30,27.9624899 C29.73105,27.9624899 29.4621,27.8491203 29.26545,27.6637557 C29.0793,27.4680848 28.96545,27.2105759 28.96545,26.9323051 C28.96545,26.653138 29.0793,26.3956291 29.26545,26.2010038 C29.6586,25.819819 30.35175,25.819819 30.73455,26.2010038 C30.9207,26.3956291 31.03455,26.653138 31.03455,26.9323051 C31.03455,27.2105759 30.9207,27.4680848 30.73455,27.6637557 C30.5379,27.8491203 30.26895,27.9624899 30,27.9624899" id="Fill-20" fill="#DCC5A5"></path>
        <path d="M35.17242,35.1733056 C34.90347,35.1733056 34.63452,35.0599359 34.43787,34.8745714 C34.25172,34.6789005 34.13787,34.4110853 34.13787,34.1431208 C34.13787,33.8753056 34.25172,33.6064448 34.43787,33.4118195 C34.83102,33.0306347 35.52417,33.0306347 35.90697,33.4118195 C36.09312,33.5971841 36.20697,33.8639537 36.20697,34.1431208 C36.20697,34.4213916 36.09312,34.6789005 35.90697,34.8745714 C35.71032,35.0599359 35.44137,35.1733056 35.17242,35.1733056" id="Fill-22" fill="#DCC5A5"></path>
        <path d="M13.447245,26.1989276 C13.085145,25.9187149 12.851445,25.4973504 12.803745,25.0452162 C12.760395,24.6238516 12.881445,24.2201124 13.146195,23.9079352 C13.506195,23.4846289 13.971795,23.1878365 14.482695,23.0066542 L14.482695,27.0004314 L13.447245,26.1989276 Z M17.587245,32.0160289 C17.948295,32.2951959 18.183045,32.7164111 18.230745,33.1676491 C18.275145,33.5900592 18.153045,33.9948441 17.888295,34.3059757 C17.528295,34.729282 17.062695,35.0260744 16.551795,35.2072567 L16.551795,31.2125833 L17.587245,32.0160289 Z M18.620745,25.9022846 C18.620745,26.4719706 19.084095,26.93232 19.655145,26.93232 C20.226195,26.93232 20.689695,26.4719706 20.689695,25.9022846 C20.689695,23.4156213 18.909345,21.334639 16.551795,20.8557681 L16.551795,19.7214744 C16.551795,19.1519377 16.088295,18.691439 15.517245,18.691439 C14.946195,18.691439 14.482695,19.1519377 14.482695,19.7214744 L14.482695,20.8587554 C13.354095,21.0874365 12.325845,21.6838592 11.567595,22.5770744 C10.935495,23.3207732 10.642695,24.2725403 10.746195,25.258363 C10.851795,26.2668896 11.373045,27.2022263 12.176895,27.8244896 L14.482695,29.6106213 L14.482695,35.2124846 C13.281795,34.7860415 12.413745,33.6527934 12.413745,32.3116263 C12.413745,31.7419403 11.950395,31.2815909 11.379345,31.2815909 C10.808295,31.2815909 10.344795,31.7419403 10.344795,32.3116263 C10.344795,34.7982896 12.125145,36.8791225 14.482695,37.3581428 L14.482695,38.2636061 C14.482695,38.8332922 14.946195,39.2937909 15.517245,39.2937909 C16.088295,39.2937909 16.551795,38.8332922 16.551795,38.2636061 L16.551795,37.3551554 C17.680395,37.1264744 18.708645,36.5300516 19.467945,35.6368365 C20.100045,34.8910466 20.391795,33.9392795 20.288295,32.9534567 C20.181795,31.9459757 19.661445,31.0116846 18.857595,30.3904668 L16.551795,28.6041858 L16.551795,23.0024719 C17.752695,23.4278694 18.620745,24.5609681 18.620745,25.9022846 L18.620745,25.9022846 Z" id="Fill-24" fill="#00B059"></path>
        <path d="M6.206895,11.4805934 C5.937945,11.4805934 5.668995,11.3672238 5.472345,11.1818592 C5.286195,10.9861884 5.172345,10.7183732 5.172345,10.4504086 C5.172345,10.1825934 5.286195,9.91373266 5.472345,9.71910734 C5.865495,9.33792253 6.558645,9.33792253 6.941445,9.71910734 C7.127595,9.91373266 7.241445,10.1825934 7.241445,10.4504086 C7.241445,10.7183732 7.127595,10.9861884 6.941445,11.1818592 C6.744795,11.3672238 6.475845,11.4805934 6.206895,11.4805934" id="Fill-26" fill="#A7A7A6"></path>
        <path d="M9.134475,10.4504833 C9.134475,9.88393392 9.599925,9.42029848 10.169025,9.42029848 C10.748325,9.42029848 11.203425,9.88393392 11.203425,10.4504833 C11.203425,11.0170327 10.748325,11.4806681 10.169025,11.4806681 C9.599925,11.4806681 9.134475,11.0170327 9.134475,10.4504833 M13.106925,10.4504833 C13.106925,9.88393392 13.562025,9.42029848 14.141325,9.42029848 C14.710275,9.42029848 15.175875,9.88393392 15.175875,10.4504833 C15.175875,11.0170327 14.710275,11.4806681 14.141325,11.4806681 C13.562025,11.4806681 13.106925,11.0170327 13.106925,10.4504833 M17.069025,10.4504833 C17.069025,9.88393392 17.534475,9.42029848 18.103425,9.42029848 C18.672375,9.42029848 19.137975,9.88393392 19.137975,10.4504833 C19.137975,11.0170327 18.672375,11.4806681 18.103425,11.4806681 C17.534475,11.4806681 17.069025,11.0170327 17.069025,10.4504833 M21.030975,10.4504833 C21.030975,9.88393392 21.496575,9.42029848 22.065525,9.42029848 C22.644825,9.42029848 23.099925,9.88393392 23.099925,10.4504833 C23.099925,11.0170327 22.644825,11.4806681 22.065525,11.4806681 C21.496575,11.4806681 21.030975,11.0170327 21.030975,10.4504833 M25.003425,10.4504833 C25.003425,9.88393392 25.458675,9.42029848 26.037975,9.42029848 C26.606925,9.42029848 27.072375,9.88393392 27.072375,10.4504833 C27.072375,11.0170327 26.606925,11.4806681 26.037975,11.4806681 C25.458675,11.4806681 25.003425,11.0170327 25.003425,10.4504833 M28.965525,10.4504833 C28.965525,9.88393392 29.430975,9.42029848 29.999925,9.42029848 C30.569025,9.42029848 31.034475,9.88393392 31.034475,10.4504833 C31.034475,11.0170327 30.569025,11.4806681 29.999925,11.4806681 C29.430975,11.4806681 28.965525,11.0170327 28.965525,10.4504833 M32.927625,10.4504833 C32.927625,9.88393392 33.393075,9.42029848 33.962025,9.42029848 C34.541325,9.42029848 34.996575,9.88393392 34.996575,10.4504833 C34.996575,11.0170327 34.541325,11.4806681 33.962025,11.4806681 C33.393075,11.4806681 32.927625,11.0170327 32.927625,10.4504833 M36.899925,10.4504833 C36.899925,9.88393392 37.355175,9.42029848 37.934475,9.42029848 C38.503425,9.42029848 38.969025,9.88393392 38.969025,10.4504833 C38.969025,11.0170327 38.503425,11.4806681 37.934475,11.4806681 C37.355175,11.4806681 36.899925,11.0170327 36.899925,10.4504833 M40.862025,10.4504833 C40.862025,9.88393392 41.327625,9.42029848 41.896575,9.42029848 C42.465525,9.42029848 42.930975,9.88393392 42.930975,10.4504833 C42.930975,11.0170327 42.465525,11.4806681 41.896575,11.4806681 C41.327625,11.4806681 40.862025,11.0170327 40.862025,10.4504833 M44.824125,10.4504833 C44.824125,9.88393392 45.289725,9.42029848 45.858675,9.42029848 C46.437975,9.42029848 46.893075,9.88393392 46.893075,10.4504833 C46.893075,11.0170327 46.437975,11.4806681 45.858675,11.4806681 C45.289575,11.4806681 44.824125,11.0170327 44.824125,10.4504833 M48.796575,10.4504833 C48.796575,9.88393392 49.251675,9.42029848 49.830975,9.42029848 C50.399925,9.42029848 50.865525,9.88393392 50.865525,10.4504833 C50.865525,11.0170327 50.399925,11.4806681 49.830975,11.4806681 C49.251675,11.4806681 48.796575,11.0170327 48.796575,10.4504833" id="Fill-28" fill="#A7A7A6"></path>
        <path d="M53.793105,11.4805934 C53.513805,11.4805934 53.255205,11.3672238 53.058555,11.1715529 C52.872405,10.9861884 52.758555,10.7183732 52.758555,10.4504086 C52.758555,10.1825934 52.872405,9.91373266 53.058555,9.71910734 C53.431005,9.33792253 54.134505,9.33792253 54.527655,9.71910734 C54.713805,9.91373266 54.827655,10.1825934 54.827655,10.4504086 C54.827655,10.7183732 54.713805,10.9861884 54.527655,11.1818592 C54.331005,11.3672238 54.062055,11.4805934 53.793105,11.4805934" id="Fill-30" fill="#A7A7A6"></path>
    </g>
</svg>