
<svg width="64px" height="48px" viewBox="118 0 64 48" version="1.1" xmlns="http://www.w3.org/2000/svg" xmlns:xlink="http://www.w3.org/1999/xlink">
    <!-- Generator: Sketch 3.8.3 (29802) - http://www.bohemiancoding.com/sketch -->
    <desc>Created with Sketch.</desc>
    <defs>
        <polygon id="path-1" points="31.999984 46.2484827 0 46.2484827 0 0.0550197466 31.999984 0.0550197466 63.999968 0.0550197466 63.999968 46.2484827 31.999984 46.2484827"></polygon>
        <polygon id="path-3" points="0 46.3529405 64 46.3529405 64 0.159477526 0 0.159477526"></polygon>
    </defs>
    <g id="Page-1" stroke="none" stroke-width="1" fill="none" fill-rule="evenodd" transform="translate(118.000000, 0.000000)">
        <g id="Group-3" transform="translate(0.000000, 0.104458)">
            <mask id="mask-2" fill="white">
                <use xlink:href="#path-1"></use>
            </mask>
            <g id="Clip-2"></g>
            <path d="M60.450208,46.2484827 L3.549728,46.2484827 C1.588928,46.2484827 -3.20000001e-05,44.6647114 -3.20000001e-05,42.7103143 L-3.20000001e-05,3.59318815 C-3.20000001e-05,1.63879106 1.588928,0.0550197466 3.549728,0.0550197466 L60.450208,0.0550197466 C62.411008,0.0550197466 63.999968,1.63879106 63.999968,3.59318815 L63.999968,42.7103143 C63.999968,44.6647114 62.411008,46.2484827 60.450208,46.2484827" id="Fill-1" fill="#8099CF" mask="url(#mask-2)"></path>
        </g>
        <mask id="mask-4" fill="white">
            <use xlink:href="#path-3"></use>
        </mask>
        <g id="Clip-5"></g>
        <polygon id="Fill-4" fill="#4E6182" mask="url(#mask-4)" points="0 14.4574352 64 14.4574352 64 5.65874107 0 5.65874107"></polygon>
        <path d="M16.551728,19.9566668 L6.620688,19.9566668 C6.010448,19.9566668 5.517168,20.4494524 5.517168,21.0565833 C5.517168,21.6635548 6.010448,22.1563403 6.620688,22.1563403 L16.551728,22.1563403 C17.161968,22.1563403 17.655248,21.6635548 17.655248,21.0565833 C17.655248,20.4494524 17.161968,19.9566668 16.551728,19.9566668" id="Fill-6" fill="#A1D4F2" mask="url(#mask-4)"></path>
        <path d="M32,21.0565036 C32,20.4493726 31.50672,19.9565871 30.89648,19.9565871 L20.96544,19.9565871 C20.35536,19.9565871 19.86208,20.4493726 19.86208,21.0565036 C19.86208,21.6636345 20.35536,22.1564201 20.96544,22.1564201 L30.89648,22.1564201 C31.50672,22.1564201 32,21.6636345 32,21.0565036" id="Fill-7" fill="#A1D4F2" mask="url(#mask-4)"></path>
        <path d="M7.724144,25.4558825 L6.620624,25.4558825 C6.010544,25.4558825 5.517264,25.9486681 5.517264,26.555799 C5.517264,27.1627705 6.010544,27.655556 6.620624,27.655556 L7.724144,27.655556 C8.334384,27.655556 8.827664,27.1627705 8.827664,26.555799 C8.827664,25.9486681 8.334384,25.4558825 7.724144,25.4558825" id="Fill-8" fill="#A1D4F2" mask="url(#mask-4)"></path>
        <path d="M14.344832,25.4558825 L12.137952,25.4558825 C11.527712,25.4558825 11.034432,25.9486681 11.034432,26.555799 C11.034432,27.1627705 11.527712,27.655556 12.137952,27.655556 L14.344832,27.655556 C14.955072,27.655556 15.448352,27.1627705 15.448352,26.555799 C15.448352,25.9486681 14.955072,25.4558825 14.344832,25.4558825" id="Fill-9" fill="#A1D4F2" mask="url(#mask-4)"></path>
        <path d="M19.862064,25.4558825 L18.758544,25.4558825 C18.148464,25.4558825 17.655184,25.9486681 17.655184,26.555799 C17.655184,27.1627705 18.148464,27.655556 18.758544,27.655556 L19.862064,27.655556 C20.472304,27.655556 20.965584,27.1627705 20.965584,26.555799 C20.965584,25.9486681 20.472304,25.4558825 19.862064,25.4558825" id="Fill-10" fill="#A1D4F2" mask="url(#mask-4)"></path>
        <path d="M26.482752,25.4558825 L24.275872,25.4558825 C23.665632,25.4558825 23.172352,25.9486681 23.172352,26.555799 C23.172352,27.1627705 23.665632,27.655556 24.275872,27.655556 L26.482752,27.655556 C27.092992,27.655556 27.586272,27.1627705 27.586272,26.555799 C27.586272,25.9486681 27.092992,25.4558825 26.482752,25.4558825" id="Fill-11" fill="#A1D4F2" mask="url(#mask-4)"></path>
        <path d="M30.113104,25.7748376 C29.913424,25.9837531 29.793104,26.2696963 29.793104,26.555799 C29.793104,26.8417422 29.913424,27.1276854 30.113104,27.336601 C30.320624,27.5345126 30.596464,27.655556 30.896624,27.655556 C31.183504,27.655556 31.469264,27.5345126 31.679984,27.336601 C31.878544,27.1276854 31.999984,26.8417422 31.999984,26.555799 C31.999984,26.2696963 31.878544,25.9837531 31.679984,25.7748376 C31.271664,25.3678509 30.521424,25.3678509 30.113104,25.7748376" id="Fill-12" fill="#A1D4F2" mask="url(#mask-4)"></path>
        <polygon id="Fill-13" fill="#7DBCE4" mask="url(#mask-4)" points="39.72416 39.7539199 57.37936 39.7539199 57.37936 28.7553928 39.72416 28.7553928"></polygon>
    </g>
</svg>