
<svg width="66px" height="63px" viewBox="118 -1 66 63" version="1.1" xmlns="http://www.w3.org/2000/svg" xmlns:xlink="http://www.w3.org/1999/xlink">
    <!-- Generator: Sketch 3.8.3 (29802) - http://www.bohemiancoding.com/sketch -->
    <desc>Created with Sketch.</desc>
    <defs>
        <polygon id="path-1" points="4.94999999e-05 48.0707965 50.0689695 48.0707965 50.0689695 0.142428319 4.94999999e-05 0.142428319 4.94999999e-05 48.0707965"></polygon>
        <polygon id="path-3" points="15.9310635 -1.08656451e-13 0 -1.08656451e-13 0 60.460177 66 60.460177 66 -1.08656451e-13 15.9310635 -1.08656451e-13 15.9310635 47.9283681 65.9999835 47.9283681 65.9999835 -3.30383482e-05 15.9310635 -3.30383482e-05"></polygon>
    </defs>
    <g id="Page-1" stroke="none" stroke-width="1" fill="none" fill-rule="evenodd" transform="translate(118.000000, 0.000000)">
        <g id="Group-3" transform="translate(0.000000, 12.389381)">
            <mask id="mask-2" fill="white">
                <use xlink:href="#path-1"></use>
            </mask>
            <g id="Clip-2"></g>
            <path d="M50.0689695,5.75779115 L50.0689695,29.8427469 C50.0689695,32.9437263 47.5575045,35.4581097 44.4601245,35.4581097 L25.0345095,35.5390537 L13.6551195,48.0708295 L13.6551195,35.5390537 L5.6088945,35.5390537 C2.5113495,35.5390537 4.94999999e-05,33.0246702 4.94999999e-05,29.9236909 L4.94999999e-05,5.8387351 C4.94999999e-05,2.73759056 2.5113495,0.223372271 5.6088945,0.223372271 L44.4589695,0.142428319 C47.5575045,0.142428319 50.0689695,2.6568118 50.0689695,5.75779115" id="Fill-1" fill="#FCBC00" mask="url(#mask-2)"></path>
        </g>
        <g id="Group-6">
            <mask id="mask-4" fill="white">
                <use xlink:href="#path-3"></use>
            </mask>
            <g id="Clip-5"></g>
        </g>
        <path d="M60.3911385,0.0797545723 L21.5410635,-3.30383482e-05 C18.4425285,-3.30383482e-05 15.9310635,2.51435044 15.9310635,5.61532979 L15.9310635,12.5898903 L44.4600585,12.5305864 C47.5576035,12.5305864 50.0689035,15.0449699 50.0689035,18.1471056 L50.0689035,39.1561912 L58.0344435,47.9283681 L58.0344435,35.3965923 L60.3911385,35.3965923 C63.4885185,35.3965923 65.9999835,32.8822088 65.9999835,29.7812295 L65.9999835,5.69627375 C65.9999835,2.59413805 63.4885185,0.0797545723 60.3911385,0.0797545723" id="Fill-4" fill="#FF8B00"></path>
        <path d="M12.5172465,27.3249935 C14.4027015,27.3249935 15.9310965,28.8551646 15.9310965,30.7428106 C15.9310965,32.6302914 14.4027015,34.1604625 12.5172465,34.1604625 C10.6317915,34.1604625 9.1033965,32.6302914 9.1033965,30.7428106 C9.1033965,28.8551646 10.6317915,27.3249935 12.5172465,27.3249935" id="Fill-7" fill="#FFFFFF"></path>
        <path d="M25.0344765,27.3249935 C26.9199315,27.3249935 28.4483265,28.8551646 28.4483265,30.7428106 C28.4483265,32.6302914 26.9199315,34.1604625 25.0344765,34.1604625 C23.1490215,34.1604625 21.6206265,32.6302914 21.6206265,30.7428106 C21.6206265,28.8551646 23.1490215,27.3249935 25.0344765,27.3249935" id="Fill-9" fill="#FFFFFF"></path>
        <path d="M37.551723,27.3249935 C39.437178,27.3249935 40.965573,28.8551646 40.965573,30.7428106 C40.965573,32.6302914 39.437178,34.1604625 37.551723,34.1604625 C35.666268,34.1604625 34.137873,32.6302914 34.137873,30.7428106 C34.137873,28.8551646 35.666268,27.3249935 37.551723,27.3249935" id="Fill-11" fill="#FFFFFF"></path>
    </g>
</svg>